{"glyphs":{"0":{"ha":740,"x_min":53,"x_max":688,"o":"m 351 -17 q 195 26 263 -17 q 90 147 128 69 q 53 326 53 225 q 97 519 53 433 q 217 653 140 604 q 390 701 294 701 q 544 659 476 701 q 650 540 613 617 q 688 365 688 464 q 644 169 688 257 q 524 33 600 82 q 351 -17 447 -17 m 376 89 q 545 155 481 89 q 610 326 610 221 q 578 463 610 403 q 490 556 546 522 q 361 589 433 589 q 194 523 257 589 q 131 347 131 457 q 162 213 131 272 q 249 122 193 154 q 376 89 304 89 z "},"1":{"ha":492,"x_min":49,"x_max":440,"o":"m 304 561 q 296 156 296 340 q 310 81 296 100 q 364 61 324 61 q 410 63 389 61 q 438 65 431 64 l 440 60 l 428 -4 q 354 -1 408 -3 q 243 0 300 0 q 142 -7 199 0 q 68 -17 85 -14 l 76 47 q 156 65 129 51 q 192 111 182 79 q 201 206 201 143 l 201 522 q 184 586 201 571 q 126 601 167 601 q 84 598 108 601 q 53 593 60 594 l 49 597 l 54 656 q 110 663 68 657 q 207 676 153 668 q 332 698 318 694 q 347 701 346 701 l 356 678 q 317 631 328 654 q 304 561 307 608 z "},"2":{"ha":660,"x_min":38,"x_max":629,"o":"m 147 131 q 319 353 264 263 q 374 503 374 444 q 346 581 374 553 q 269 608 318 608 q 176 575 222 608 q 99 485 131 542 l 86 485 l 71 547 q 172 658 106 614 q 306 701 239 701 q 444 656 392 701 q 496 535 496 610 q 469 440 496 493 q 379 306 442 386 q 200 94 317 225 l 206 85 l 418 85 q 499 94 471 85 q 543 131 526 104 q 574 211 560 157 l 629 218 q 610 131 624 199 q 589 0 596 64 l 572 -10 q 360 -4 519 -8 q 126 0 201 0 l 51 -17 l 38 8 l 147 131 z "},"3":{"ha":576,"x_min":28,"x_max":496,"o":"m 35 -36 q 146 -49 93 -49 q 270 -24 214 -49 q 359 42 326 0 q 392 136 392 85 q 331 241 392 207 q 143 276 271 275 l 136 283 l 129 332 l 219 354 q 310 426 275 381 q 346 517 346 471 q 315 587 346 560 q 238 614 285 614 q 155 594 199 614 q 79 543 111 575 l 65 543 l 51 601 q 92 630 51 603 q 184 679 133 657 q 281 701 235 701 q 412 659 363 701 q 461 546 461 617 q 419 438 461 490 q 308 349 378 385 l 308 342 q 496 169 496 299 q 438 24 496 97 q 292 -98 381 -50 q 117 -146 203 -146 q 49 -122 69 -146 q 28 -44 29 -99 l 35 -36 z "},"4":{"ha":621,"x_min":6,"x_max":582,"o":"m 11 175 l 394 700 l 400 701 l 444 688 l 444 199 l 574 199 l 582 188 l 571 111 l 444 115 q 449 -27 446 44 q 454 -119 453 -99 l 447 -129 l 349 -146 l 340 -133 q 344 -38 342 -110 q 349 118 347 33 q 6 124 135 124 l 11 175 m 349 510 l 336 510 l 113 199 l 349 199 l 349 510 z "},"5":{"ha":597,"x_min":22,"x_max":528,"o":"m 506 178 q 443 22 506 97 q 287 -99 381 -53 q 110 -146 193 -146 q 46 -124 67 -146 q 22 -44 25 -103 l 29 -36 q 142 -49 88 -49 q 273 -25 214 -49 q 366 40 332 -1 q 400 136 400 82 q 373 214 400 182 q 283 269 346 246 q 110 311 219 292 l 97 326 q 113 532 106 429 q 121 665 119 635 l 132 676 l 394 688 q 453 701 436 690 q 482 742 471 711 l 528 747 l 494 583 l 486 575 q 372 581 461 576 q 182 586 283 586 l 172 411 q 419 322 332 374 q 506 178 506 269 z "},"6":{"ha":632,"x_min":56,"x_max":582,"o":"m 542 782 q 458 742 542 789 q 294 612 374 694 q 182 408 214 529 l 188 406 q 225 428 196 411 q 289 462 254 446 q 342 478 324 478 q 472 444 418 478 q 554 358 526 410 q 582 250 582 306 q 547 117 582 178 q 449 19 511 56 q 306 -17 386 -17 q 174 22 231 -17 q 86 126 117 60 q 56 274 56 192 q 158 583 56 460 q 389 774 261 707 q 517 831 517 842 l 526 824 l 542 782 m 311 396 q 233 379 271 396 q 171 344 196 363 q 167 282 167 314 q 211 113 167 176 q 333 50 256 50 q 440 94 400 50 q 479 217 479 139 q 458 305 479 264 q 397 371 436 346 q 311 396 358 396 z "},"7":{"ha":583,"x_min":53,"x_max":581,"o":"m 128 -90 l 475 590 l 235 581 q 164 567 188 578 q 128 530 140 556 q 107 451 117 504 l 53 443 q 65 541 56 465 q 79 683 75 617 l 88 690 q 152 687 101 689 q 257 685 203 685 l 550 685 l 581 646 q 373 210 451 388 q 283 7 294 32 q 269 -26 282 3 l 235 -146 l 225 -146 l 142 -121 l 128 -90 z "},"8":{"ha":674,"x_min":78,"x_max":599,"o":"m 78 172 q 133 314 78 258 q 257 401 188 369 q 144 487 185 440 q 103 604 103 533 q 135 715 103 663 q 224 799 167 767 q 353 831 282 831 q 458 810 408 831 q 539 747 508 789 q 569 644 569 704 q 528 522 569 572 q 432 443 488 472 q 555 353 511 401 q 599 231 599 304 q 561 107 599 164 q 459 17 524 50 q 315 -17 394 -17 q 147 34 217 -17 q 78 172 78 85 m 200 646 q 224 575 200 606 q 283 524 249 544 q 382 468 317 503 q 465 615 465 518 q 427 727 465 688 q 329 767 389 767 q 236 731 272 767 q 200 646 200 694 m 349 43 q 457 85 411 43 q 503 190 503 128 q 476 267 503 235 q 414 319 450 299 q 306 376 378 340 q 217 315 256 356 q 179 206 179 274 q 201 126 179 164 q 263 66 224 89 q 349 43 301 43 z "},"9":{"ha":632,"x_min":50,"x_max":576,"o":"m 90 -97 q 174 -58 90 -104 q 338 72 258 -11 q 449 275 417 154 l 444 279 q 407 256 436 274 q 343 223 378 239 q 290 207 308 207 q 160 241 214 207 q 78 327 106 275 q 50 435 50 379 q 85 568 50 507 q 183 665 121 629 q 326 701 246 701 q 458 663 401 701 q 546 559 515 625 q 576 411 576 493 q 474 101 576 225 q 243 -90 371 -22 q 115 -146 115 -157 l 106 -139 l 90 -97 m 321 289 q 461 340 386 289 q 465 403 465 369 q 420 572 465 508 q 299 635 375 635 q 192 590 232 635 q 153 468 153 546 q 200 342 153 394 q 321 289 247 289 z "}," ":{"ha":281,"x_min":0,"x_max":0,"o":""},"A":{"ha":803,"x_min":-25,"x_max":821,"o":"m 685 157 q 729 85 701 106 q 818 58 757 64 l 821 53 l 811 -4 q 751 -2 794 -4 q 664 0 707 0 q 535 -6 597 0 q 457 -14 474 -11 l 453 -4 l 458 50 q 556 67 529 56 q 582 103 582 78 q 569 169 582 131 l 524 321 q 379 322 490 322 q 228 311 313 322 l 176 167 q 164 113 164 129 q 183 69 164 82 q 247 56 203 56 l 326 56 l 329 50 l 321 -10 q 244 -4 304 -8 q 128 0 185 0 q 33 -1 76 0 q -25 -4 -11 -3 l -14 61 q 49 88 25 65 q 94 168 72 111 l 365 878 l 453 901 l 464 901 q 506 747 472 868 q 590 461 540 626 q 685 157 639 296 m 375 379 q 504 386 424 379 l 394 750 l 385 750 l 253 379 l 375 379 z "},"Á":{"ha":803,"x_min":-25,"x_max":821,"o":"m 685 157 q 729 85 701 106 q 818 58 757 64 l 821 53 l 811 -4 q 751 -2 794 -4 q 664 0 707 0 q 535 -6 597 0 q 457 -14 474 -11 l 453 -4 l 458 50 q 556 67 529 56 q 582 103 582 78 q 569 169 582 131 l 524 321 q 379 322 490 322 q 228 311 313 322 l 176 167 q 164 113 164 129 q 183 69 164 82 q 247 56 203 56 l 326 56 l 329 50 l 321 -10 q 244 -4 304 -8 q 128 0 185 0 q 33 -1 76 0 q -25 -4 -11 -3 l -14 61 q 49 88 25 65 q 94 168 72 111 l 365 878 l 453 901 l 464 901 q 506 747 472 868 q 590 461 540 626 q 685 157 639 296 m 375 379 q 504 386 424 379 l 394 750 l 385 750 l 253 379 l 375 379 m 626 1079 q 517 1041 603 1071 q 340 976 432 1011 l 329 983 l 321 1017 q 488 1107 403 1060 q 597 1168 572 1154 l 610 1160 l 632 1093 l 626 1079 z "},"Ă":{"ha":803,"x_min":-25,"x_max":821,"o":"m 685 157 q 729 85 701 106 q 818 58 757 64 l 821 53 l 811 -4 q 751 -2 794 -4 q 664 0 707 0 q 535 -6 597 0 q 457 -14 474 -11 l 453 -4 l 458 50 q 556 67 529 56 q 582 103 582 78 q 569 169 582 131 l 524 321 q 379 322 490 322 q 228 311 313 322 l 176 167 q 164 113 164 129 q 183 69 164 82 q 247 56 203 56 l 326 56 l 329 50 l 321 -10 q 244 -4 304 -8 q 128 0 185 0 q 33 -1 76 0 q -25 -4 -11 -3 l -14 61 q 49 88 25 65 q 94 168 72 111 l 365 878 l 453 901 l 464 901 q 506 747 472 868 q 590 461 540 626 q 685 157 639 296 m 375 379 q 504 386 424 379 l 394 750 l 385 750 l 253 379 l 375 379 m 408 1067 q 489 1085 453 1067 q 542 1136 525 1103 l 553 1136 l 575 1122 q 517 1025 558 1064 q 408 986 475 986 q 300 1025 342 986 q 242 1122 258 1064 l 264 1136 l 275 1136 q 328 1085 292 1103 q 408 1067 364 1067 z "},"Â":{"ha":803,"x_min":-25,"x_max":821,"o":"m 685 157 q 729 85 701 106 q 818 58 757 64 l 821 53 l 811 -4 q 751 -2 794 -4 q 664 0 707 0 q 535 -6 597 0 q 457 -14 474 -11 l 453 -4 l 458 50 q 556 67 529 56 q 582 103 582 78 q 569 169 582 131 l 524 321 q 379 322 490 322 q 228 311 313 322 l 176 167 q 164 113 164 129 q 183 69 164 82 q 247 56 203 56 l 326 56 l 329 50 l 321 -10 q 244 -4 304 -8 q 128 0 185 0 q 33 -1 76 0 q -25 -4 -11 -3 l -14 61 q 49 88 25 65 q 94 168 72 111 l 365 878 l 453 901 l 464 901 q 506 747 472 868 q 590 461 540 626 q 685 157 639 296 m 375 379 q 504 386 424 379 l 394 750 l 385 750 l 253 379 l 375 379 m 208 1021 q 324 1112 265 1064 q 400 1175 383 1160 l 419 1175 q 495 1112 436 1160 q 611 1021 554 1064 l 592 990 l 579 989 q 410 1079 486 1043 q 240 989 338 1046 l 228 990 l 208 1021 z "},"Ä":{"ha":803,"x_min":-25,"x_max":821,"o":"m 685 157 q 729 85 701 106 q 818 58 757 64 l 821 53 l 811 -4 q 751 -2 794 -4 q 664 0 707 0 q 535 -6 597 0 q 457 -14 474 -11 l 453 -4 l 458 50 q 556 67 529 56 q 582 103 582 78 q 569 169 582 131 l 524 321 q 379 322 490 322 q 228 311 313 322 l 176 167 q 164 113 164 129 q 183 69 164 82 q 247 56 203 56 l 326 56 l 329 50 l 321 -10 q 244 -4 304 -8 q 128 0 185 0 q 33 -1 76 0 q -25 -4 -11 -3 l -14 61 q 49 88 25 65 q 94 168 72 111 l 365 878 l 453 901 l 464 901 q 506 747 472 868 q 590 461 540 626 q 685 157 639 296 m 375 379 q 504 386 424 379 l 394 750 l 385 750 l 253 379 l 375 379 m 288 1007 q 246 1025 261 1007 q 231 1067 231 1043 q 251 1116 231 1096 q 300 1136 271 1136 q 342 1119 326 1136 q 357 1076 357 1101 q 337 1027 357 1047 q 288 1007 317 1007 m 518 1007 q 476 1025 492 1007 q 461 1067 461 1043 q 481 1116 461 1096 q 531 1136 501 1136 q 572 1119 557 1136 q 588 1076 588 1101 q 567 1027 588 1047 q 518 1007 547 1007 z "},"À":{"ha":803,"x_min":-25,"x_max":821,"o":"m 685 157 q 729 85 701 106 q 818 58 757 64 l 821 53 l 811 -4 q 751 -2 794 -4 q 664 0 707 0 q 535 -6 597 0 q 457 -14 474 -11 l 453 -4 l 458 50 q 556 67 529 56 q 582 103 582 78 q 569 169 582 131 l 524 321 q 379 322 490 322 q 228 311 313 322 l 176 167 q 164 113 164 129 q 183 69 164 82 q 247 56 203 56 l 326 56 l 329 50 l 321 -10 q 244 -4 304 -8 q 128 0 185 0 q 33 -1 76 0 q -25 -4 -11 -3 l -14 61 q 49 88 25 65 q 94 168 72 111 l 365 878 l 453 901 l 464 901 q 506 747 472 868 q 590 461 540 626 q 685 157 639 296 m 375 379 q 504 386 424 379 l 394 750 l 385 750 l 253 379 l 375 379 m 232 1168 q 342 1107 257 1154 q 508 1017 426 1060 l 500 983 l 489 976 q 312 1041 397 1011 q 203 1079 226 1071 l 197 1093 l 219 1160 l 232 1168 z "},"Ā":{"ha":803,"x_min":-25,"x_max":821,"o":"m 685 157 q 729 85 701 106 q 818 58 757 64 l 821 53 l 811 -4 q 751 -2 794 -4 q 664 0 707 0 q 535 -6 597 0 q 457 -14 474 -11 l 453 -4 l 458 50 q 556 67 529 56 q 582 103 582 78 q 569 169 582 131 l 524 321 q 379 322 490 322 q 228 311 313 322 l 176 167 q 164 113 164 129 q 183 69 164 82 q 247 56 203 56 l 326 56 l 329 50 l 321 -10 q 244 -4 304 -8 q 128 0 185 0 q 33 -1 76 0 q -25 -4 -11 -3 l -14 61 q 49 88 25 65 q 94 168 72 111 l 365 878 l 453 901 l 464 901 q 506 747 472 868 q 590 461 540 626 q 685 157 639 296 m 375 379 q 504 386 424 379 l 394 750 l 385 750 l 253 379 l 375 379 m 410 1000 l 210 999 l 201 1011 l 215 1074 l 429 1072 q 531 1076 472 1072 q 608 1081 590 1079 l 617 1067 l 607 1001 l 410 1000 z "},"Ą":{"ha":803,"x_min":-25,"x_max":821,"o":"m 696 -253 q 744 -246 719 -253 q 783 -231 768 -239 q 803 -221 799 -224 l 821 -247 q 795 -269 815 -253 q 744 -304 775 -285 q 682 -335 714 -324 q 570 -300 613 -335 q 528 -204 528 -265 q 561 -112 528 -160 q 660 0 594 -65 q 534 -6 594 0 q 457 -14 474 -11 l 453 -4 l 458 50 q 556 67 529 56 q 582 103 582 78 q 569 169 582 131 l 524 321 q 379 322 490 322 q 228 311 313 322 l 176 167 q 164 113 164 129 q 183 69 164 82 q 247 56 203 56 l 326 56 l 329 50 l 321 -10 q 244 -4 304 -8 q 128 0 185 0 q 33 -1 76 0 q -25 -4 -11 -3 l -14 61 q 49 88 25 65 q 94 168 72 111 l 365 878 l 453 901 l 464 901 q 506 747 472 868 q 590 461 540 626 q 685 157 639 296 q 729 85 701 106 q 818 58 757 64 l 821 53 l 811 -4 l 719 -1 q 639 -99 663 -61 q 615 -178 615 -137 q 638 -232 615 -211 q 696 -253 660 -253 m 375 379 q 504 386 424 379 l 394 750 l 385 750 l 253 379 l 375 379 z "},"Å":{"ha":803,"x_min":-25,"x_max":821,"o":"m 685 157 q 729 85 701 106 q 818 58 757 64 l 821 53 l 811 -4 q 751 -2 794 -4 q 664 0 707 0 q 535 -6 597 0 q 457 -14 474 -11 l 453 -4 l 458 50 q 556 67 529 56 q 582 103 582 78 q 569 169 582 131 l 524 321 q 379 322 490 322 q 228 311 313 322 l 176 167 q 164 113 164 129 q 183 69 164 82 q 247 56 203 56 l 326 56 l 329 50 l 321 -10 q 244 -4 304 -8 q 128 0 185 0 q 33 -1 76 0 q -25 -4 -11 -3 l -14 61 q 49 88 25 65 q 94 168 72 111 l 365 878 l 453 901 l 464 901 q 506 747 472 868 q 590 461 540 626 q 685 157 639 296 m 375 379 q 504 386 424 379 l 394 750 l 385 750 l 253 379 l 375 379 m 403 936 q 325 967 353 936 q 297 1047 297 997 q 329 1131 297 1099 q 414 1164 361 1164 q 494 1133 468 1164 q 521 1058 521 1103 q 489 972 521 1008 q 403 936 457 936 m 413 989 q 474 1043 474 989 q 455 1092 474 1074 q 403 1110 436 1110 q 358 1095 374 1110 q 342 1056 342 1081 q 364 1006 342 1022 q 413 989 386 989 z "},"Ǻ":{"ha":803,"x_min":-25,"x_max":821,"o":"m 685 157 q 729 85 701 106 q 818 58 757 64 l 821 53 l 811 -4 q 751 -2 794 -4 q 664 0 707 0 q 535 -6 597 0 q 457 -14 474 -11 l 453 -4 l 458 50 q 556 67 529 56 q 582 103 582 78 q 569 169 582 131 l 524 321 q 379 322 490 322 q 228 311 313 322 l 176 167 q 164 113 164 129 q 183 69 164 82 q 247 56 203 56 l 326 56 l 329 50 l 321 -10 q 244 -4 304 -8 q 128 0 185 0 q 33 -1 76 0 q -25 -4 -11 -3 l -14 61 q 49 88 25 65 q 94 168 72 111 l 365 878 l 453 901 l 464 901 q 506 747 472 868 q 590 461 540 626 q 685 157 639 296 m 375 379 q 504 386 424 379 l 394 750 l 385 750 l 253 379 l 375 379 m 426 928 q 356 956 381 928 q 331 1028 331 983 q 360 1104 331 1075 q 436 1133 389 1133 q 509 1106 485 1133 q 532 1038 532 1078 q 504 961 532 993 q 426 928 475 928 m 435 976 q 490 1025 490 976 q 473 1068 490 1052 q 426 1085 456 1085 q 385 1071 400 1085 q 371 1036 371 1058 q 391 991 371 1006 q 435 976 411 976 m 583 1228 q 485 1194 561 1221 q 325 1136 408 1167 l 315 1142 l 308 1172 q 458 1253 381 1211 q 556 1308 534 1296 l 568 1301 l 588 1241 l 583 1228 z "},"Ã":{"ha":803,"x_min":-25,"x_max":821,"o":"m 685 157 q 729 85 701 106 q 818 58 757 64 l 821 53 l 811 -4 q 751 -2 794 -4 q 664 0 707 0 q 535 -6 597 0 q 457 -14 474 -11 l 453 -4 l 458 50 q 556 67 529 56 q 582 103 582 78 q 569 169 582 131 l 524 321 q 379 322 490 322 q 228 311 313 322 l 176 167 q 164 113 164 129 q 183 69 164 82 q 247 56 203 56 l 326 56 l 329 50 l 321 -10 q 244 -4 304 -8 q 128 0 185 0 q 33 -1 76 0 q -25 -4 -11 -3 l -14 61 q 49 88 25 65 q 94 168 72 111 l 365 878 l 453 901 l 464 901 q 506 747 472 868 q 590 461 540 626 q 685 157 639 296 m 375 379 q 504 386 424 379 l 394 750 l 385 750 l 253 379 l 375 379 m 183 1007 l 289 1117 l 311 1122 q 419 1097 336 1122 q 466 1085 432 1094 q 514 1076 500 1076 q 547 1090 528 1076 q 582 1119 567 1104 q 601 1139 597 1135 l 610 1139 l 640 1110 l 640 1103 l 535 993 l 513 988 q 404 1013 488 988 q 358 1024 392 1015 q 310 1033 324 1033 q 275 1019 294 1033 q 241 990 256 1006 q 222 971 226 975 l 214 971 l 183 1000 l 183 1007 z "},"Æ":{"ha":1125,"x_min":-14,"x_max":1089,"o":"m 418 50 q 503 61 475 54 q 542 81 531 68 q 553 121 553 94 q 549 174 553 146 q 543 213 544 203 l 518 383 l 381 372 l 254 358 l 156 167 q 133 103 133 124 q 210 56 133 56 l 289 56 l 282 -10 q 205 -4 264 -8 q 90 0 146 0 q 35 -2 63 0 q -4 -6 7 -4 l -14 43 q 3 63 -10 47 q 36 107 17 79 q 74 168 56 135 l 417 803 q 382 825 411 825 q 354 824 368 825 q 335 822 340 822 l 332 828 l 342 889 l 374 889 q 563 885 486 885 q 822 888 729 885 q 976 901 914 892 l 981 893 q 973 853 979 885 q 960 771 967 822 q 949 663 953 719 l 882 657 q 883 681 882 664 q 885 717 885 699 q 872 784 885 765 q 815 809 858 803 q 667 815 772 815 q 602 813 621 815 q 577 801 583 810 q 569 772 571 793 l 613 456 l 776 471 l 904 489 l 910 482 l 892 408 l 772 404 l 621 392 l 660 157 q 694 83 668 104 q 776 63 719 63 q 929 74 883 63 q 994 118 975 85 q 1024 232 1013 151 l 1085 239 l 1089 232 q 1072 142 1085 213 q 1051 -1 1060 72 l 1044 -10 l 975 -8 q 671 0 817 0 l 624 0 q 496 -6 557 0 q 418 -14 435 -11 l 415 -4 l 418 50 m 468 749 l 456 749 l 292 431 l 408 438 l 510 446 l 468 749 z "},"Ǽ":{"ha":1125,"x_min":-14,"x_max":1089,"o":"m 418 50 q 503 61 475 54 q 542 81 531 68 q 553 121 553 94 q 549 174 553 146 q 543 213 544 203 l 518 383 l 381 372 l 254 358 l 156 167 q 133 103 133 124 q 210 56 133 56 l 289 56 l 282 -10 q 205 -4 264 -8 q 90 0 146 0 q 35 -2 63 0 q -4 -6 7 -4 l -14 43 q 3 63 -10 47 q 36 107 17 79 q 74 168 56 135 l 417 803 q 382 825 411 825 q 354 824 368 825 q 335 822 340 822 l 332 828 l 342 889 l 374 889 q 563 885 486 885 q 822 888 729 885 q 976 901 914 892 l 981 893 q 973 853 979 885 q 960 771 967 822 q 949 663 953 719 l 882 657 q 883 681 882 664 q 885 717 885 699 q 872 784 885 765 q 815 809 858 803 q 667 815 772 815 q 602 813 621 815 q 577 801 583 810 q 569 772 571 793 l 613 456 l 776 471 l 904 489 l 910 482 l 892 408 l 772 404 l 621 392 l 660 157 q 694 83 668 104 q 776 63 719 63 q 929 74 883 63 q 994 118 975 85 q 1024 232 1013 151 l 1085 239 l 1089 232 q 1072 142 1085 213 q 1051 -1 1060 72 l 1044 -10 l 975 -8 q 671 0 817 0 l 624 0 q 496 -6 557 0 q 418 -14 435 -11 l 415 -4 l 418 50 m 468 749 l 456 749 l 292 431 l 408 438 l 510 446 l 468 749 m 874 1161 q 783 1089 853 1146 q 640 967 713 1032 l 628 969 l 600 996 q 726 1139 663 1064 q 808 1236 790 1214 l 822 1233 l 875 1176 l 874 1161 z "},"B":{"ha":829,"x_min":81,"x_max":753,"o":"m 239 0 q 146 -7 196 0 q 81 -17 96 -14 l 89 47 q 175 84 153 60 q 197 167 197 108 l 199 750 q 188 810 199 794 q 147 825 178 825 q 119 824 133 825 q 100 822 106 822 l 97 828 l 107 889 q 169 886 124 888 q 261 885 215 885 q 358 887 308 885 q 425 890 407 889 q 628 835 557 890 q 699 679 699 781 q 656 554 699 610 q 538 465 614 499 q 696 388 639 443 q 753 254 753 332 q 708 122 753 183 q 588 23 663 60 q 426 -14 513 -14 q 340 -7 389 -14 q 239 0 261 0 m 304 488 q 374 482 325 486 q 456 476 424 478 q 492 491 456 472 q 557 549 528 510 q 586 656 586 589 q 526 788 586 744 q 342 831 467 831 q 323 824 328 831 q 317 799 318 818 q 304 488 308 665 m 296 154 q 332 79 296 101 q 454 57 368 57 q 585 103 538 57 q 633 229 633 150 q 586 352 633 304 q 446 417 539 400 l 301 414 l 296 154 z "},"C":{"ha":874,"x_min":56,"x_max":801,"o":"m 471 -17 q 251 36 346 -17 q 106 185 157 89 q 56 413 56 282 q 118 663 56 551 q 291 838 181 775 q 540 901 401 901 q 645 894 592 901 q 735 878 699 886 q 782 868 772 871 l 788 860 q 778 819 785 851 q 765 736 772 788 q 753 628 757 685 l 686 622 q 689 648 688 629 q 690 690 690 667 q 486 819 690 819 q 325 775 394 819 q 218 649 256 731 q 181 458 181 568 q 220 246 181 338 q 332 103 260 154 q 499 53 404 53 q 651 106 593 53 q 735 272 708 160 l 801 278 q 783 185 797 257 q 764 51 769 114 l 756 39 q 713 23 756 38 q 608 -4 671 8 q 471 -17 544 -17 z "},"Ć":{"ha":874,"x_min":56,"x_max":801,"o":"m 471 -17 q 251 36 346 -17 q 106 185 157 89 q 56 413 56 282 q 118 663 56 551 q 291 838 181 775 q 540 901 401 901 q 645 894 592 901 q 735 878 699 886 q 782 868 772 871 l 788 860 q 778 819 785 851 q 765 736 772 788 q 753 628 757 685 l 686 622 q 689 648 688 629 q 690 690 690 667 q 486 819 690 819 q 325 775 394 819 q 218 649 256 731 q 181 458 181 568 q 220 246 181 338 q 332 103 260 154 q 499 53 404 53 q 651 106 593 53 q 735 272 708 160 l 801 278 q 783 185 797 257 q 764 51 769 114 l 756 39 q 713 23 756 38 q 608 -4 671 8 q 471 -17 544 -17 m 715 1079 q 606 1041 692 1071 q 429 976 521 1011 l 418 983 l 410 1017 q 576 1107 492 1060 q 686 1168 661 1154 l 699 1160 l 721 1093 l 715 1079 z "},"Č":{"ha":874,"x_min":56,"x_max":801,"o":"m 471 -17 q 251 36 346 -17 q 106 185 157 89 q 56 413 56 282 q 118 663 56 551 q 291 838 181 775 q 540 901 401 901 q 645 894 592 901 q 735 878 699 886 q 782 868 772 871 l 788 860 q 778 819 785 851 q 765 736 772 788 q 753 628 757 685 l 686 622 q 689 648 688 629 q 690 690 690 667 q 486 819 690 819 q 325 775 394 819 q 218 649 256 731 q 181 458 181 568 q 220 246 181 338 q 332 103 260 154 q 499 53 404 53 q 651 106 593 53 q 735 272 708 160 l 801 278 q 783 185 797 257 q 764 51 769 114 l 756 39 q 713 23 756 38 q 608 -4 671 8 q 471 -17 544 -17 m 700 1132 q 584 1041 643 1089 q 508 978 525 993 l 489 978 q 413 1041 472 993 q 297 1132 354 1089 l 317 1163 l 329 1164 q 499 1074 422 1110 q 668 1164 571 1107 l 681 1163 l 700 1132 z "},"Ç":{"ha":874,"x_min":56,"x_max":801,"o":"m 801 278 q 783 185 797 257 q 764 51 769 114 l 756 39 q 714 23 747 35 q 625 -1 681 11 q 503 -15 569 -12 l 485 -69 q 528 -99 494 -76 q 583 -146 563 -122 q 603 -193 603 -169 q 578 -258 603 -228 q 514 -306 553 -287 q 436 -324 475 -324 q 372 -310 401 -324 q 342 -274 342 -296 q 376 -196 342 -251 l 389 -196 q 411 -254 390 -233 q 465 -275 432 -275 q 513 -260 493 -275 q 532 -222 532 -246 q 500 -174 532 -200 q 414 -118 468 -149 l 444 -17 q 239 43 326 -11 q 103 192 151 97 q 56 413 56 288 q 118 663 56 551 q 291 838 181 775 q 540 901 401 901 q 645 894 592 901 q 735 878 699 886 q 782 868 772 871 l 788 860 q 778 819 785 851 q 765 736 772 788 q 753 628 757 685 l 686 622 q 689 648 688 629 q 690 690 690 667 q 486 819 690 819 q 325 775 394 819 q 218 649 256 731 q 181 458 181 568 q 220 246 181 338 q 332 103 260 154 q 499 53 404 53 q 651 106 593 53 q 735 272 708 160 l 801 278 z "},"Ĉ":{"ha":874,"x_min":56,"x_max":801,"o":"m 471 -17 q 251 36 346 -17 q 106 185 157 89 q 56 413 56 282 q 118 663 56 551 q 291 838 181 775 q 540 901 401 901 q 645 894 592 901 q 735 878 699 886 q 782 868 772 871 l 788 860 q 778 819 785 851 q 765 736 772 788 q 753 628 757 685 l 686 622 q 689 648 688 629 q 690 690 690 667 q 486 819 690 819 q 325 775 394 819 q 218 649 256 731 q 181 458 181 568 q 220 246 181 338 q 332 103 260 154 q 499 53 404 53 q 651 106 593 53 q 735 272 708 160 l 801 278 q 783 185 797 257 q 764 51 769 114 l 756 39 q 713 23 756 38 q 608 -4 671 8 q 471 -17 544 -17 m 272 1006 q 388 1132 329 1065 q 464 1218 447 1199 l 483 1218 q 559 1131 500 1199 q 675 1006 618 1064 l 656 975 l 643 974 q 503 1086 590 1021 l 474 1108 q 304 974 365 1028 l 292 975 l 272 1006 z "},"Ċ":{"ha":874,"x_min":56,"x_max":801,"o":"m 471 -17 q 251 36 346 -17 q 106 185 157 89 q 56 413 56 282 q 118 663 56 551 q 291 838 181 775 q 540 901 401 901 q 645 894 592 901 q 735 878 699 886 q 782 868 772 871 l 788 860 q 778 819 785 851 q 765 736 772 788 q 753 628 757 685 l 686 622 q 689 648 688 629 q 690 690 690 667 q 486 819 690 819 q 325 775 394 819 q 218 649 256 731 q 181 458 181 568 q 220 246 181 338 q 332 103 260 154 q 499 53 404 53 q 651 106 593 53 q 735 272 708 160 l 801 278 q 783 185 797 257 q 764 51 769 114 l 756 39 q 713 23 756 38 q 608 -4 671 8 q 471 -17 544 -17 m 492 999 q 442 1019 460 999 q 424 1069 424 1040 q 447 1127 424 1103 q 506 1151 471 1151 q 556 1131 538 1151 q 574 1081 574 1110 q 550 1023 574 1047 q 492 999 526 999 z "},"D":{"ha":976,"x_min":81,"x_max":921,"o":"m 440 -17 q 352 -7 419 -14 q 240 0 285 0 q 147 -7 197 0 q 81 -17 96 -14 l 89 47 q 175 84 153 60 q 197 167 197 108 l 199 750 q 188 810 199 794 q 147 825 178 825 q 119 824 133 825 q 100 822 106 822 l 97 828 l 107 889 q 165 886 122 888 q 253 885 208 885 q 376 887 313 885 q 464 890 440 889 q 701 838 597 890 q 863 692 806 786 q 921 475 921 597 q 857 226 921 339 q 683 49 793 114 q 440 -17 574 -17 m 368 822 q 329 816 339 822 q 318 792 319 810 q 297 182 297 257 q 312 103 297 129 q 363 65 326 76 q 472 54 400 54 q 708 158 622 54 q 794 442 794 261 q 684 724 794 625 q 368 822 574 822 z "},"Ð":{"ha":990,"x_min":13,"x_max":931,"o":"m 450 -17 q 362 -7 429 -14 q 250 0 294 0 q 156 -7 207 0 q 90 -17 106 -14 l 99 47 q 172 71 150 57 q 200 116 193 85 q 207 218 207 147 l 207 422 l 22 422 l 13 432 l 22 476 l 207 476 l 208 750 q 198 810 208 794 q 157 825 188 825 q 129 824 143 825 q 110 822 115 822 l 107 828 l 117 889 q 175 886 132 888 q 263 885 218 885 q 386 887 322 885 q 474 890 450 889 q 710 837 606 890 q 872 689 814 783 q 931 475 931 594 q 867 226 931 339 q 693 49 803 114 q 450 -17 583 -17 m 558 467 l 550 422 l 314 422 l 307 182 q 322 103 307 131 q 374 65 338 76 q 482 54 411 54 q 718 158 632 54 q 804 442 804 261 q 694 724 804 625 q 378 822 583 822 q 339 816 349 822 q 328 792 329 810 l 315 476 l 551 476 l 558 467 z "},"Ď":{"ha":976,"x_min":81,"x_max":921,"o":"m 440 -17 q 352 -7 419 -14 q 240 0 285 0 q 147 -7 197 0 q 81 -17 96 -14 l 89 47 q 175 84 153 60 q 197 167 197 108 l 199 750 q 188 810 199 794 q 147 825 178 825 q 119 824 133 825 q 100 822 106 822 l 97 828 l 107 889 q 165 886 122 888 q 253 885 208 885 q 376 887 313 885 q 464 890 440 889 q 701 838 597 890 q 863 692 806 786 q 921 475 921 597 q 857 226 921 339 q 683 49 793 114 q 440 -17 574 -17 m 368 822 q 329 816 339 822 q 318 792 319 810 q 297 182 297 257 q 312 103 297 129 q 363 65 326 76 q 472 54 400 54 q 708 158 622 54 q 794 442 794 261 q 684 724 794 625 q 368 822 574 822 m 661 1132 q 545 1041 604 1089 q 469 978 486 993 l 450 978 q 374 1041 433 993 q 258 1132 315 1089 l 278 1163 l 290 1164 q 460 1074 383 1110 q 629 1164 532 1107 l 642 1163 l 661 1132 z "},"Đ":{"ha":990,"x_min":13,"x_max":931,"o":"m 450 -17 q 362 -7 429 -14 q 250 0 294 0 q 156 -7 207 0 q 90 -17 106 -14 l 99 47 q 172 71 150 57 q 200 116 193 85 q 207 218 207 147 l 207 422 l 22 422 l 13 432 l 22 476 l 207 476 l 208 750 q 198 810 208 794 q 157 825 188 825 q 129 824 143 825 q 110 822 115 822 l 107 828 l 117 889 q 175 886 132 888 q 263 885 218 885 q 386 887 322 885 q 474 890 450 889 q 710 837 606 890 q 872 689 814 783 q 931 475 931 594 q 867 226 931 339 q 693 49 803 114 q 450 -17 583 -17 m 558 467 l 550 422 l 314 422 l 307 182 q 322 103 307 131 q 374 65 338 76 q 482 54 411 54 q 718 158 632 54 q 804 442 804 261 q 694 724 804 625 q 378 822 583 822 q 339 816 349 822 q 328 792 329 810 l 315 476 l 551 476 l 558 467 z "},"E":{"ha":821,"x_min":81,"x_max":739,"o":"m 296 146 q 303 90 296 106 q 331 68 310 74 q 406 63 353 63 q 572 74 522 63 q 642 118 621 85 q 674 232 663 151 l 735 239 l 739 232 q 722 142 735 213 q 701 -1 710 72 l 694 -10 q 501 -4 647 -8 q 274 0 356 0 q 152 -6 208 0 q 81 -14 96 -11 l 89 50 q 174 83 151 58 q 197 167 197 107 l 199 750 q 188 810 199 794 q 147 825 178 825 q 119 824 133 825 q 100 822 106 822 l 97 828 l 107 889 q 180 886 125 888 q 300 885 235 885 q 557 888 465 885 q 717 901 649 892 l 721 893 q 713 853 719 885 q 700 771 707 822 q 689 663 693 719 l 622 657 q 624 681 622 664 q 625 717 625 699 q 613 784 625 765 q 558 809 600 803 q 413 815 517 815 q 346 813 364 815 q 322 799 328 810 q 315 761 317 789 l 304 492 l 447 490 q 538 497 479 490 q 617 506 597 503 l 622 499 l 603 417 q 527 419 583 418 q 408 421 471 421 q 301 411 357 421 q 296 146 296 211 z "},"É":{"ha":821,"x_min":81,"x_max":739,"o":"m 296 146 q 303 90 296 106 q 331 68 310 74 q 406 63 353 63 q 572 74 522 63 q 642 118 621 85 q 674 232 663 151 l 735 239 l 739 232 q 722 142 735 213 q 701 -1 710 72 l 694 -10 q 501 -4 647 -8 q 274 0 356 0 q 152 -6 208 0 q 81 -14 96 -11 l 89 50 q 174 83 151 58 q 197 167 197 107 l 199 750 q 188 810 199 794 q 147 825 178 825 q 119 824 133 825 q 100 822 106 822 l 97 828 l 107 889 q 180 886 125 888 q 300 885 235 885 q 557 888 465 885 q 717 901 649 892 l 721 893 q 713 853 719 885 q 700 771 707 822 q 689 663 693 719 l 622 657 q 624 681 622 664 q 625 717 625 699 q 613 784 625 765 q 558 809 600 803 q 413 815 517 815 q 346 813 364 815 q 322 799 328 810 q 315 761 317 789 l 304 492 l 447 490 q 538 497 479 490 q 617 506 597 503 l 622 499 l 603 417 q 527 419 583 418 q 408 421 471 421 q 301 411 357 421 q 296 146 296 211 m 647 1079 q 538 1041 624 1071 q 361 976 453 1011 l 350 983 l 342 1017 q 508 1107 424 1060 q 618 1168 593 1154 l 631 1160 l 653 1093 l 647 1079 z "},"Ĕ":{"ha":821,"x_min":81,"x_max":739,"o":"m 296 146 q 303 90 296 106 q 331 68 310 74 q 406 63 353 63 q 572 74 522 63 q 642 118 621 85 q 674 232 663 151 l 735 239 l 739 232 q 722 142 735 213 q 701 -1 710 72 l 694 -10 q 501 -4 647 -8 q 274 0 356 0 q 152 -6 208 0 q 81 -14 96 -11 l 89 50 q 174 83 151 58 q 197 167 197 107 l 199 750 q 188 810 199 794 q 147 825 178 825 q 119 824 133 825 q 100 822 106 822 l 97 828 l 107 889 q 180 886 125 888 q 300 885 235 885 q 557 888 465 885 q 717 901 649 892 l 721 893 q 713 853 719 885 q 700 771 707 822 q 689 663 693 719 l 622 657 q 624 681 622 664 q 625 717 625 699 q 613 784 625 765 q 558 809 600 803 q 413 815 517 815 q 346 813 364 815 q 322 799 328 810 q 315 761 317 789 l 304 492 l 447 490 q 538 497 479 490 q 617 506 597 503 l 622 499 l 603 417 q 527 419 583 418 q 408 421 471 421 q 301 411 357 421 q 296 146 296 211 m 454 1099 q 535 1122 499 1099 q 588 1190 571 1146 l 599 1190 l 621 1176 q 563 1064 604 1110 q 454 1018 521 1018 q 346 1064 388 1018 q 288 1176 304 1110 l 310 1190 l 321 1190 q 374 1122 338 1146 q 454 1099 410 1099 z "},"Ě":{"ha":821,"x_min":81,"x_max":739,"o":"m 296 146 q 303 90 296 106 q 331 68 310 74 q 406 63 353 63 q 572 74 522 63 q 642 118 621 85 q 674 232 663 151 l 735 239 l 739 232 q 722 142 735 213 q 701 -1 710 72 l 694 -10 q 501 -4 647 -8 q 274 0 356 0 q 152 -6 208 0 q 81 -14 96 -11 l 89 50 q 174 83 151 58 q 197 167 197 107 l 199 750 q 188 810 199 794 q 147 825 178 825 q 119 824 133 825 q 100 822 106 822 l 97 828 l 107 889 q 180 886 125 888 q 300 885 235 885 q 557 888 465 885 q 717 901 649 892 l 721 893 q 713 853 719 885 q 700 771 707 822 q 689 663 693 719 l 622 657 q 624 681 622 664 q 625 717 625 699 q 613 784 625 765 q 558 809 600 803 q 413 815 517 815 q 346 813 364 815 q 322 799 328 810 q 315 761 317 789 l 304 492 l 447 490 q 538 497 479 490 q 617 506 597 503 l 622 499 l 603 417 q 527 419 583 418 q 408 421 471 421 q 301 411 357 421 q 296 146 296 211 m 632 1132 q 516 1041 575 1089 q 440 978 457 993 l 421 978 q 345 1041 404 993 q 229 1132 286 1089 l 249 1163 l 261 1164 q 431 1074 354 1110 q 600 1164 503 1107 l 613 1163 l 632 1132 z "},"Ê":{"ha":821,"x_min":81,"x_max":739,"o":"m 296 146 q 303 90 296 106 q 331 68 310 74 q 406 63 353 63 q 572 74 522 63 q 642 118 621 85 q 674 232 663 151 l 735 239 l 739 232 q 722 142 735 213 q 701 -1 710 72 l 694 -10 q 501 -4 647 -8 q 274 0 356 0 q 152 -6 208 0 q 81 -14 96 -11 l 89 50 q 174 83 151 58 q 197 167 197 107 l 199 750 q 188 810 199 794 q 147 825 178 825 q 119 824 133 825 q 100 822 106 822 l 97 828 l 107 889 q 180 886 125 888 q 300 885 235 885 q 557 888 465 885 q 717 901 649 892 l 721 893 q 713 853 719 885 q 700 771 707 822 q 689 663 693 719 l 622 657 q 624 681 622 664 q 625 717 625 699 q 613 784 625 765 q 558 809 600 803 q 413 815 517 815 q 346 813 364 815 q 322 799 328 810 q 315 761 317 789 l 304 492 l 447 490 q 538 497 479 490 q 617 506 597 503 l 622 499 l 603 417 q 527 419 583 418 q 408 421 471 421 q 301 411 357 421 q 296 146 296 211 m 229 1021 q 345 1112 286 1064 q 421 1175 404 1160 l 440 1175 q 516 1112 457 1160 q 632 1021 575 1064 l 613 990 l 600 989 q 431 1079 507 1043 q 261 989 358 1046 l 249 990 l 229 1021 z "},"Ë":{"ha":821,"x_min":81,"x_max":739,"o":"m 296 146 q 303 90 296 106 q 331 68 310 74 q 406 63 353 63 q 572 74 522 63 q 642 118 621 85 q 674 232 663 151 l 735 239 l 739 232 q 722 142 735 213 q 701 -1 710 72 l 694 -10 q 501 -4 647 -8 q 274 0 356 0 q 152 -6 208 0 q 81 -14 96 -11 l 89 50 q 174 83 151 58 q 197 167 197 107 l 199 750 q 188 810 199 794 q 147 825 178 825 q 119 824 133 825 q 100 822 106 822 l 97 828 l 107 889 q 180 886 125 888 q 300 885 235 885 q 557 888 465 885 q 717 901 649 892 l 721 893 q 713 853 719 885 q 700 771 707 822 q 689 663 693 719 l 622 657 q 624 681 622 664 q 625 717 625 699 q 613 784 625 765 q 558 809 600 803 q 413 815 517 815 q 346 813 364 815 q 322 799 328 810 q 315 761 317 789 l 304 492 l 447 490 q 538 497 479 490 q 617 506 597 503 l 622 499 l 603 417 q 527 419 583 418 q 408 421 471 421 q 301 411 357 421 q 296 146 296 211 m 308 1007 q 267 1025 282 1007 q 251 1067 251 1043 q 272 1116 251 1096 q 321 1136 292 1136 q 363 1119 347 1136 q 378 1076 378 1101 q 358 1027 378 1047 q 308 1007 338 1007 m 539 1007 q 497 1025 513 1007 q 482 1067 482 1043 q 502 1116 482 1096 q 551 1136 522 1136 q 593 1119 578 1136 q 608 1076 608 1101 q 588 1027 608 1047 q 539 1007 568 1007 z "},"Ė":{"ha":821,"x_min":81,"x_max":739,"o":"m 296 146 q 303 90 296 106 q 331 68 310 74 q 406 63 353 63 q 572 74 522 63 q 642 118 621 85 q 674 232 663 151 l 735 239 l 739 232 q 722 142 735 213 q 701 -1 710 72 l 694 -10 q 501 -4 647 -8 q 274 0 356 0 q 152 -6 208 0 q 81 -14 96 -11 l 89 50 q 174 83 151 58 q 197 167 197 107 l 199 750 q 188 810 199 794 q 147 825 178 825 q 119 824 133 825 q 100 822 106 822 l 97 828 l 107 889 q 180 886 125 888 q 300 885 235 885 q 557 888 465 885 q 717 901 649 892 l 721 893 q 713 853 719 885 q 700 771 707 822 q 689 663 693 719 l 622 657 q 624 681 622 664 q 625 717 625 699 q 613 784 625 765 q 558 809 600 803 q 413 815 517 815 q 346 813 364 815 q 322 799 328 810 q 315 761 317 789 l 304 492 l 447 490 q 538 497 479 490 q 617 506 597 503 l 622 499 l 603 417 q 527 419 583 418 q 408 421 471 421 q 301 411 357 421 q 296 146 296 211 m 424 999 q 374 1019 392 999 q 356 1069 356 1040 q 379 1127 356 1103 q 438 1151 403 1151 q 488 1131 469 1151 q 506 1081 506 1110 q 482 1023 506 1047 q 424 999 458 999 z "},"È":{"ha":821,"x_min":81,"x_max":739,"o":"m 296 146 q 303 90 296 106 q 331 68 310 74 q 406 63 353 63 q 572 74 522 63 q 642 118 621 85 q 674 232 663 151 l 735 239 l 739 232 q 722 142 735 213 q 701 -1 710 72 l 694 -10 q 501 -4 647 -8 q 274 0 356 0 q 152 -6 208 0 q 81 -14 96 -11 l 89 50 q 174 83 151 58 q 197 167 197 107 l 199 750 q 188 810 199 794 q 147 825 178 825 q 119 824 133 825 q 100 822 106 822 l 97 828 l 107 889 q 180 886 125 888 q 300 885 235 885 q 557 888 465 885 q 717 901 649 892 l 721 893 q 713 853 719 885 q 700 771 707 822 q 689 663 693 719 l 622 657 q 624 681 622 664 q 625 717 625 699 q 613 784 625 765 q 558 809 600 803 q 413 815 517 815 q 346 813 364 815 q 322 799 328 810 q 315 761 317 789 l 304 492 l 447 490 q 538 497 479 490 q 617 506 597 503 l 622 499 l 603 417 q 527 419 583 418 q 408 421 471 421 q 301 411 357 421 q 296 146 296 211 m 253 1168 q 363 1107 278 1154 q 529 1017 447 1060 l 521 983 l 510 976 q 333 1041 418 1011 q 224 1079 247 1071 l 218 1093 l 240 1160 l 253 1168 z "},"Ē":{"ha":821,"x_min":81,"x_max":739,"o":"m 296 146 q 303 90 296 106 q 331 68 310 74 q 406 63 353 63 q 572 74 522 63 q 642 118 621 85 q 674 232 663 151 l 735 239 l 739 232 q 722 142 735 213 q 701 -1 710 72 l 694 -10 q 501 -4 647 -8 q 274 0 356 0 q 152 -6 208 0 q 81 -14 96 -11 l 89 50 q 174 83 151 58 q 197 167 197 107 l 199 750 q 188 810 199 794 q 147 825 178 825 q 119 824 133 825 q 100 822 106 822 l 97 828 l 107 889 q 180 886 125 888 q 300 885 235 885 q 557 888 465 885 q 717 901 649 892 l 721 893 q 713 853 719 885 q 700 771 707 822 q 689 663 693 719 l 622 657 q 624 681 622 664 q 625 717 625 699 q 613 784 625 765 q 558 809 600 803 q 413 815 517 815 q 346 813 364 815 q 322 799 328 810 q 315 761 317 789 l 304 492 l 447 490 q 538 497 479 490 q 617 506 597 503 l 622 499 l 603 417 q 527 419 583 418 q 408 421 471 421 q 301 411 357 421 q 296 146 296 211 m 431 1000 l 231 999 l 222 1011 l 236 1074 l 450 1072 q 552 1076 493 1072 q 629 1081 611 1079 l 638 1067 l 628 1001 l 431 1000 z "},"Ę":{"ha":821,"x_min":81,"x_max":739,"o":"m 608 -253 q 656 -246 632 -253 q 696 -231 681 -239 q 715 -221 711 -224 l 733 -247 q 708 -269 728 -253 q 657 -304 688 -285 q 594 -335 626 -324 q 483 -300 525 -335 q 440 -204 440 -265 q 472 -115 440 -161 q 567 -6 504 -68 q 274 0 378 0 q 152 -6 208 0 q 81 -14 96 -11 l 89 50 q 174 83 151 58 q 197 167 197 107 l 199 750 q 188 810 199 794 q 147 825 178 825 q 119 824 133 825 q 100 822 106 822 l 97 828 l 107 889 q 180 886 125 888 q 300 885 235 885 q 557 888 465 885 q 717 901 649 892 l 721 893 q 713 853 719 885 q 700 771 707 822 q 689 663 693 719 l 622 657 q 624 681 622 664 q 625 717 625 699 q 613 784 625 765 q 558 809 600 803 q 413 815 517 815 q 346 813 364 815 q 322 799 328 810 q 315 761 317 789 l 304 492 l 447 490 q 538 497 479 490 q 617 506 597 503 l 622 499 l 603 417 q 527 419 583 418 q 408 421 471 421 q 301 411 357 421 q 296 146 296 211 q 303 90 296 106 q 331 68 310 74 q 406 63 353 63 q 572 74 522 63 q 642 118 621 85 q 674 232 663 151 l 735 239 l 739 232 q 722 142 735 213 q 701 -1 710 72 l 694 -10 l 625 -7 q 549 -102 571 -65 q 528 -178 528 -139 q 550 -232 528 -211 q 608 -253 572 -253 z "},"F":{"ha":711,"x_min":81,"x_max":694,"o":"m 296 156 q 308 80 296 99 q 357 61 321 61 q 415 63 385 61 q 456 65 444 65 l 458 60 l 446 -6 q 363 -2 424 -4 q 239 0 303 0 q 146 -7 196 0 q 81 -17 96 -14 l 89 47 q 175 84 153 60 q 197 167 197 108 l 199 750 q 188 810 199 794 q 147 825 178 825 q 119 824 133 825 q 100 822 106 822 l 97 828 l 107 889 q 180 886 125 888 q 300 885 235 885 q 690 901 574 885 l 694 893 q 687 854 693 885 q 674 769 681 824 q 663 658 667 715 l 596 653 q 597 679 596 660 q 599 717 599 699 q 587 784 599 765 q 539 809 575 803 q 413 815 503 815 q 346 813 364 815 q 322 799 328 810 q 315 761 317 789 l 304 468 l 447 467 q 525 473 474 467 q 593 482 576 479 l 599 475 l 579 392 q 512 394 561 393 q 408 396 463 396 q 301 386 357 396 l 296 156 z "},"G":{"ha":926,"x_min":56,"x_max":822,"o":"m 822 396 q 788 330 797 375 q 779 182 779 285 q 789 60 779 101 l 781 47 q 731 28 781 46 q 610 -3 682 11 q 461 -17 539 -17 q 247 36 339 -17 q 106 185 156 89 q 56 413 56 282 q 117 667 56 556 q 289 840 178 778 q 543 901 400 901 q 654 894 594 901 q 757 878 714 886 q 813 868 800 871 l 818 860 q 808 819 815 851 q 794 736 801 788 q 782 628 786 685 l 717 622 q 719 649 718 629 q 721 697 721 669 q 672 790 721 761 q 511 819 622 819 q 265 724 353 819 q 176 457 176 629 q 215 244 176 336 q 326 103 254 153 q 493 53 399 53 q 585 65 543 53 q 655 90 626 76 q 683 106 683 104 l 683 275 q 669 336 683 322 q 607 350 654 350 l 511 350 l 508 356 l 521 425 q 592 422 538 424 q 697 419 646 419 q 771 422 735 419 q 817 426 807 425 l 822 396 z "},"Ğ":{"ha":926,"x_min":56,"x_max":822,"o":"m 822 396 q 788 330 797 375 q 779 182 779 285 q 789 60 779 101 l 781 47 q 731 28 781 46 q 610 -3 682 11 q 461 -17 539 -17 q 247 36 339 -17 q 106 185 156 89 q 56 413 56 282 q 117 667 56 556 q 289 840 178 778 q 543 901 400 901 q 654 894 594 901 q 757 878 714 886 q 813 868 800 871 l 818 860 q 808 819 815 851 q 794 736 801 788 q 782 628 786 685 l 717 622 q 719 649 718 629 q 721 697 721 669 q 672 790 721 761 q 511 819 622 819 q 265 724 353 819 q 176 457 176 629 q 215 244 176 336 q 326 103 254 153 q 493 53 399 53 q 585 65 543 53 q 655 90 626 76 q 683 106 683 104 l 683 275 q 669 336 683 322 q 607 350 654 350 l 511 350 l 508 356 l 521 425 q 592 422 538 424 q 697 419 646 419 q 771 422 735 419 q 817 426 807 425 l 822 396 m 507 1067 q 588 1085 551 1067 q 640 1136 624 1103 l 651 1136 l 674 1122 q 615 1025 657 1064 q 507 986 574 986 q 399 1025 440 986 q 340 1122 357 1064 l 363 1136 l 374 1136 q 426 1085 390 1103 q 507 1067 463 1067 z "},"Ĝ":{"ha":926,"x_min":56,"x_max":822,"o":"m 822 396 q 788 330 797 375 q 779 182 779 285 q 789 60 779 101 l 781 47 q 731 28 781 46 q 610 -3 682 11 q 461 -17 539 -17 q 247 36 339 -17 q 106 185 156 89 q 56 413 56 282 q 117 667 56 556 q 289 840 178 778 q 543 901 400 901 q 654 894 594 901 q 757 878 714 886 q 813 868 800 871 l 818 860 q 808 819 815 851 q 794 736 801 788 q 782 628 786 685 l 717 622 q 719 649 718 629 q 721 697 721 669 q 672 790 721 761 q 511 819 622 819 q 265 724 353 819 q 176 457 176 629 q 215 244 176 336 q 326 103 254 153 q 493 53 399 53 q 585 65 543 53 q 655 90 626 76 q 683 106 683 104 l 683 275 q 669 336 683 322 q 607 350 654 350 l 511 350 l 508 356 l 521 425 q 592 422 538 424 q 697 419 646 419 q 771 422 735 419 q 817 426 807 425 l 822 396 m 282 1006 q 398 1132 339 1065 q 474 1218 457 1199 l 493 1218 q 569 1131 510 1199 q 685 1006 628 1064 l 665 975 l 653 974 q 513 1086 600 1021 l 483 1108 q 314 974 375 1028 l 301 975 l 282 1006 z "},"Ģ":{"ha":926,"x_min":56,"x_max":822,"o":"m 822 396 q 788 330 797 375 q 779 182 779 285 q 789 60 779 101 l 781 47 q 731 28 781 46 q 610 -3 682 11 q 461 -17 539 -17 q 247 36 339 -17 q 106 185 156 89 q 56 413 56 282 q 117 667 56 556 q 289 840 178 778 q 543 901 400 901 q 654 894 594 901 q 757 878 714 886 q 813 868 800 871 l 818 860 q 808 819 815 851 q 794 736 801 788 q 782 628 786 685 l 717 622 q 719 649 718 629 q 721 697 721 669 q 672 790 721 761 q 511 819 622 819 q 265 724 353 819 q 176 457 176 629 q 215 244 176 336 q 326 103 254 153 q 493 53 399 53 q 585 65 543 53 q 655 90 626 76 q 683 106 683 104 l 683 275 q 669 336 683 322 q 607 350 654 350 l 511 350 l 508 356 l 521 425 q 592 422 538 424 q 697 419 646 419 q 771 422 735 419 q 817 426 807 425 l 822 396 m 400 -129 q 481 -93 447 -93 q 534 -120 513 -93 q 556 -192 556 -147 q 503 -315 556 -260 q 378 -407 450 -369 l 353 -386 l 353 -372 q 424 -308 396 -346 q 453 -235 453 -269 q 438 -185 453 -208 q 397 -149 422 -162 l 400 -129 z "},"Ġ":{"ha":926,"x_min":56,"x_max":822,"o":"m 822 396 q 788 330 797 375 q 779 182 779 285 q 789 60 779 101 l 781 47 q 731 28 781 46 q 610 -3 682 11 q 461 -17 539 -17 q 247 36 339 -17 q 106 185 156 89 q 56 413 56 282 q 117 667 56 556 q 289 840 178 778 q 543 901 400 901 q 654 894 594 901 q 757 878 714 886 q 813 868 800 871 l 818 860 q 808 819 815 851 q 794 736 801 788 q 782 628 786 685 l 717 622 q 719 649 718 629 q 721 697 721 669 q 672 790 721 761 q 511 819 622 819 q 265 724 353 819 q 176 457 176 629 q 215 244 176 336 q 326 103 254 153 q 493 53 399 53 q 585 65 543 53 q 655 90 626 76 q 683 106 683 104 l 683 275 q 669 336 683 322 q 607 350 654 350 l 511 350 l 508 356 l 521 425 q 592 422 538 424 q 697 419 646 419 q 771 422 735 419 q 817 426 807 425 l 822 396 m 501 999 q 451 1019 469 999 q 433 1069 433 1040 q 457 1127 433 1103 q 515 1151 481 1151 q 565 1131 547 1151 q 583 1081 583 1110 q 560 1023 583 1047 q 501 999 536 999 z "},"H":{"ha":1047,"x_min":81,"x_max":968,"o":"m 861 756 q 847 416 853 593 q 842 156 842 239 q 854 80 842 99 q 903 61 867 61 q 942 63 924 61 q 965 65 960 64 l 968 60 l 956 -4 q 888 -1 938 -3 q 785 0 838 0 q 691 -1 739 0 q 625 -3 643 -3 l 638 60 q 705 72 683 61 q 735 114 726 83 q 743 208 743 144 l 743 418 l 532 419 q 417 413 504 419 q 301 404 331 407 l 296 156 q 308 80 296 99 q 357 61 321 61 q 396 63 378 61 q 419 65 414 64 l 422 60 l 410 -4 q 365 -1 399 -3 q 292 0 331 0 q 156 -6 231 0 q 81 -17 82 -11 l 89 47 q 175 84 153 60 q 197 167 197 108 l 199 750 q 188 810 199 794 q 147 825 178 825 q 119 824 133 825 q 100 822 106 822 l 97 828 l 107 889 q 169 886 124 888 q 261 885 215 885 q 347 890 299 885 q 410 897 394 894 l 404 835 q 344 817 363 828 q 321 785 326 807 q 313 710 315 763 l 304 485 l 538 483 q 743 497 626 483 l 744 750 q 734 810 744 794 q 693 825 724 825 q 665 824 679 825 q 646 822 651 822 l 643 828 l 653 889 q 708 886 668 888 q 789 885 749 885 q 885 890 831 885 q 956 897 939 894 l 950 835 q 881 812 899 828 q 861 756 864 796 z "},"Ħ":{"ha":1042,"x_min":58,"x_max":982,"o":"m 853 625 q 839 156 839 326 q 851 80 839 99 q 900 61 864 61 q 939 63 921 61 q 963 65 957 64 l 965 60 l 953 -4 q 885 -1 935 -3 q 782 0 835 0 q 688 -1 736 0 q 622 -3 640 -3 l 635 60 q 702 72 681 61 q 732 114 724 83 q 740 208 740 144 l 740 418 l 529 419 q 415 413 501 419 q 299 404 328 407 l 293 156 q 306 80 293 99 q 354 61 318 61 q 393 63 375 61 q 417 65 411 64 l 419 60 l 407 -4 q 362 -1 396 -3 q 289 0 328 0 q 153 -6 228 0 q 78 -17 79 -11 l 86 47 q 172 84 150 60 q 194 167 194 108 l 196 622 l 71 622 l 58 635 l 68 689 l 196 689 l 196 750 q 185 810 196 794 q 144 825 175 825 q 117 824 131 825 q 97 822 103 822 l 94 828 l 104 889 q 167 886 121 888 q 258 885 213 885 q 344 890 296 885 q 407 897 392 894 l 401 835 q 342 817 360 828 q 318 785 324 807 q 310 710 313 763 l 308 688 l 550 688 l 742 689 l 742 750 q 731 810 742 794 q 690 825 721 825 q 663 824 676 825 q 643 822 649 822 l 640 828 l 650 889 q 706 886 665 888 q 786 885 746 885 q 882 890 828 885 q 953 897 936 894 l 947 835 q 878 812 896 828 q 858 756 861 796 l 856 692 l 964 694 l 982 676 l 976 625 l 853 625 m 519 624 l 307 624 l 301 485 l 535 483 q 740 497 624 483 l 742 624 l 519 624 z "},"Ĥ":{"ha":1047,"x_min":81,"x_max":968,"o":"m 861 756 q 847 416 853 593 q 842 156 842 239 q 854 80 842 99 q 903 61 867 61 q 942 63 924 61 q 965 65 960 64 l 968 60 l 956 -4 q 888 -1 938 -3 q 785 0 838 0 q 691 -1 739 0 q 625 -3 643 -3 l 638 60 q 705 72 683 61 q 735 114 726 83 q 743 208 743 144 l 743 418 l 532 419 q 417 413 504 419 q 301 404 331 407 l 296 156 q 308 80 296 99 q 357 61 321 61 q 396 63 378 61 q 419 65 414 64 l 422 60 l 410 -4 q 365 -1 399 -3 q 292 0 331 0 q 156 -6 231 0 q 81 -17 82 -11 l 89 47 q 175 84 153 60 q 197 167 197 108 l 199 750 q 188 810 199 794 q 147 825 178 825 q 119 824 133 825 q 100 822 106 822 l 97 828 l 107 889 q 169 886 124 888 q 261 885 215 885 q 347 890 299 885 q 410 897 394 894 l 404 835 q 344 817 363 828 q 321 785 326 807 q 313 710 315 763 l 304 485 l 538 483 q 743 497 626 483 l 744 750 q 734 810 744 794 q 693 825 724 825 q 665 824 679 825 q 646 822 651 822 l 643 828 l 653 889 q 708 886 668 888 q 789 885 749 885 q 885 890 831 885 q 956 897 939 894 l 950 835 q 881 812 899 828 q 861 756 864 796 m 322 1042 q 438 1168 379 1101 q 514 1254 497 1235 l 533 1254 q 609 1167 550 1235 q 725 1042 668 1100 l 706 1011 l 693 1010 q 553 1122 640 1057 l 524 1144 q 354 1010 415 1064 l 342 1011 l 322 1042 z "},"I":{"ha":501,"x_min":78,"x_max":433,"o":"m 315 756 q 301 416 307 593 q 296 156 296 239 q 308 80 296 99 q 357 61 321 61 q 403 63 382 61 q 431 65 424 64 l 433 60 l 421 -4 q 348 -1 401 -3 q 239 0 294 0 q 144 -7 194 0 q 78 -17 93 -14 l 86 47 q 174 84 151 60 q 197 167 197 108 l 199 750 q 188 810 199 794 q 147 825 178 825 q 112 824 129 825 q 89 822 94 822 l 86 828 l 96 889 q 163 886 114 888 q 261 885 211 885 q 353 890 301 885 q 421 897 406 894 l 415 835 q 338 812 357 828 q 315 756 318 796 z "},"Ĳ":{"ha":956,"x_min":78,"x_max":886,"o":"m 315 756 q 301 416 307 593 q 296 156 296 239 q 308 80 296 99 q 357 61 321 61 q 403 63 382 61 q 431 65 424 64 l 433 60 l 421 -4 q 348 -1 401 -3 q 239 0 294 0 q 144 -7 194 0 q 78 -17 93 -14 l 86 47 q 174 84 151 60 q 197 167 197 108 l 199 750 q 188 810 199 794 q 147 825 178 825 q 112 824 129 825 q 89 822 94 822 l 86 828 l 96 889 q 163 886 114 888 q 261 885 211 885 q 353 890 301 885 q 421 897 406 894 l 415 835 q 338 812 357 828 q 315 756 318 796 m 685 750 q 675 809 685 794 q 633 824 665 824 q 597 822 617 824 q 568 818 576 819 l 565 824 l 575 885 l 725 885 q 816 890 763 885 q 886 897 869 894 l 881 835 q 831 822 846 829 q 809 801 815 815 q 801 756 803 786 q 791 456 796 626 q 783 161 786 285 q 728 -66 782 19 q 557 -200 675 -151 l 533 -154 l 538 -143 q 626 -70 594 -108 q 670 22 657 -32 q 683 160 683 75 l 685 750 z "},"Í":{"ha":501,"x_min":78,"x_max":478,"o":"m 315 756 q 301 416 307 593 q 296 156 296 239 q 308 80 296 99 q 357 61 321 61 q 403 63 382 61 q 431 65 424 64 l 433 60 l 421 -4 q 348 -1 401 -3 q 239 0 294 0 q 144 -7 194 0 q 78 -17 93 -14 l 86 47 q 174 84 151 60 q 197 167 197 108 l 199 750 q 188 810 199 794 q 147 825 178 825 q 112 824 129 825 q 89 822 94 822 l 86 828 l 96 889 q 163 886 114 888 q 261 885 211 885 q 353 890 301 885 q 421 897 406 894 l 415 835 q 338 812 357 828 q 315 756 318 796 m 472 1079 q 363 1041 449 1071 q 186 976 278 1011 l 175 983 l 167 1017 q 333 1107 249 1060 q 443 1168 418 1154 l 456 1160 l 478 1093 l 472 1079 z "},"Ĭ":{"ha":501,"x_min":78,"x_max":433,"o":"m 315 756 q 301 416 307 593 q 296 156 296 239 q 308 80 296 99 q 357 61 321 61 q 403 63 382 61 q 431 65 424 64 l 433 60 l 421 -4 q 348 -1 401 -3 q 239 0 294 0 q 144 -7 194 0 q 78 -17 93 -14 l 86 47 q 174 84 151 60 q 197 167 197 108 l 199 750 q 188 810 199 794 q 147 825 178 825 q 112 824 129 825 q 89 822 94 822 l 86 828 l 96 889 q 163 886 114 888 q 261 885 211 885 q 353 890 301 885 q 421 897 406 894 l 415 835 q 338 812 357 828 q 315 756 318 796 m 261 1099 q 342 1122 306 1099 q 394 1190 378 1146 l 406 1190 l 428 1176 q 369 1064 411 1110 q 261 1018 328 1018 q 153 1064 194 1018 q 94 1176 111 1110 l 117 1190 l 128 1190 q 181 1122 144 1146 q 261 1099 217 1099 z "},"Î":{"ha":501,"x_min":54,"x_max":457,"o":"m 315 756 q 301 416 307 593 q 296 156 296 239 q 308 80 296 99 q 357 61 321 61 q 403 63 382 61 q 431 65 424 64 l 433 60 l 421 -4 q 348 -1 401 -3 q 239 0 294 0 q 144 -7 194 0 q 78 -17 93 -14 l 86 47 q 174 84 151 60 q 197 167 197 108 l 199 750 q 188 810 199 794 q 147 825 178 825 q 112 824 129 825 q 89 822 94 822 l 86 828 l 96 889 q 163 886 114 888 q 261 885 211 885 q 353 890 301 885 q 421 897 406 894 l 415 835 q 338 812 357 828 q 315 756 318 796 m 54 1021 q 170 1112 111 1064 q 246 1175 229 1160 l 265 1175 q 341 1112 282 1160 q 457 1021 400 1064 l 438 990 l 425 989 q 256 1079 332 1043 q 86 989 183 1046 l 74 990 l 54 1021 z "},"Ï":{"ha":501,"x_min":76,"x_max":433,"o":"m 315 756 q 301 416 307 593 q 296 156 296 239 q 308 80 296 99 q 357 61 321 61 q 403 63 382 61 q 431 65 424 64 l 433 60 l 421 -4 q 348 -1 401 -3 q 239 0 294 0 q 144 -7 194 0 q 78 -17 93 -14 l 86 47 q 174 84 151 60 q 197 167 197 108 l 199 750 q 188 810 199 794 q 147 825 178 825 q 112 824 129 825 q 89 822 94 822 l 86 828 l 96 889 q 163 886 114 888 q 261 885 211 885 q 353 890 301 885 q 421 897 406 894 l 415 835 q 338 812 357 828 q 315 756 318 796 m 133 1007 q 92 1025 107 1007 q 76 1067 76 1043 q 97 1116 76 1096 q 146 1136 117 1136 q 188 1119 172 1136 q 203 1076 203 1101 q 183 1027 203 1047 q 133 1007 163 1007 m 364 1007 q 322 1025 338 1007 q 307 1067 307 1043 q 327 1116 307 1096 q 376 1136 347 1136 q 418 1119 403 1136 q 433 1076 433 1101 q 413 1027 433 1047 q 364 1007 393 1007 z "},"İ":{"ha":501,"x_min":78,"x_max":433,"o":"m 315 756 q 301 416 307 593 q 296 156 296 239 q 308 80 296 99 q 357 61 321 61 q 403 63 382 61 q 431 65 424 64 l 433 60 l 421 -4 q 348 -1 401 -3 q 239 0 294 0 q 144 -7 194 0 q 78 -17 93 -14 l 86 47 q 174 84 151 60 q 197 167 197 108 l 199 750 q 188 810 199 794 q 147 825 178 825 q 112 824 129 825 q 89 822 94 822 l 86 828 l 96 889 q 163 886 114 888 q 261 885 211 885 q 353 890 301 885 q 421 897 406 894 l 415 835 q 338 812 357 828 q 315 756 318 796 m 249 999 q 199 1019 217 999 q 181 1069 181 1040 q 204 1127 181 1103 q 263 1151 228 1151 q 313 1131 294 1151 q 331 1081 331 1110 q 307 1023 331 1047 q 249 999 283 999 z "},"Ì":{"ha":501,"x_min":43,"x_max":433,"o":"m 315 756 q 301 416 307 593 q 296 156 296 239 q 308 80 296 99 q 357 61 321 61 q 403 63 382 61 q 431 65 424 64 l 433 60 l 421 -4 q 348 -1 401 -3 q 239 0 294 0 q 144 -7 194 0 q 78 -17 93 -14 l 86 47 q 174 84 151 60 q 197 167 197 108 l 199 750 q 188 810 199 794 q 147 825 178 825 q 112 824 129 825 q 89 822 94 822 l 86 828 l 96 889 q 163 886 114 888 q 261 885 211 885 q 353 890 301 885 q 421 897 406 894 l 415 835 q 338 812 357 828 q 315 756 318 796 m 78 1168 q 188 1107 103 1154 q 354 1017 272 1060 l 346 983 l 335 976 q 158 1041 243 1011 q 49 1079 72 1071 l 43 1093 l 65 1160 l 78 1168 z "},"Ī":{"ha":501,"x_min":47,"x_max":463,"o":"m 315 756 q 301 416 307 593 q 296 156 296 239 q 308 80 296 99 q 357 61 321 61 q 403 63 382 61 q 431 65 424 64 l 433 60 l 421 -4 q 348 -1 401 -3 q 239 0 294 0 q 144 -7 194 0 q 78 -17 93 -14 l 86 47 q 174 84 151 60 q 197 167 197 108 l 199 750 q 188 810 199 794 q 147 825 178 825 q 112 824 129 825 q 89 822 94 822 l 86 828 l 96 889 q 163 886 114 888 q 261 885 211 885 q 353 890 301 885 q 421 897 406 894 l 415 835 q 338 812 357 828 q 315 756 318 796 m 256 1000 l 56 999 l 47 1011 l 61 1074 l 275 1072 q 377 1076 318 1072 q 454 1081 436 1079 l 463 1067 l 453 1001 l 256 1000 z "},"Į":{"ha":501,"x_min":78,"x_max":457,"o":"m 457 -247 q 431 -269 451 -253 q 381 -304 411 -285 q 318 -335 350 -324 q 206 -300 249 -335 q 164 -204 164 -265 q 197 -113 164 -160 q 294 0 229 -67 l 239 0 q 144 -7 194 0 q 78 -17 93 -14 l 86 47 q 174 84 151 60 q 197 167 197 108 l 199 750 q 188 810 199 794 q 147 825 178 825 q 112 824 129 825 q 89 822 94 822 l 86 828 l 96 889 q 163 886 114 888 q 261 885 211 885 q 353 890 301 885 q 421 897 406 894 l 415 835 q 338 812 357 828 q 315 756 318 796 q 301 416 307 593 q 296 156 296 239 q 308 80 296 99 q 357 61 321 61 q 403 63 382 61 q 431 65 424 64 l 433 60 l 421 -4 l 354 -1 q 274 -100 297 -62 q 251 -178 251 -137 q 274 -232 251 -211 q 332 -253 296 -253 q 380 -246 356 -253 q 419 -231 404 -239 q 439 -221 435 -224 l 457 -247 z "},"Ĩ":{"ha":501,"x_min":31,"x_max":488,"o":"m 315 756 q 301 416 307 593 q 296 156 296 239 q 308 80 296 99 q 357 61 321 61 q 403 63 382 61 q 431 65 424 64 l 433 60 l 421 -4 q 348 -1 401 -3 q 239 0 294 0 q 144 -7 194 0 q 78 -17 93 -14 l 86 47 q 174 84 151 60 q 197 167 197 108 l 199 750 q 188 810 199 794 q 147 825 178 825 q 112 824 129 825 q 89 822 94 822 l 86 828 l 96 889 q 163 886 114 888 q 261 885 211 885 q 353 890 301 885 q 421 897 406 894 l 415 835 q 338 812 357 828 q 315 756 318 796 m 31 1044 l 136 1168 l 158 1174 q 267 1149 183 1174 q 313 1137 279 1146 q 361 1128 347 1128 q 394 1144 375 1128 q 429 1180 414 1161 q 449 1204 444 1199 l 457 1204 l 488 1175 l 488 1168 l 382 1044 l 360 1039 q 251 1064 335 1039 q 205 1076 239 1067 q 157 1085 171 1085 q 122 1068 142 1085 q 88 1033 103 1051 q 69 1008 74 1014 l 61 1008 l 31 1038 l 31 1044 z "},"J":{"ha":454,"x_min":32,"x_max":385,"o":"m 183 750 q 174 809 183 794 q 132 824 164 824 q 95 822 115 824 q 67 818 75 819 l 64 824 l 74 885 l 224 885 q 315 890 261 885 q 385 897 368 894 l 379 835 q 329 822 344 829 q 308 801 314 815 q 300 756 301 786 q 290 456 294 626 q 282 161 285 285 q 227 -66 281 19 q 56 -200 174 -151 l 32 -154 l 36 -143 q 124 -70 93 -108 q 169 22 156 -32 q 182 160 182 75 l 183 750 z "},"Ĵ":{"ha":454,"x_min":32,"x_max":443,"o":"m 183 750 q 174 809 183 794 q 132 824 164 824 q 95 822 115 824 q 67 818 75 819 l 64 824 l 74 885 l 224 885 q 315 890 261 885 q 385 897 368 894 l 379 835 q 329 822 344 829 q 308 801 314 815 q 300 756 301 786 q 290 456 294 626 q 282 161 285 285 q 227 -66 281 19 q 56 -200 174 -151 l 32 -154 l 36 -143 q 124 -70 93 -108 q 169 22 156 -32 q 182 160 182 75 l 183 750 m 40 1006 q 156 1132 97 1065 q 232 1218 215 1199 l 251 1218 q 327 1131 268 1199 q 443 1006 386 1064 l 424 975 l 411 974 q 271 1086 358 1021 l 242 1108 q 72 974 133 1028 l 60 975 l 40 1006 z "},"K":{"ha":872,"x_min":79,"x_max":858,"o":"m 199 750 q 188 810 199 794 q 147 825 178 825 q 119 824 133 825 q 100 822 106 822 l 97 828 l 107 889 q 169 886 124 888 q 261 885 215 885 q 347 890 299 885 q 410 897 394 894 l 404 835 q 333 809 353 826 q 313 751 314 792 l 296 156 q 307 81 294 100 q 357 61 319 61 q 396 63 378 61 q 419 65 414 64 l 422 60 l 410 -4 q 342 -1 392 -3 q 239 0 292 0 l 79 -1 l 93 61 q 159 75 138 65 q 189 106 181 85 q 197 167 197 126 l 199 750 m 586 715 q 629 788 629 758 q 542 829 629 824 l 539 835 l 549 894 q 617 889 565 893 q 701 885 669 885 q 776 887 735 885 q 829 890 817 889 l 835 881 l 825 824 q 758 794 789 817 q 665 707 728 772 l 442 472 l 675 168 q 765 76 725 103 q 853 50 804 50 l 858 44 l 850 -3 q 790 -12 835 -6 q 735 -19 744 -19 q 661 12 701 -19 q 579 100 621 43 l 336 438 l 338 457 l 586 715 z "},"Ķ":{"ha":872,"x_min":79,"x_max":858,"o":"m 199 750 q 188 810 199 794 q 147 825 178 825 q 119 824 133 825 q 100 822 106 822 l 97 828 l 107 889 q 169 886 124 888 q 261 885 215 885 q 347 890 299 885 q 410 897 394 894 l 404 835 q 333 809 353 826 q 313 751 314 792 l 296 156 q 307 81 294 100 q 357 61 319 61 q 396 63 378 61 q 419 65 414 64 l 422 60 l 410 -4 q 342 -1 392 -3 q 239 0 292 0 l 79 -1 l 93 61 q 159 75 138 65 q 189 106 181 85 q 197 167 197 126 l 199 750 m 586 715 q 629 788 629 758 q 542 829 629 824 l 539 835 l 549 894 q 617 889 565 893 q 701 885 669 885 q 776 887 735 885 q 829 890 817 889 l 835 881 l 825 824 q 758 794 789 817 q 665 707 728 772 l 442 472 l 675 168 q 765 76 725 103 q 853 50 804 50 l 858 44 l 850 -3 q 790 -12 835 -6 q 735 -19 744 -19 q 661 12 701 -19 q 579 100 621 43 l 336 438 l 338 457 l 586 715 m 385 -129 q 465 -93 432 -93 q 519 -120 497 -93 q 540 -192 540 -147 q 488 -315 540 -260 q 363 -407 435 -369 l 338 -386 l 338 -372 q 409 -308 381 -346 q 438 -235 438 -269 q 422 -185 438 -208 q 382 -149 407 -162 l 385 -129 z "},"L":{"ha":704,"x_min":94,"x_max":701,"o":"m 281 0 q 162 -6 215 0 q 94 -14 108 -11 l 103 50 q 177 83 157 58 q 197 167 197 107 l 199 750 q 188 810 199 794 q 147 825 178 825 q 119 824 133 825 q 100 822 106 822 l 97 828 l 107 889 q 169 886 124 888 q 263 885 215 885 q 348 890 300 885 q 411 897 396 894 l 406 835 q 342 817 360 829 q 322 788 325 804 q 314 706 318 771 q 301 436 306 588 q 297 169 297 285 q 306 98 297 119 q 337 69 314 76 q 415 63 360 63 q 540 76 500 63 q 599 131 579 90 q 636 260 619 171 l 697 267 l 701 260 q 684 160 697 238 q 661 -4 671 82 l 654 -12 q 488 -5 614 -10 q 281 0 363 0 z "},"Ĺ":{"ha":704,"x_min":94,"x_max":701,"o":"m 281 0 q 162 -6 215 0 q 94 -14 108 -11 l 103 50 q 177 83 157 58 q 197 167 197 107 l 199 750 q 188 810 199 794 q 147 825 178 825 q 119 824 133 825 q 100 822 106 822 l 97 828 l 107 889 q 169 886 124 888 q 263 885 215 885 q 348 890 300 885 q 411 897 396 894 l 406 835 q 342 817 360 829 q 322 788 325 804 q 314 706 318 771 q 301 436 306 588 q 297 169 297 285 q 306 98 297 119 q 337 69 314 76 q 415 63 360 63 q 540 76 500 63 q 599 131 579 90 q 636 260 619 171 l 697 267 l 701 260 q 684 160 697 238 q 661 -4 671 82 l 654 -12 q 488 -5 614 -10 q 281 0 363 0 m 481 1079 q 372 1041 457 1071 q 194 976 286 1011 l 183 983 l 175 1017 q 342 1107 257 1060 q 451 1168 426 1154 l 464 1160 l 486 1093 l 481 1079 z "},"Ľ":{"ha":704,"x_min":94,"x_max":701,"o":"m 281 0 q 162 -6 215 0 q 94 -14 108 -11 l 103 50 q 177 83 157 58 q 197 167 197 107 l 199 750 q 188 810 199 794 q 147 825 178 825 q 119 824 133 825 q 100 822 106 822 l 97 828 l 107 889 q 169 886 124 888 q 263 885 215 885 q 348 890 300 885 q 411 897 396 894 l 406 835 q 342 817 360 829 q 322 788 325 804 q 314 706 318 771 q 301 436 306 588 q 297 169 297 285 q 306 98 297 119 q 337 69 314 76 q 415 63 360 63 q 540 76 500 63 q 599 131 579 90 q 636 260 619 171 l 697 267 l 701 260 q 684 160 697 238 q 661 -4 671 82 l 654 -12 q 488 -5 614 -10 q 281 0 363 0 m 676 868 q 660 752 674 842 q 628 574 646 663 l 593 554 l 578 557 q 579 632 579 582 q 575 776 579 710 q 569 860 571 842 l 667 879 l 676 868 z "},"Ļ":{"ha":704,"x_min":94,"x_max":701,"o":"m 281 0 q 162 -6 215 0 q 94 -14 108 -11 l 103 50 q 177 83 157 58 q 197 167 197 107 l 199 750 q 188 810 199 794 q 147 825 178 825 q 119 824 133 825 q 100 822 106 822 l 97 828 l 107 889 q 169 886 124 888 q 263 885 215 885 q 348 890 300 885 q 411 897 396 894 l 406 835 q 342 817 360 829 q 322 788 325 804 q 314 706 318 771 q 301 436 306 588 q 297 169 297 285 q 306 98 297 119 q 337 69 314 76 q 415 63 360 63 q 540 76 500 63 q 599 131 579 90 q 636 260 619 171 l 697 267 l 701 260 q 684 160 697 238 q 661 -4 671 82 l 654 -12 q 488 -5 614 -10 q 281 0 363 0 m 343 -129 q 424 -93 390 -93 q 477 -120 456 -93 q 499 -192 499 -147 q 446 -315 499 -260 q 321 -407 393 -369 l 296 -386 l 296 -372 q 367 -308 339 -346 q 396 -235 396 -269 q 381 -185 396 -208 q 340 -149 365 -162 l 343 -129 z "},"Ŀ":{"ha":740,"x_min":94,"x_max":701,"o":"m 281 0 q 162 -6 215 0 q 94 -14 108 -11 l 103 50 q 177 83 157 58 q 197 167 197 107 l 199 750 q 188 810 199 794 q 147 825 178 825 q 119 824 133 825 q 100 822 106 822 l 97 828 l 107 889 q 169 886 124 888 q 263 885 215 885 q 348 890 300 885 q 411 897 396 894 l 406 835 q 342 817 360 829 q 322 788 325 804 q 314 706 318 771 q 301 436 306 588 q 297 169 297 285 q 306 98 297 119 q 337 69 314 76 q 415 63 360 63 q 540 76 500 63 q 599 131 579 90 q 636 260 619 171 l 697 267 l 701 260 q 684 160 697 238 q 661 -4 671 82 l 654 -12 q 488 -5 614 -10 q 281 0 363 0 m 606 532 q 548 555 568 532 q 528 611 528 578 q 551 672 528 647 q 614 697 575 697 q 672 674 651 697 q 693 618 693 651 q 669 557 693 582 q 606 532 644 532 z "},"Ł":{"ha":765,"x_min":85,"x_max":701,"o":"m 701 260 q 684 160 697 238 q 661 -4 671 82 l 654 -12 q 488 -5 614 -10 q 281 0 363 0 q 162 -6 215 0 q 94 -14 108 -11 l 103 50 q 177 83 157 58 q 197 167 197 107 l 197 404 l 104 358 l 92 363 l 85 407 l 199 463 l 199 750 q 188 810 199 794 q 147 825 178 825 q 119 824 133 825 q 100 822 106 822 l 97 828 l 107 889 q 169 886 124 888 q 263 885 215 885 q 348 890 300 885 q 411 897 396 894 l 406 835 q 342 817 360 829 q 322 788 325 804 q 314 706 318 771 q 304 507 306 586 l 553 631 l 564 624 l 571 581 l 301 447 q 297 169 297 288 q 306 98 297 119 q 337 69 314 76 q 415 63 360 63 q 540 76 500 63 q 599 131 579 90 q 636 260 619 171 l 697 267 l 701 260 z "},"M":{"ha":1176,"x_min":64,"x_max":1108,"o":"m 282 722 l 275 722 q 248 378 268 631 q 228 104 228 126 q 271 61 228 61 l 328 63 l 331 57 l 318 -6 q 263 -2 303 -4 q 183 0 224 0 q 112 -5 149 0 q 64 -11 75 -10 l 71 53 q 135 81 115 58 q 160 160 154 104 q 221 760 221 718 q 192 814 221 796 q 100 836 164 832 l 96 843 l 107 892 q 178 888 125 890 q 258 885 231 885 q 313 887 283 885 q 353 890 343 889 q 460 558 408 711 q 546 314 513 404 q 588 201 579 224 l 594 201 q 683 446 614 253 q 835 888 753 639 q 872 886 835 889 l 926 885 q 1006 888 953 885 q 1076 893 1058 892 l 1079 888 l 1072 836 q 988 812 1013 829 q 963 760 963 794 q 975 533 963 729 q 999 193 988 336 q 1013 109 1006 136 q 1032 72 1019 82 q 1067 61 1044 61 q 1090 63 1079 61 q 1106 64 1101 64 l 1108 58 l 1096 -4 q 1044 -1 1082 -3 q 964 0 1006 0 q 880 -5 926 0 q 819 -11 833 -10 l 825 53 q 888 75 868 58 q 907 122 907 92 q 887 393 907 151 q 860 722 867 635 l 853 722 l 585 -17 l 551 -26 l 282 722 z "},"N":{"ha":999,"x_min":75,"x_max":953,"o":"m 772 764 q 726 824 772 824 l 674 822 l 671 828 l 683 890 q 736 887 697 889 q 815 885 775 885 q 895 890 851 885 q 953 896 939 894 l 946 832 q 875 805 897 825 q 851 744 853 785 l 832 -36 l 792 -56 q 556 302 671 132 q 368 577 442 472 q 275 710 294 682 l 268 710 l 261 117 q 271 74 261 86 q 304 61 281 61 l 375 63 l 378 57 l 365 -6 q 303 -2 350 -4 q 218 0 256 0 q 142 -5 183 0 q 89 -11 101 -10 l 96 53 q 160 78 139 58 q 182 140 181 99 l 200 747 q 174 808 200 790 q 79 833 149 826 l 75 840 l 86 892 q 140 888 99 890 q 206 885 182 885 q 263 887 235 885 q 299 890 290 889 q 505 578 401 731 q 678 326 608 425 q 765 201 747 228 l 772 201 l 772 764 z "},"Ń":{"ha":999,"x_min":75,"x_max":953,"o":"m 772 764 q 726 824 772 824 l 674 822 l 671 828 l 683 890 q 736 887 697 889 q 815 885 775 885 q 895 890 851 885 q 953 896 939 894 l 946 832 q 875 805 897 825 q 851 744 853 785 l 832 -36 l 792 -56 q 556 302 671 132 q 368 577 442 472 q 275 710 294 682 l 268 710 l 261 117 q 271 74 261 86 q 304 61 281 61 l 375 63 l 378 57 l 365 -6 q 303 -2 350 -4 q 218 0 256 0 q 142 -5 183 0 q 89 -11 101 -10 l 96 53 q 160 78 139 58 q 182 140 181 99 l 200 747 q 174 808 200 790 q 79 833 149 826 l 75 840 l 86 892 q 140 888 99 890 q 206 885 182 885 q 263 887 235 885 q 299 890 290 889 q 505 578 401 731 q 678 326 608 425 q 765 201 747 228 l 772 201 l 772 764 m 732 1079 q 623 1041 708 1071 q 446 976 538 1011 l 435 983 l 426 1017 q 593 1107 508 1060 q 703 1168 678 1154 l 715 1160 l 738 1093 l 732 1079 z "},"Ň":{"ha":999,"x_min":75,"x_max":953,"o":"m 772 764 q 726 824 772 824 l 674 822 l 671 828 l 683 890 q 736 887 697 889 q 815 885 775 885 q 895 890 851 885 q 953 896 939 894 l 946 832 q 875 805 897 825 q 851 744 853 785 l 832 -36 l 792 -56 q 556 302 671 132 q 368 577 442 472 q 275 710 294 682 l 268 710 l 261 117 q 271 74 261 86 q 304 61 281 61 l 375 63 l 378 57 l 365 -6 q 303 -2 350 -4 q 218 0 256 0 q 142 -5 183 0 q 89 -11 101 -10 l 96 53 q 160 78 139 58 q 182 140 181 99 l 200 747 q 174 808 200 790 q 79 833 149 826 l 75 840 l 86 892 q 140 888 99 890 q 206 885 182 885 q 263 887 235 885 q 299 890 290 889 q 505 578 401 731 q 678 326 608 425 q 765 201 747 228 l 772 201 l 772 764 m 717 1132 q 601 1041 660 1089 q 525 978 542 993 l 506 978 q 430 1041 489 993 q 314 1132 371 1089 l 333 1163 l 346 1164 q 515 1074 439 1110 q 685 1164 588 1107 l 697 1163 l 717 1132 z "},"Ņ":{"ha":999,"x_min":75,"x_max":953,"o":"m 772 764 q 726 824 772 824 l 674 822 l 671 828 l 683 890 q 736 887 697 889 q 815 885 775 885 q 895 890 851 885 q 953 896 939 894 l 946 832 q 875 805 897 825 q 851 744 853 785 l 832 -36 l 792 -56 q 556 302 671 132 q 368 577 442 472 q 275 710 294 682 l 268 710 l 261 117 q 271 74 261 86 q 304 61 281 61 l 375 63 l 378 57 l 365 -6 q 303 -2 350 -4 q 218 0 256 0 q 142 -5 183 0 q 89 -11 101 -10 l 96 53 q 160 78 139 58 q 182 140 181 99 l 200 747 q 174 808 200 790 q 79 833 149 826 l 75 840 l 86 892 q 140 888 99 890 q 206 885 182 885 q 263 887 235 885 q 299 890 290 889 q 505 578 401 731 q 678 326 608 425 q 765 201 747 228 l 772 201 l 772 764 m 435 -129 q 515 -93 482 -93 q 569 -120 547 -93 q 590 -192 590 -147 q 538 -315 590 -260 q 413 -407 485 -369 l 388 -386 l 388 -372 q 459 -308 431 -346 q 488 -235 488 -269 q 472 -185 488 -208 q 432 -149 457 -162 l 435 -129 z "},"Ŋ":{"ha":999,"x_min":75,"x_max":953,"o":"m 199 885 q 254 887 222 885 q 299 890 286 889 q 490 600 386 753 q 669 339 593 447 q 765 201 744 231 l 772 201 l 772 764 q 726 824 772 824 l 674 822 l 671 828 l 683 890 q 736 887 697 889 q 815 885 775 885 q 895 890 851 885 q 953 896 939 894 l 946 832 q 874 806 896 826 q 851 744 853 785 l 839 119 q 783 -93 835 -15 q 613 -214 731 -171 l 589 -168 l 593 -157 q 697 -87 660 -126 q 749 11 733 -47 q 433 484 590 256 q 275 710 275 713 l 268 710 l 261 117 q 271 74 261 86 q 304 61 281 61 l 374 64 l 378 58 l 365 -6 q 300 -2 350 -4 q 210 0 250 0 q 138 -5 175 0 q 89 -11 100 -10 l 96 53 q 163 81 144 57 q 183 172 181 106 l 200 747 q 176 806 200 788 q 79 833 151 824 l 75 840 l 86 892 q 134 888 100 890 q 199 885 168 885 z "},"Ñ":{"ha":999,"x_min":75,"x_max":953,"o":"m 772 764 q 726 824 772 824 l 674 822 l 671 828 l 683 890 q 736 887 697 889 q 815 885 775 885 q 895 890 851 885 q 953 896 939 894 l 946 832 q 875 805 897 825 q 851 744 853 785 l 832 -36 l 792 -56 q 556 302 671 132 q 368 577 442 472 q 275 710 294 682 l 268 710 l 261 117 q 271 74 261 86 q 304 61 281 61 l 375 63 l 378 57 l 365 -6 q 303 -2 350 -4 q 218 0 256 0 q 142 -5 183 0 q 89 -11 101 -10 l 96 53 q 160 78 139 58 q 182 140 181 99 l 200 747 q 174 808 200 790 q 79 833 149 826 l 75 840 l 86 892 q 140 888 99 890 q 206 885 182 885 q 263 887 235 885 q 299 890 290 889 q 505 578 401 731 q 678 326 608 425 q 765 201 747 228 l 772 201 l 772 764 m 289 1007 l 394 1117 l 417 1122 q 525 1097 442 1122 q 572 1085 538 1094 q 619 1076 606 1076 q 653 1090 633 1076 q 688 1119 672 1104 q 707 1139 703 1135 l 715 1139 l 746 1110 l 746 1103 l 640 993 l 618 988 q 510 1013 593 988 q 463 1024 497 1015 q 415 1033 429 1033 q 381 1019 400 1033 q 347 990 361 1006 q 328 971 332 975 l 319 971 l 289 1000 l 289 1007 z "},"O":{"ha":961,"x_min":56,"x_max":906,"o":"m 440 -17 q 240 38 328 -17 q 104 190 153 92 q 56 413 56 288 q 116 660 56 549 q 281 837 176 772 q 513 901 386 901 q 717 847 628 901 q 856 696 806 793 q 906 474 906 599 q 844 225 906 338 q 676 48 782 113 q 440 -17 569 -17 m 483 54 q 639 100 571 54 q 744 228 707 146 q 782 415 782 310 q 742 624 782 533 q 630 767 701 715 q 465 818 558 818 q 315 772 381 818 q 212 644 249 726 q 175 457 175 563 q 214 248 175 339 q 323 106 253 157 q 483 54 393 54 z "},"Ó":{"ha":961,"x_min":56,"x_max":906,"o":"m 440 -17 q 240 38 328 -17 q 104 190 153 92 q 56 413 56 288 q 116 660 56 549 q 281 837 176 772 q 513 901 386 901 q 717 847 628 901 q 856 696 806 793 q 906 474 906 599 q 844 225 906 338 q 676 48 782 113 q 440 -17 569 -17 m 483 54 q 639 100 571 54 q 744 228 707 146 q 782 415 782 310 q 742 624 782 533 q 630 767 701 715 q 465 818 558 818 q 315 772 381 818 q 212 644 249 726 q 175 457 175 563 q 214 248 175 339 q 323 106 253 157 q 483 54 393 54 m 692 1079 q 583 1041 668 1071 q 406 976 497 1011 l 394 983 l 386 1017 q 553 1107 468 1060 q 663 1168 638 1154 l 675 1160 l 697 1093 l 692 1079 z "},"Ŏ":{"ha":961,"x_min":56,"x_max":906,"o":"m 440 -17 q 240 38 328 -17 q 104 190 153 92 q 56 413 56 288 q 116 660 56 549 q 281 837 176 772 q 513 901 386 901 q 717 847 628 901 q 856 696 806 793 q 906 474 906 599 q 844 225 906 338 q 676 48 782 113 q 440 -17 569 -17 m 483 54 q 639 100 571 54 q 744 228 707 146 q 782 415 782 310 q 742 624 782 533 q 630 767 701 715 q 465 818 558 818 q 315 772 381 818 q 212 644 249 726 q 175 457 175 563 q 214 248 175 339 q 323 106 253 157 q 483 54 393 54 m 451 1099 q 532 1122 496 1099 q 585 1190 568 1146 l 596 1190 l 618 1176 q 560 1064 601 1110 q 451 1018 518 1018 q 343 1064 385 1018 q 285 1176 301 1110 l 307 1190 l 318 1190 q 371 1122 335 1146 q 451 1099 407 1099 z "},"Ô":{"ha":961,"x_min":56,"x_max":906,"o":"m 440 -17 q 240 38 328 -17 q 104 190 153 92 q 56 413 56 288 q 116 660 56 549 q 281 837 176 772 q 513 901 386 901 q 717 847 628 901 q 856 696 806 793 q 906 474 906 599 q 844 225 906 338 q 676 48 782 113 q 440 -17 569 -17 m 483 54 q 639 100 571 54 q 744 228 707 146 q 782 415 782 310 q 742 624 782 533 q 630 767 701 715 q 465 818 558 818 q 315 772 381 818 q 212 644 249 726 q 175 457 175 563 q 214 248 175 339 q 323 106 253 157 q 483 54 393 54 m 274 1021 q 390 1112 331 1064 q 465 1175 449 1160 l 485 1175 q 560 1112 501 1160 q 676 1021 619 1064 l 657 990 l 644 989 q 475 1079 551 1043 q 306 989 403 1046 l 293 990 l 274 1021 z "},"Ö":{"ha":961,"x_min":56,"x_max":906,"o":"m 440 -17 q 240 38 328 -17 q 104 190 153 92 q 56 413 56 288 q 116 660 56 549 q 281 837 176 772 q 513 901 386 901 q 717 847 628 901 q 856 696 806 793 q 906 474 906 599 q 844 225 906 338 q 676 48 782 113 q 440 -17 569 -17 m 483 54 q 639 100 571 54 q 744 228 707 146 q 782 415 782 310 q 742 624 782 533 q 630 767 701 715 q 465 818 558 818 q 315 772 381 818 q 212 644 249 726 q 175 457 175 563 q 214 248 175 339 q 323 106 253 157 q 483 54 393 54 m 353 1007 q 311 1025 326 1007 q 296 1067 296 1043 q 316 1116 296 1096 q 365 1136 336 1136 q 407 1119 392 1136 q 422 1076 422 1101 q 402 1027 422 1047 q 353 1007 382 1007 m 583 1007 q 542 1025 557 1007 q 526 1067 526 1043 q 547 1116 526 1096 q 596 1136 567 1136 q 638 1119 622 1136 q 653 1076 653 1101 q 633 1027 653 1047 q 583 1007 613 1007 z "},"Ò":{"ha":961,"x_min":56,"x_max":906,"o":"m 440 -17 q 240 38 328 -17 q 104 190 153 92 q 56 413 56 288 q 116 660 56 549 q 281 837 176 772 q 513 901 386 901 q 717 847 628 901 q 856 696 806 793 q 906 474 906 599 q 844 225 906 338 q 676 48 782 113 q 440 -17 569 -17 m 483 54 q 639 100 571 54 q 744 228 707 146 q 782 415 782 310 q 742 624 782 533 q 630 767 701 715 q 465 818 558 818 q 315 772 381 818 q 212 644 249 726 q 175 457 175 563 q 214 248 175 339 q 323 106 253 157 q 483 54 393 54 m 297 1168 q 407 1107 322 1154 q 574 1017 492 1060 l 565 983 l 554 976 q 377 1041 463 1011 q 268 1079 292 1071 l 263 1093 l 285 1160 l 297 1168 z "},"Ő":{"ha":961,"x_min":56,"x_max":906,"o":"m 440 -17 q 240 38 328 -17 q 104 190 153 92 q 56 413 56 288 q 116 660 56 549 q 281 837 176 772 q 513 901 386 901 q 717 847 628 901 q 856 696 806 793 q 906 474 906 599 q 844 225 906 338 q 676 48 782 113 q 440 -17 569 -17 m 483 54 q 639 100 571 54 q 744 228 707 146 q 782 415 782 310 q 742 624 782 533 q 630 767 701 715 q 465 818 558 818 q 315 772 381 818 q 212 644 249 726 q 175 457 175 563 q 214 248 175 339 q 323 106 253 157 q 483 54 393 54 m 593 1085 q 506 1040 574 1075 q 365 964 439 1004 l 354 971 l 342 1000 q 469 1097 404 1046 q 554 1163 535 1147 l 567 1157 l 597 1097 l 593 1085 m 788 1072 q 700 1027 768 1063 q 560 951 632 992 l 550 957 l 536 986 q 670 1089 611 1043 q 749 1150 729 1135 l 761 1143 l 792 1085 l 788 1072 z "},"Ō":{"ha":961,"x_min":56,"x_max":906,"o":"m 440 -17 q 240 38 328 -17 q 104 190 153 92 q 56 413 56 288 q 116 660 56 549 q 281 837 176 772 q 513 901 386 901 q 717 847 628 901 q 856 696 806 793 q 906 474 906 599 q 844 225 906 338 q 676 48 782 113 q 440 -17 569 -17 m 483 54 q 639 100 571 54 q 744 228 707 146 q 782 415 782 310 q 742 624 782 533 q 630 767 701 715 q 465 818 558 818 q 315 772 381 818 q 212 644 249 726 q 175 457 175 563 q 214 248 175 339 q 323 106 253 157 q 483 54 393 54 m 475 1000 l 275 999 l 267 1011 l 281 1074 l 494 1072 q 597 1076 538 1072 q 674 1081 656 1079 l 682 1067 l 672 1001 l 475 1000 z "},"Ø":{"ha":961,"x_min":56,"x_max":906,"o":"m 710 851 q 853 700 801 799 q 906 474 906 601 q 844 225 906 338 q 676 48 782 113 q 440 -17 569 -17 q 272 21 347 -17 l 189 -136 l 151 -128 l 149 -114 l 231 43 q 102 194 149 99 q 56 413 56 290 q 116 660 56 549 q 281 837 176 772 q 513 901 386 901 q 664 874 593 901 l 722 983 l 763 974 l 767 957 l 710 851 m 175 457 q 203 278 175 358 q 282 142 231 197 l 614 778 q 465 818 549 818 q 315 772 381 818 q 212 644 249 726 q 175 457 175 563 m 483 54 q 639 100 571 54 q 744 228 707 146 q 782 415 782 310 q 749 608 782 522 q 656 747 715 694 l 319 108 q 483 54 390 54 z "},"Ǿ":{"ha":961,"x_min":56,"x_max":906,"o":"m 710 851 q 853 700 801 799 q 906 474 906 601 q 844 225 906 338 q 676 48 782 113 q 440 -17 569 -17 q 272 21 347 -17 l 189 -136 l 151 -128 l 149 -114 l 231 43 q 102 194 149 99 q 56 413 56 290 q 116 660 56 549 q 281 837 176 772 q 513 901 386 901 q 664 874 593 901 l 722 983 l 763 974 l 767 957 l 710 851 m 175 457 q 203 278 175 358 q 282 142 231 197 l 614 778 q 465 818 549 818 q 315 772 381 818 q 212 644 249 726 q 175 457 175 563 m 483 54 q 639 100 571 54 q 744 228 707 146 q 782 415 782 310 q 749 608 782 522 q 656 747 715 694 l 319 108 q 483 54 390 54 m 679 1079 q 570 1041 656 1071 q 393 976 485 1011 l 382 983 l 374 1017 q 540 1107 456 1060 q 650 1168 625 1154 l 663 1160 l 685 1093 l 679 1079 z "},"Õ":{"ha":961,"x_min":56,"x_max":906,"o":"m 440 -17 q 240 38 328 -17 q 104 190 153 92 q 56 413 56 288 q 116 660 56 549 q 281 837 176 772 q 513 901 386 901 q 717 847 628 901 q 856 696 806 793 q 906 474 906 599 q 844 225 906 338 q 676 48 782 113 q 440 -17 569 -17 m 483 54 q 639 100 571 54 q 744 228 707 146 q 782 415 782 310 q 742 624 782 533 q 630 767 701 715 q 465 818 558 818 q 315 772 381 818 q 212 644 249 726 q 175 457 175 563 q 214 248 175 339 q 323 106 253 157 q 483 54 393 54 m 249 1007 l 354 1117 l 376 1122 q 485 1097 401 1122 q 531 1085 497 1094 q 579 1076 565 1076 q 613 1090 593 1076 q 647 1119 632 1104 q 667 1139 663 1135 l 675 1139 l 706 1110 l 706 1103 l 600 993 l 578 988 q 469 1013 553 988 q 423 1024 457 1015 q 375 1033 389 1033 q 340 1019 360 1033 q 306 990 321 1006 q 288 971 292 975 l 279 971 l 249 1000 l 249 1007 z "},"Œ":{"ha":1338,"x_min":57,"x_max":1253,"o":"m 810 146 q 817 90 810 106 q 845 68 824 74 q 919 63 867 63 q 1085 74 1036 63 q 1156 118 1135 85 q 1188 232 1176 151 l 1249 239 l 1253 232 q 1236 142 1249 213 q 1215 -1 1224 72 l 1208 -10 q 1014 -3 1161 -8 q 785 1 867 1 q 575 -8 721 1 q 432 -17 472 -17 q 238 38 322 -17 q 105 190 153 92 q 57 413 57 288 q 116 660 57 549 q 278 837 175 772 q 504 901 381 901 q 642 892 560 901 q 708 886 656 890 q 808 882 760 882 q 1231 901 1090 882 l 1235 893 q 1227 853 1233 885 q 1214 771 1221 822 q 1203 663 1207 719 l 1136 657 q 1138 681 1136 664 q 1139 717 1139 699 q 1126 784 1139 765 q 1071 809 1113 803 q 925 815 1029 815 q 858 813 876 815 q 835 799 840 810 q 828 761 829 789 l 817 492 l 961 490 q 1051 497 992 490 q 1131 506 1111 503 l 1136 499 l 1117 417 q 1041 419 1097 418 q 922 421 985 421 l 814 411 l 810 146 m 475 56 q 619 78 565 56 q 697 152 672 101 q 722 289 721 203 l 724 649 q 702 756 724 719 q 627 806 681 792 q 471 821 574 821 q 318 775 385 821 q 214 647 251 729 q 176 458 176 564 q 214 249 176 340 q 319 106 251 157 q 475 56 388 56 z "},"P":{"ha":765,"x_min":88,"x_max":733,"o":"m 107 889 q 169 886 124 888 q 261 885 215 885 q 359 887 304 885 q 436 890 414 889 q 657 826 581 890 q 733 643 733 763 q 688 495 733 565 q 569 382 643 425 q 415 339 496 339 l 299 339 l 296 203 q 300 108 296 136 q 316 70 304 79 q 357 61 328 61 q 402 63 381 61 q 432 65 424 64 l 435 60 l 422 -4 q 372 -1 408 -3 q 294 0 335 0 q 165 -4 239 0 q 88 -11 90 -8 l 97 53 q 178 85 158 64 q 197 167 197 107 l 199 750 q 188 810 199 794 q 147 825 178 825 q 119 824 133 825 q 100 822 106 822 l 97 828 l 107 889 m 449 400 q 574 468 532 414 q 617 617 617 522 q 553 773 617 724 q 356 822 490 822 q 325 819 331 822 q 318 803 319 817 q 301 421 306 626 l 449 400 z "},"Þ":{"ha":754,"x_min":78,"x_max":724,"o":"m 314 728 q 313 699 311 706 l 426 699 q 647 640 569 699 q 724 472 724 582 q 678 341 724 403 q 556 242 632 279 q 394 206 481 206 l 296 206 l 296 156 q 308 80 296 99 q 357 61 321 61 q 403 63 382 61 q 431 65 424 64 l 433 60 l 421 -4 q 348 -1 401 -3 q 239 0 294 0 q 144 -7 194 0 q 78 -17 93 -14 l 86 47 q 174 84 151 60 q 197 167 197 108 l 199 750 q 188 810 199 794 q 147 825 178 825 q 112 824 129 825 q 89 822 94 822 l 86 828 l 96 889 q 163 886 114 888 q 261 885 211 885 q 353 890 301 885 q 421 897 406 894 l 415 835 q 338 812 357 828 q 315 756 318 796 l 314 728 m 308 619 q 297 290 300 425 q 365 275 322 282 q 439 267 408 268 q 565 322 522 276 q 607 446 607 368 q 544 586 607 542 q 346 631 482 631 q 317 628 322 631 q 308 619 311 626 z "},"Q":{"ha":968,"x_min":56,"x_max":1117,"o":"m 440 -17 q 240 38 328 -17 q 104 190 153 92 q 56 413 56 288 q 116 660 56 549 q 281 837 176 772 q 513 901 386 901 q 717 847 628 901 q 856 696 806 793 q 906 474 906 599 q 863 262 906 360 q 742 96 819 164 q 565 0 664 28 l 565 -7 q 810 -149 713 -107 q 992 -190 908 -190 q 1067 -184 1032 -190 q 1103 -176 1103 -178 l 1108 -181 l 1117 -206 q 1082 -235 1108 -212 q 1026 -279 1056 -258 q 985 -300 997 -300 q 855 -279 915 -300 q 703 -200 794 -258 q 440 -17 611 -142 m 483 54 q 639 100 571 54 q 744 228 707 146 q 782 415 782 310 q 742 624 782 533 q 630 767 701 715 q 465 818 558 818 q 315 772 381 818 q 212 644 249 726 q 175 457 175 563 q 214 248 175 339 q 323 106 253 157 q 483 54 393 54 z "},"R":{"ha":849,"x_min":79,"x_max":838,"o":"m 296 172 q 303 97 296 119 q 329 66 310 74 q 396 58 349 58 l 399 53 l 386 -6 q 319 -3 369 -4 q 215 -1 269 -1 q 129 -3 167 -1 q 79 -6 92 -4 l 92 57 q 158 72 136 63 q 189 103 181 82 q 197 167 197 125 l 199 750 q 188 810 199 794 q 147 825 178 825 q 119 824 133 825 q 100 822 106 822 l 97 828 l 107 889 q 169 886 124 888 q 261 885 215 885 q 360 887 308 885 q 432 890 413 889 q 636 832 561 890 q 711 672 711 774 q 658 519 711 589 q 507 406 604 450 l 660 164 q 738 72 700 97 q 832 46 776 46 l 838 40 l 829 -7 l 711 -22 q 637 13 676 -22 q 564 110 597 49 l 415 379 l 300 379 l 296 172 m 446 443 q 488 461 446 439 q 563 529 529 483 q 596 647 596 575 q 342 831 596 831 q 323 824 328 831 q 317 799 318 818 q 303 457 304 586 l 446 443 z "},"Ŕ":{"ha":849,"x_min":79,"x_max":838,"o":"m 296 172 q 303 97 296 119 q 329 66 310 74 q 396 58 349 58 l 399 53 l 386 -6 q 319 -3 369 -4 q 215 -1 269 -1 q 129 -3 167 -1 q 79 -6 92 -4 l 92 57 q 158 72 136 63 q 189 103 181 82 q 197 167 197 125 l 199 750 q 188 810 199 794 q 147 825 178 825 q 119 824 133 825 q 100 822 106 822 l 97 828 l 107 889 q 169 886 124 888 q 261 885 215 885 q 360 887 308 885 q 432 890 413 889 q 636 832 561 890 q 711 672 711 774 q 658 519 711 589 q 507 406 604 450 l 660 164 q 738 72 700 97 q 832 46 776 46 l 838 40 l 829 -7 l 711 -22 q 637 13 676 -22 q 564 110 597 49 l 415 379 l 300 379 l 296 172 m 446 443 q 488 461 446 439 q 563 529 529 483 q 596 647 596 575 q 342 831 596 831 q 323 824 328 831 q 317 799 318 818 q 303 457 304 586 l 446 443 m 640 1079 q 531 1041 617 1071 q 354 976 446 1011 l 343 983 l 335 1017 q 501 1107 417 1060 q 611 1168 586 1154 l 624 1160 l 646 1093 l 640 1079 z "},"Ř":{"ha":849,"x_min":79,"x_max":838,"o":"m 296 172 q 303 97 296 119 q 329 66 310 74 q 396 58 349 58 l 399 53 l 386 -6 q 319 -3 369 -4 q 215 -1 269 -1 q 129 -3 167 -1 q 79 -6 92 -4 l 92 57 q 158 72 136 63 q 189 103 181 82 q 197 167 197 125 l 199 750 q 188 810 199 794 q 147 825 178 825 q 119 824 133 825 q 100 822 106 822 l 97 828 l 107 889 q 169 886 124 888 q 261 885 215 885 q 360 887 308 885 q 432 890 413 889 q 636 832 561 890 q 711 672 711 774 q 658 519 711 589 q 507 406 604 450 l 660 164 q 738 72 700 97 q 832 46 776 46 l 838 40 l 829 -7 l 711 -22 q 637 13 676 -22 q 564 110 597 49 l 415 379 l 300 379 l 296 172 m 446 443 q 488 461 446 439 q 563 529 529 483 q 596 647 596 575 q 342 831 596 831 q 323 824 328 831 q 317 799 318 818 q 303 457 304 586 l 446 443 m 625 1132 q 509 1041 568 1089 q 433 978 450 993 l 414 978 q 338 1041 397 993 q 222 1132 279 1089 l 242 1163 l 254 1164 q 424 1074 347 1110 q 593 1164 496 1107 l 606 1163 l 625 1132 z "},"Ŗ":{"ha":849,"x_min":79,"x_max":838,"o":"m 296 172 q 303 97 296 119 q 329 66 310 74 q 396 58 349 58 l 399 53 l 386 -6 q 319 -3 369 -4 q 215 -1 269 -1 q 129 -3 167 -1 q 79 -6 92 -4 l 92 57 q 158 72 136 63 q 189 103 181 82 q 197 167 197 125 l 199 750 q 188 810 199 794 q 147 825 178 825 q 119 824 133 825 q 100 822 106 822 l 97 828 l 107 889 q 169 886 124 888 q 261 885 215 885 q 360 887 308 885 q 432 890 413 889 q 636 832 561 890 q 711 672 711 774 q 658 519 711 589 q 507 406 604 450 l 660 164 q 738 72 700 97 q 832 46 776 46 l 838 40 l 829 -7 l 711 -22 q 637 13 676 -22 q 564 110 597 49 l 415 379 l 300 379 l 296 172 m 446 443 q 488 461 446 439 q 563 529 529 483 q 596 647 596 575 q 342 831 596 831 q 323 824 328 831 q 317 799 318 818 q 303 457 304 586 l 446 443 m 371 -129 q 451 -93 418 -93 q 505 -120 483 -93 q 526 -192 526 -147 q 474 -315 526 -260 q 349 -407 421 -369 l 324 -386 l 324 -372 q 395 -308 367 -346 q 424 -235 424 -269 q 408 -185 424 -208 q 368 -149 393 -162 l 371 -129 z "},"S":{"ha":736,"x_min":79,"x_max":647,"o":"m 304 -17 q 197 -6 246 -17 q 117 17 149 4 q 86 31 86 29 l 79 44 q 85 86 81 53 q 92 173 89 119 q 96 286 96 226 l 158 293 q 172 139 158 189 q 224 70 186 89 q 339 51 261 51 q 479 92 426 51 q 532 204 532 133 q 503 279 532 246 q 436 336 475 313 q 321 400 397 360 q 203 469 249 438 q 126 543 157 500 q 94 643 94 586 q 137 774 94 715 q 252 867 179 833 q 414 901 325 901 q 517 894 469 901 q 592 878 564 886 q 626 867 619 869 l 631 858 q 624 819 629 850 q 611 735 618 789 q 600 624 604 681 l 546 618 l 538 625 q 540 651 539 631 q 542 697 542 671 q 506 799 542 771 q 376 826 469 826 q 251 788 300 826 q 201 693 201 750 q 249 597 201 638 q 390 507 297 556 q 528 431 481 461 q 611 357 575 401 q 647 254 647 313 q 603 115 647 176 q 482 18 560 53 q 304 -17 404 -17 z "},"Ś":{"ha":736,"x_min":79,"x_max":647,"o":"m 304 -17 q 197 -6 246 -17 q 117 17 149 4 q 86 31 86 29 l 79 44 q 85 86 81 53 q 92 173 89 119 q 96 286 96 226 l 158 293 q 172 139 158 189 q 224 70 186 89 q 339 51 261 51 q 479 92 426 51 q 532 204 532 133 q 503 279 532 246 q 436 336 475 313 q 321 400 397 360 q 203 469 249 438 q 126 543 157 500 q 94 643 94 586 q 137 774 94 715 q 252 867 179 833 q 414 901 325 901 q 517 894 469 901 q 592 878 564 886 q 626 867 619 869 l 631 858 q 624 819 629 850 q 611 735 618 789 q 600 624 604 681 l 546 618 l 538 625 q 540 651 539 631 q 542 697 542 671 q 506 799 542 771 q 376 826 469 826 q 251 788 300 826 q 201 693 201 750 q 249 597 201 638 q 390 507 297 556 q 528 431 481 461 q 611 357 575 401 q 647 254 647 313 q 603 115 647 176 q 482 18 560 53 q 304 -17 404 -17 m 581 1079 q 472 1041 557 1071 q 294 976 386 1011 l 283 983 l 275 1017 q 442 1107 357 1060 q 551 1168 526 1154 l 564 1160 l 586 1093 l 581 1079 z "},"Š":{"ha":736,"x_min":79,"x_max":647,"o":"m 304 -17 q 197 -6 246 -17 q 117 17 149 4 q 86 31 86 29 l 79 44 q 85 86 81 53 q 92 173 89 119 q 96 286 96 226 l 158 293 q 172 139 158 189 q 224 70 186 89 q 339 51 261 51 q 479 92 426 51 q 532 204 532 133 q 503 279 532 246 q 436 336 475 313 q 321 400 397 360 q 203 469 249 438 q 126 543 157 500 q 94 643 94 586 q 137 774 94 715 q 252 867 179 833 q 414 901 325 901 q 517 894 469 901 q 592 878 564 886 q 626 867 619 869 l 631 858 q 624 819 629 850 q 611 735 618 789 q 600 624 604 681 l 546 618 l 538 625 q 540 651 539 631 q 542 697 542 671 q 506 799 542 771 q 376 826 469 826 q 251 788 300 826 q 201 693 201 750 q 249 597 201 638 q 390 507 297 556 q 528 431 481 461 q 611 357 575 401 q 647 254 647 313 q 603 115 647 176 q 482 18 560 53 q 304 -17 404 -17 m 565 1132 q 449 1041 508 1089 q 374 978 390 993 l 354 978 q 278 1041 338 993 q 163 1132 219 1089 l 182 1163 l 194 1164 q 364 1074 288 1110 q 533 1164 436 1107 l 546 1163 l 565 1132 z "},"Ş":{"ha":736,"x_min":79,"x_max":647,"o":"m 647 254 q 572 78 647 150 q 375 -11 497 6 l 356 -69 q 399 -99 365 -76 q 453 -146 433 -122 q 474 -193 474 -169 q 449 -258 474 -228 q 385 -306 424 -287 q 307 -324 346 -324 q 242 -310 272 -324 q 213 -274 213 -296 q 247 -196 213 -251 l 260 -196 q 282 -254 261 -233 q 336 -275 303 -275 q 383 -260 364 -275 q 403 -222 403 -246 q 371 -174 403 -200 q 285 -118 339 -149 l 315 -17 l 304 -17 q 197 -6 246 -17 q 117 17 149 4 q 86 31 86 29 l 79 44 q 85 86 81 53 q 92 173 89 119 q 96 286 96 226 l 158 293 q 172 139 158 189 q 224 70 186 89 q 339 51 261 51 q 479 92 426 51 q 532 204 532 133 q 503 279 532 246 q 436 336 475 313 q 321 400 397 360 q 203 469 249 438 q 126 543 157 500 q 94 643 94 586 q 137 774 94 715 q 252 867 179 833 q 414 901 325 901 q 517 894 469 901 q 592 878 564 886 q 626 867 619 869 l 631 858 q 624 819 629 850 q 611 735 618 789 q 600 624 604 681 l 546 618 l 538 625 q 540 651 539 631 q 542 697 542 671 q 506 799 542 771 q 376 826 469 826 q 251 788 300 826 q 201 693 201 750 q 249 597 201 638 q 390 507 297 556 q 528 431 481 461 q 611 357 575 401 q 647 254 647 313 z "},"Ŝ":{"ha":736,"x_min":79,"x_max":647,"o":"m 206 1006 q 322 1132 263 1065 q 397 1218 381 1199 l 417 1218 q 492 1131 433 1199 q 608 1006 551 1064 l 589 975 l 576 974 q 436 1086 524 1021 l 407 1108 q 238 974 299 1028 l 225 975 l 206 1006 m 304 -17 q 197 -6 246 -17 q 117 17 149 4 q 86 31 86 29 l 79 44 q 85 86 81 53 q 92 173 89 119 q 96 286 96 226 l 158 293 q 172 139 158 189 q 224 70 186 89 q 339 51 261 51 q 479 92 426 51 q 532 204 532 133 q 503 279 532 246 q 436 336 475 313 q 321 400 397 360 q 203 469 249 438 q 126 543 157 500 q 94 643 94 586 q 137 774 94 715 q 252 867 179 833 q 414 901 325 901 q 517 894 469 901 q 592 878 564 886 q 626 867 619 869 l 631 858 q 624 819 629 850 q 611 735 618 789 q 600 624 604 681 l 546 618 l 538 625 q 540 651 539 631 q 542 697 542 671 q 506 799 542 771 q 376 826 469 826 q 251 788 300 826 q 201 693 201 750 q 249 597 201 638 q 390 507 297 556 q 528 431 481 461 q 611 357 575 401 q 647 254 647 313 q 603 115 647 176 q 482 18 560 53 q 304 -17 404 -17 z "},"Ș":{"ha":736,"x_min":79,"x_max":647,"o":"m 304 -17 q 197 -6 246 -17 q 117 17 149 4 q 86 31 86 29 l 79 44 q 85 86 81 53 q 92 173 89 119 q 96 286 96 226 l 158 293 q 172 139 158 189 q 224 70 186 89 q 339 51 261 51 q 479 92 426 51 q 532 204 532 133 q 503 279 532 246 q 436 336 475 313 q 321 400 397 360 q 203 469 249 438 q 126 543 157 500 q 94 643 94 586 q 137 774 94 715 q 252 867 179 833 q 414 901 325 901 q 517 894 469 901 q 592 878 564 886 q 626 867 619 869 l 631 858 q 624 819 629 850 q 611 735 618 789 q 600 624 604 681 l 546 618 l 538 625 q 540 651 539 631 q 542 697 542 671 q 506 799 542 771 q 376 826 469 826 q 251 788 300 826 q 201 693 201 750 q 249 597 201 638 q 390 507 297 556 q 528 431 481 461 q 611 357 575 401 q 647 254 647 313 q 603 115 647 176 q 482 18 560 53 q 304 -17 404 -17 m 278 -129 q 358 -93 325 -93 q 412 -120 390 -93 q 433 -192 433 -147 q 381 -315 433 -260 q 256 -407 328 -369 l 231 -386 l 231 -372 q 302 -308 274 -346 q 331 -235 331 -269 q 315 -185 331 -208 q 275 -149 300 -162 l 278 -129 z "},"T":{"ha":758,"x_min":13,"x_max":743,"o":"m 324 831 q 163 815 204 825 q 106 775 121 806 q 78 656 90 744 l 13 650 q 23 744 15 671 q 33 890 31 817 l 46 901 l 161 886 l 592 886 l 710 901 l 722 890 q 733 746 725 817 q 743 656 740 675 l 678 650 q 647 774 663 742 q 593 815 632 806 q 443 831 554 825 q 428 536 435 747 q 421 156 421 325 q 439 83 421 104 q 500 61 457 61 q 551 63 531 61 q 576 65 571 64 l 581 60 l 568 -4 q 485 -2 546 -4 q 364 0 424 0 q 250 -2 306 0 q 174 -6 194 -4 l 185 54 q 281 72 254 60 q 315 115 307 83 q 324 225 324 146 l 324 831 z "},"Ŧ":{"ha":758,"x_min":13,"x_max":743,"o":"m 722 890 q 733 746 725 817 q 743 656 740 675 l 678 650 q 647 774 663 742 q 593 815 632 806 q 443 831 554 825 q 426 481 433 746 q 493 483 464 482 q 532 486 522 485 l 550 468 l 544 417 l 425 415 q 421 156 421 281 q 439 83 421 104 q 500 61 457 61 q 551 63 531 61 q 576 65 571 64 l 581 60 l 568 -4 q 485 -2 546 -4 q 364 0 424 0 q 250 -2 306 0 q 174 -6 194 -4 l 185 54 q 281 72 254 60 q 315 115 307 83 q 324 225 324 146 l 324 415 l 194 414 l 182 426 l 192 481 l 324 479 l 324 831 q 163 815 204 825 q 106 775 121 806 q 78 656 90 744 l 13 650 q 23 744 15 671 q 33 890 31 817 l 46 901 l 161 886 l 592 886 l 710 901 l 722 890 z "},"Ť":{"ha":758,"x_min":13,"x_max":743,"o":"m 324 831 q 163 815 204 825 q 106 775 121 806 q 78 656 90 744 l 13 650 q 23 744 15 671 q 33 890 31 817 l 46 901 l 161 886 l 592 886 l 710 901 l 722 890 q 733 746 725 817 q 743 656 740 675 l 678 650 q 647 774 663 742 q 593 815 632 806 q 443 831 554 825 q 428 536 435 747 q 421 156 421 325 q 439 83 421 104 q 500 61 457 61 q 551 63 531 61 q 576 65 571 64 l 581 60 l 568 -4 q 485 -2 546 -4 q 364 0 424 0 q 250 -2 306 0 q 174 -6 194 -4 l 185 54 q 281 72 254 60 q 315 115 307 83 q 324 225 324 146 l 324 831 m 585 1132 q 469 1041 528 1089 q 393 978 410 993 l 374 978 q 298 1041 357 993 q 182 1132 239 1089 l 201 1163 l 214 1164 q 383 1074 307 1110 q 553 1164 456 1107 l 565 1163 l 585 1132 z "},"Ţ":{"ha":758,"x_min":13,"x_max":743,"o":"m 722 890 q 733 746 725 817 q 743 656 740 675 l 678 650 q 647 774 663 742 q 593 815 632 806 q 443 831 554 825 q 428 536 435 747 q 421 156 421 325 q 439 83 421 104 q 500 61 457 61 q 551 63 531 61 q 576 65 571 64 l 581 60 l 568 -4 l 410 0 l 386 -69 q 430 -99 396 -76 q 484 -146 464 -122 q 504 -193 504 -169 q 479 -258 504 -228 q 415 -306 454 -287 q 338 -324 376 -324 q 273 -310 303 -324 q 243 -274 243 -296 q 278 -196 243 -251 l 290 -196 q 313 -254 292 -233 q 367 -275 333 -275 q 414 -260 394 -275 q 433 -222 433 -246 q 401 -174 433 -200 q 315 -118 369 -149 l 351 0 q 250 -2 308 0 q 174 -6 192 -4 l 185 54 q 281 72 254 60 q 315 115 307 83 q 324 225 324 146 l 324 831 q 163 815 204 825 q 106 775 121 806 q 78 656 90 744 l 13 650 q 23 744 15 671 q 33 890 31 817 l 46 901 l 161 886 l 592 886 l 710 901 l 722 890 z "},"Ț":{"ha":758,"x_min":13,"x_max":743,"o":"m 324 831 q 163 815 204 825 q 106 775 121 806 q 78 656 90 744 l 13 650 q 23 744 15 671 q 33 890 31 817 l 46 901 l 161 886 l 592 886 l 710 901 l 722 890 q 733 746 725 817 q 743 656 740 675 l 678 650 q 647 774 663 742 q 593 815 632 806 q 443 831 554 825 q 428 536 435 747 q 421 156 421 325 q 439 83 421 104 q 500 61 457 61 q 551 63 531 61 q 576 65 571 64 l 581 60 l 568 -4 q 485 -2 546 -4 q 364 0 424 0 q 250 -2 306 0 q 174 -6 194 -4 l 185 54 q 281 72 254 60 q 315 115 307 83 q 324 225 324 146 l 324 831 m 326 -129 q 407 -93 374 -93 q 460 -120 439 -93 q 482 -192 482 -147 q 429 -315 482 -260 q 304 -407 376 -369 l 279 -386 l 279 -372 q 351 -308 322 -346 q 379 -235 379 -269 q 364 -185 379 -208 q 324 -149 349 -162 l 326 -129 z "},"U":{"ha":946,"x_min":49,"x_max":900,"o":"m 256 347 q 315 136 256 210 q 488 63 375 63 q 661 123 601 63 q 721 297 721 183 q 717 551 719 408 q 713 750 714 693 q 701 812 710 799 q 661 825 692 825 q 626 824 644 825 q 601 822 608 822 l 599 828 l 608 889 q 672 886 625 888 q 765 885 718 885 q 845 890 803 885 q 900 897 888 894 l 894 835 q 833 822 853 829 q 806 799 813 814 q 799 756 799 785 l 799 289 q 708 63 799 143 q 454 -17 618 -17 q 229 63 308 -17 q 150 290 150 143 l 150 750 q 140 810 150 794 q 99 825 129 825 q 71 824 85 825 q 51 822 57 822 l 49 828 l 58 889 q 122 886 75 888 q 215 885 168 885 q 300 890 253 885 q 361 897 347 894 l 356 835 q 287 812 304 828 q 267 756 269 796 l 256 347 z "},"Ú":{"ha":946,"x_min":49,"x_max":900,"o":"m 256 347 q 315 136 256 210 q 488 63 375 63 q 661 123 601 63 q 721 297 721 183 q 717 551 719 408 q 713 750 714 693 q 701 812 710 799 q 661 825 692 825 q 626 824 644 825 q 601 822 608 822 l 599 828 l 608 889 q 672 886 625 888 q 765 885 718 885 q 845 890 803 885 q 900 897 888 894 l 894 835 q 833 822 853 829 q 806 799 813 814 q 799 756 799 785 l 799 289 q 708 63 799 143 q 454 -17 618 -17 q 229 63 308 -17 q 150 290 150 143 l 150 750 q 140 810 150 794 q 99 825 129 825 q 71 824 85 825 q 51 822 57 822 l 49 828 l 58 889 q 122 886 75 888 q 215 885 168 885 q 300 890 253 885 q 361 897 347 894 l 356 835 q 287 812 304 828 q 267 756 269 796 l 256 347 m 699 1079 q 590 1041 675 1071 q 413 976 504 1011 l 401 983 l 393 1017 q 560 1107 475 1060 q 669 1168 644 1154 l 682 1160 l 704 1093 l 699 1079 z "},"Ŭ":{"ha":946,"x_min":49,"x_max":900,"o":"m 256 347 q 315 136 256 210 q 488 63 375 63 q 661 123 601 63 q 721 297 721 183 q 717 551 719 408 q 713 750 714 693 q 701 812 710 799 q 661 825 692 825 q 626 824 644 825 q 601 822 608 822 l 599 828 l 608 889 q 672 886 625 888 q 765 885 718 885 q 845 890 803 885 q 900 897 888 894 l 894 835 q 833 822 853 829 q 806 799 813 814 q 799 756 799 785 l 799 289 q 708 63 799 143 q 454 -17 618 -17 q 229 63 308 -17 q 150 290 150 143 l 150 750 q 140 810 150 794 q 99 825 129 825 q 71 824 85 825 q 51 822 57 822 l 49 828 l 58 889 q 122 886 75 888 q 215 885 168 885 q 300 890 253 885 q 361 897 347 894 l 356 835 q 287 812 304 828 q 267 756 269 796 l 256 347 m 463 1099 q 543 1122 507 1099 q 596 1190 579 1146 l 607 1190 l 629 1176 q 571 1064 613 1110 q 463 1018 529 1018 q 354 1064 396 1018 q 296 1176 313 1110 l 318 1190 l 329 1190 q 382 1122 346 1146 q 463 1099 418 1099 z "},"Û":{"ha":946,"x_min":49,"x_max":900,"o":"m 256 347 q 315 136 256 210 q 488 63 375 63 q 661 123 601 63 q 721 297 721 183 q 717 551 719 408 q 713 750 714 693 q 701 812 710 799 q 661 825 692 825 q 626 824 644 825 q 601 822 608 822 l 599 828 l 608 889 q 672 886 625 888 q 765 885 718 885 q 845 890 803 885 q 900 897 888 894 l 894 835 q 833 822 853 829 q 806 799 813 814 q 799 756 799 785 l 799 289 q 708 63 799 143 q 454 -17 618 -17 q 229 63 308 -17 q 150 290 150 143 l 150 750 q 140 810 150 794 q 99 825 129 825 q 71 824 85 825 q 51 822 57 822 l 49 828 l 58 889 q 122 886 75 888 q 215 885 168 885 q 300 890 253 885 q 361 897 347 894 l 356 835 q 287 812 304 828 q 267 756 269 796 l 256 347 m 281 1021 q 397 1112 338 1064 q 472 1175 456 1160 l 492 1175 q 567 1112 508 1160 q 683 1021 626 1064 l 664 990 l 651 989 q 482 1079 558 1043 q 313 989 410 1046 l 300 990 l 281 1021 z "},"Ü":{"ha":946,"x_min":49,"x_max":900,"o":"m 256 347 q 315 136 256 210 q 488 63 375 63 q 661 123 601 63 q 721 297 721 183 q 717 551 719 408 q 713 750 714 693 q 701 812 710 799 q 661 825 692 825 q 626 824 644 825 q 601 822 608 822 l 599 828 l 608 889 q 672 886 625 888 q 765 885 718 885 q 845 890 803 885 q 900 897 888 894 l 894 835 q 833 822 853 829 q 806 799 813 814 q 799 756 799 785 l 799 289 q 708 63 799 143 q 454 -17 618 -17 q 229 63 308 -17 q 150 290 150 143 l 150 750 q 140 810 150 794 q 99 825 129 825 q 71 824 85 825 q 51 822 57 822 l 49 828 l 58 889 q 122 886 75 888 q 215 885 168 885 q 300 890 253 885 q 361 897 347 894 l 356 835 q 287 812 304 828 q 267 756 269 796 l 256 347 m 360 1007 q 318 1025 333 1007 q 303 1067 303 1043 q 323 1116 303 1096 q 372 1136 343 1136 q 414 1119 399 1136 q 429 1076 429 1101 q 409 1027 429 1047 q 360 1007 389 1007 m 590 1007 q 549 1025 564 1007 q 533 1067 533 1043 q 553 1116 533 1096 q 603 1136 574 1136 q 644 1119 629 1136 q 660 1076 660 1101 q 640 1027 660 1047 q 590 1007 619 1007 z "},"Ù":{"ha":946,"x_min":49,"x_max":900,"o":"m 256 347 q 315 136 256 210 q 488 63 375 63 q 661 123 601 63 q 721 297 721 183 q 717 551 719 408 q 713 750 714 693 q 701 812 710 799 q 661 825 692 825 q 626 824 644 825 q 601 822 608 822 l 599 828 l 608 889 q 672 886 625 888 q 765 885 718 885 q 845 890 803 885 q 900 897 888 894 l 894 835 q 833 822 853 829 q 806 799 813 814 q 799 756 799 785 l 799 289 q 708 63 799 143 q 454 -17 618 -17 q 229 63 308 -17 q 150 290 150 143 l 150 750 q 140 810 150 794 q 99 825 129 825 q 71 824 85 825 q 51 822 57 822 l 49 828 l 58 889 q 122 886 75 888 q 215 885 168 885 q 300 890 253 885 q 361 897 347 894 l 356 835 q 287 812 304 828 q 267 756 269 796 l 256 347 m 304 1168 q 414 1107 329 1154 q 581 1017 499 1060 l 572 983 l 561 976 q 384 1041 469 1011 q 275 1079 299 1071 l 269 1093 l 292 1160 l 304 1168 z "},"Ű":{"ha":946,"x_min":49,"x_max":900,"o":"m 256 347 q 315 136 256 210 q 488 63 375 63 q 661 123 601 63 q 721 297 721 183 q 717 551 719 408 q 713 750 714 693 q 701 812 710 799 q 661 825 692 825 q 626 824 644 825 q 601 822 608 822 l 599 828 l 608 889 q 672 886 625 888 q 765 885 718 885 q 845 890 803 885 q 900 897 888 894 l 894 835 q 833 822 853 829 q 806 799 813 814 q 799 756 799 785 l 799 289 q 708 63 799 143 q 454 -17 618 -17 q 229 63 308 -17 q 150 290 150 143 l 150 750 q 140 810 150 794 q 99 825 129 825 q 71 824 85 825 q 51 822 57 822 l 49 828 l 58 889 q 122 886 75 888 q 215 885 168 885 q 300 890 253 885 q 361 897 347 894 l 356 835 q 287 812 304 828 q 267 756 269 796 l 256 347 m 600 1085 q 513 1040 581 1075 q 372 964 446 1004 l 361 971 l 349 1000 q 476 1097 411 1046 q 561 1163 542 1147 l 574 1157 l 604 1097 l 600 1085 m 794 1072 q 707 1027 775 1063 q 567 951 639 992 l 557 957 l 543 986 q 677 1089 618 1043 q 756 1150 736 1135 l 768 1143 l 799 1085 l 794 1072 z "},"Ū":{"ha":946,"x_min":49,"x_max":900,"o":"m 256 347 q 315 136 256 210 q 488 63 375 63 q 661 123 601 63 q 721 297 721 183 q 717 551 719 408 q 713 750 714 693 q 701 812 710 799 q 661 825 692 825 q 626 824 644 825 q 601 822 608 822 l 599 828 l 608 889 q 672 886 625 888 q 765 885 718 885 q 845 890 803 885 q 900 897 888 894 l 894 835 q 833 822 853 829 q 806 799 813 814 q 799 756 799 785 l 799 289 q 708 63 799 143 q 454 -17 618 -17 q 229 63 308 -17 q 150 290 150 143 l 150 750 q 140 810 150 794 q 99 825 129 825 q 71 824 85 825 q 51 822 57 822 l 49 828 l 58 889 q 122 886 75 888 q 215 885 168 885 q 300 890 253 885 q 361 897 347 894 l 356 835 q 287 812 304 828 q 267 756 269 796 l 256 347 m 482 1000 l 282 999 l 274 1011 l 288 1074 l 501 1072 q 603 1076 544 1072 q 681 1081 663 1079 l 689 1067 l 679 1001 l 482 1000 z "},"Ų":{"ha":946,"x_min":49,"x_max":900,"o":"m 747 -247 q 722 -269 742 -253 q 671 -304 701 -285 q 608 -335 640 -324 q 496 -299 538 -335 q 454 -204 454 -264 q 484 -119 454 -165 q 585 0 514 -72 q 454 -17 526 -17 q 229 63 308 -17 q 150 290 150 143 l 150 750 q 140 810 150 794 q 99 825 129 825 q 71 824 85 825 q 51 822 57 822 l 49 828 l 58 889 q 122 886 75 888 q 215 885 168 885 q 300 890 253 885 q 361 897 347 894 l 356 835 q 287 812 304 828 q 267 756 269 796 l 256 347 q 315 136 256 210 q 488 63 375 63 q 661 123 601 63 q 721 297 721 183 q 717 551 719 408 q 713 750 714 693 q 706 799 710 785 q 692 819 701 814 q 661 825 682 825 q 626 824 644 825 q 601 822 608 822 l 599 828 l 608 889 q 672 886 625 888 q 765 885 718 885 q 845 890 803 885 q 900 897 888 894 l 894 835 q 832 820 851 828 q 806 799 813 813 q 799 756 799 785 l 799 289 q 707 58 799 150 q 603 -49 638 -10 q 555 -118 568 -89 q 542 -178 542 -147 q 564 -232 542 -211 q 622 -253 586 -253 q 670 -246 646 -253 q 710 -231 694 -239 q 729 -221 725 -224 l 747 -247 z "},"Ů":{"ha":946,"x_min":49,"x_max":900,"o":"m 256 347 q 315 136 256 210 q 488 63 375 63 q 661 123 601 63 q 721 297 721 183 q 717 551 719 408 q 713 750 714 693 q 701 812 710 799 q 661 825 692 825 q 626 824 644 825 q 601 822 608 822 l 599 828 l 608 889 q 672 886 625 888 q 765 885 718 885 q 845 890 803 885 q 900 897 888 894 l 894 835 q 833 822 853 829 q 806 799 813 814 q 799 756 799 785 l 799 289 q 708 63 799 143 q 454 -17 618 -17 q 229 63 308 -17 q 150 290 150 143 l 150 750 q 140 810 150 794 q 99 825 129 825 q 71 824 85 825 q 51 822 57 822 l 49 828 l 58 889 q 122 886 75 888 q 215 885 168 885 q 300 890 253 885 q 361 897 347 894 l 356 835 q 287 812 304 828 q 267 756 269 796 l 256 347 m 475 936 q 397 967 425 936 q 369 1047 369 997 q 401 1131 369 1099 q 486 1164 433 1164 q 567 1133 540 1164 q 593 1058 593 1103 q 561 972 593 1008 q 475 936 529 936 m 485 989 q 546 1043 546 989 q 527 1092 546 1074 q 475 1110 508 1110 q 430 1095 446 1110 q 414 1056 414 1081 q 436 1006 414 1022 q 485 989 458 989 z "},"Ũ":{"ha":946,"x_min":49,"x_max":900,"o":"m 256 347 q 315 136 256 210 q 488 63 375 63 q 661 123 601 63 q 721 297 721 183 q 717 551 719 408 q 713 750 714 693 q 701 812 710 799 q 661 825 692 825 q 626 824 644 825 q 601 822 608 822 l 599 828 l 608 889 q 672 886 625 888 q 765 885 718 885 q 845 890 803 885 q 900 897 888 894 l 894 835 q 833 822 853 829 q 806 799 813 814 q 799 756 799 785 l 799 289 q 708 63 799 143 q 454 -17 618 -17 q 229 63 308 -17 q 150 290 150 143 l 150 750 q 140 810 150 794 q 99 825 129 825 q 71 824 85 825 q 51 822 57 822 l 49 828 l 58 889 q 122 886 75 888 q 215 885 168 885 q 300 890 253 885 q 361 897 347 894 l 356 835 q 287 812 304 828 q 267 756 269 796 l 256 347 m 232 1044 l 338 1168 l 360 1174 q 468 1149 385 1174 q 515 1137 481 1146 q 563 1128 549 1128 q 596 1144 576 1128 q 631 1180 615 1161 q 650 1204 646 1199 l 658 1204 l 689 1175 l 689 1168 l 583 1044 l 561 1039 q 453 1064 536 1039 q 406 1076 440 1067 q 358 1085 372 1085 q 324 1068 343 1085 q 290 1033 304 1051 q 271 1008 275 1014 l 263 1008 l 232 1038 l 232 1044 z "},"V":{"ha":847,"x_min":-12,"x_max":849,"o":"m 118 744 q 75 803 106 785 q -10 824 44 822 l -12 829 l -3 889 q 65 887 15 889 q 158 885 114 885 q 274 891 204 885 q 367 900 344 897 l 371 890 l 365 836 q 266 819 290 831 q 242 778 242 808 q 315 490 242 750 q 417 135 389 229 l 429 135 q 660 774 660 729 q 638 816 660 803 q 564 829 615 829 l 492 829 l 489 835 l 497 894 q 577 889 515 893 q 696 885 639 885 q 791 886 747 885 q 849 889 835 888 l 838 824 q 778 810 794 822 q 746 757 761 797 l 447 7 l 358 -24 q 265 282 338 46 q 118 744 192 518 z "},"W":{"ha":1294,"x_min":-10,"x_max":1293,"o":"m 817 -24 q 752 200 803 25 q 643 565 701 375 l 635 565 l 438 7 l 349 -24 q 259 282 329 46 q 117 744 189 518 q 74 803 104 785 q -8 824 43 822 l -10 829 l -1 889 q 64 887 17 889 q 156 885 111 885 q 278 891 217 885 q 357 900 339 897 l 361 890 l 356 836 q 260 819 285 831 q 236 779 236 808 q 274 612 236 756 q 353 324 313 468 q 407 135 394 179 l 415 135 l 611 668 l 586 744 q 543 803 572 785 q 461 824 514 821 l 458 829 l 468 889 q 533 887 486 889 q 625 885 581 885 q 742 891 678 885 q 826 900 807 897 l 831 890 l 825 836 q 728 819 753 831 q 704 778 704 808 q 776 489 704 749 q 876 135 849 229 l 885 135 q 891 152 888 143 q 899 174 894 161 q 1110 781 1110 740 q 1088 818 1110 807 q 1015 829 1065 829 l 946 829 l 943 835 l 953 894 q 1031 889 971 893 q 1146 885 1090 885 q 1238 886 1196 885 q 1293 889 1279 888 l 1283 824 q 1225 809 1242 821 q 1194 757 1208 797 l 903 7 l 817 -24 z "},"Ẃ":{"ha":1294,"x_min":-10,"x_max":1293,"o":"m 817 -24 q 752 200 803 25 q 643 565 701 375 l 635 565 l 438 7 l 349 -24 q 259 282 329 46 q 117 744 189 518 q 74 803 104 785 q -8 824 43 822 l -10 829 l -1 889 q 64 887 17 889 q 156 885 111 885 q 278 891 217 885 q 357 900 339 897 l 361 890 l 356 836 q 260 819 285 831 q 236 779 236 808 q 274 612 236 756 q 353 324 313 468 q 407 135 394 179 l 415 135 l 611 668 l 586 744 q 543 803 572 785 q 461 824 514 821 l 458 829 l 468 889 q 533 887 486 889 q 625 885 581 885 q 742 891 678 885 q 826 900 807 897 l 831 890 l 825 836 q 728 819 753 831 q 704 778 704 808 q 776 489 704 749 q 876 135 849 229 l 885 135 q 891 152 888 143 q 899 174 894 161 q 1110 781 1110 740 q 1088 818 1110 807 q 1015 829 1065 829 l 946 829 l 943 835 l 953 894 q 1031 889 971 893 q 1146 885 1090 885 q 1238 886 1196 885 q 1293 889 1279 888 l 1283 824 q 1225 809 1242 821 q 1194 757 1208 797 l 903 7 l 817 -24 m 864 1079 q 755 1041 840 1071 q 578 976 669 1011 l 567 983 l 558 1017 q 725 1107 640 1060 q 835 1168 810 1154 l 847 1160 l 869 1093 l 864 1079 z "},"Ŵ":{"ha":1294,"x_min":-10,"x_max":1293,"o":"m 817 -24 q 752 200 803 25 q 643 565 701 375 l 635 565 l 438 7 l 349 -24 q 259 282 329 46 q 117 744 189 518 q 74 803 104 785 q -8 824 43 822 l -10 829 l -1 889 q 64 887 17 889 q 156 885 111 885 q 278 891 217 885 q 357 900 339 897 l 361 890 l 356 836 q 260 819 285 831 q 236 779 236 808 q 274 612 236 756 q 353 324 313 468 q 407 135 394 179 l 415 135 l 611 668 l 586 744 q 543 803 572 785 q 461 824 514 821 l 458 829 l 468 889 q 533 887 486 889 q 625 885 581 885 q 742 891 678 885 q 826 900 807 897 l 831 890 l 825 836 q 728 819 753 831 q 704 778 704 808 q 776 489 704 749 q 876 135 849 229 l 885 135 q 891 152 888 143 q 899 174 894 161 q 1110 781 1110 740 q 1088 818 1110 807 q 1015 829 1065 829 l 946 829 l 943 835 l 953 894 q 1031 889 971 893 q 1146 885 1090 885 q 1238 886 1196 885 q 1293 889 1279 888 l 1283 824 q 1225 809 1242 821 q 1194 757 1208 797 l 903 7 l 817 -24 m 446 1021 q 562 1112 503 1064 q 638 1175 621 1160 l 657 1175 q 733 1112 674 1160 q 849 1021 792 1064 l 829 990 l 817 989 q 647 1079 724 1043 q 478 989 575 1046 l 465 990 l 446 1021 z "},"Ẅ":{"ha":1294,"x_min":-10,"x_max":1293,"o":"m 817 -24 q 752 200 803 25 q 643 565 701 375 l 635 565 l 438 7 l 349 -24 q 259 282 329 46 q 117 744 189 518 q 74 803 104 785 q -8 824 43 822 l -10 829 l -1 889 q 64 887 17 889 q 156 885 111 885 q 278 891 217 885 q 357 900 339 897 l 361 890 l 356 836 q 260 819 285 831 q 236 779 236 808 q 274 612 236 756 q 353 324 313 468 q 407 135 394 179 l 415 135 l 611 668 l 586 744 q 543 803 572 785 q 461 824 514 821 l 458 829 l 468 889 q 533 887 486 889 q 625 885 581 885 q 742 891 678 885 q 826 900 807 897 l 831 890 l 825 836 q 728 819 753 831 q 704 778 704 808 q 776 489 704 749 q 876 135 849 229 l 885 135 q 891 152 888 143 q 899 174 894 161 q 1110 781 1110 740 q 1088 818 1110 807 q 1015 829 1065 829 l 946 829 l 943 835 l 953 894 q 1031 889 971 893 q 1146 885 1090 885 q 1238 886 1196 885 q 1293 889 1279 888 l 1283 824 q 1225 809 1242 821 q 1194 757 1208 797 l 903 7 l 817 -24 m 525 1007 q 483 1025 499 1007 q 468 1067 468 1043 q 488 1116 468 1096 q 538 1136 508 1136 q 579 1119 564 1136 q 594 1076 594 1101 q 574 1027 594 1047 q 525 1007 554 1007 m 756 1007 q 714 1025 729 1007 q 699 1067 699 1043 q 719 1116 699 1096 q 768 1136 739 1136 q 810 1119 794 1136 q 825 1076 825 1101 q 805 1027 825 1047 q 756 1007 785 1007 z "},"Ẁ":{"ha":1294,"x_min":-10,"x_max":1293,"o":"m 817 -24 q 752 200 803 25 q 643 565 701 375 l 635 565 l 438 7 l 349 -24 q 259 282 329 46 q 117 744 189 518 q 74 803 104 785 q -8 824 43 822 l -10 829 l -1 889 q 64 887 17 889 q 156 885 111 885 q 278 891 217 885 q 357 900 339 897 l 361 890 l 356 836 q 260 819 285 831 q 236 779 236 808 q 274 612 236 756 q 353 324 313 468 q 407 135 394 179 l 415 135 l 611 668 l 586 744 q 543 803 572 785 q 461 824 514 821 l 458 829 l 468 889 q 533 887 486 889 q 625 885 581 885 q 742 891 678 885 q 826 900 807 897 l 831 890 l 825 836 q 728 819 753 831 q 704 778 704 808 q 776 489 704 749 q 876 135 849 229 l 885 135 q 891 152 888 143 q 899 174 894 161 q 1110 781 1110 740 q 1088 818 1110 807 q 1015 829 1065 829 l 946 829 l 943 835 l 953 894 q 1031 889 971 893 q 1146 885 1090 885 q 1238 886 1196 885 q 1293 889 1279 888 l 1283 824 q 1225 809 1242 821 q 1194 757 1208 797 l 903 7 l 817 -24 m 469 1168 q 579 1107 494 1154 q 746 1017 664 1060 l 738 983 l 726 976 q 549 1041 635 1011 q 440 1079 464 1071 l 435 1093 l 457 1160 l 469 1168 z "},"X":{"ha":911,"x_min":17,"x_max":904,"o":"m 251 253 q 132 122 181 165 q 26 61 83 78 l 17 4 l 22 -6 q 81 -2 36 -4 q 160 0 126 0 q 244 -4 192 0 q 313 -10 296 -8 l 322 50 l 319 56 q 258 69 278 58 q 239 97 239 79 q 253 140 239 117 q 310 221 267 164 l 438 390 l 589 163 q 617 101 617 122 q 591 67 617 78 q 508 53 565 56 l 503 -1 l 507 -11 q 601 -5 529 -10 q 722 0 674 0 q 826 -1 776 0 q 894 -4 876 -3 l 904 56 l 901 61 q 792 94 836 67 q 711 176 749 121 l 508 472 l 676 685 q 772 790 739 763 q 865 829 806 817 l 874 881 l 868 890 q 810 887 854 889 q 733 885 767 885 q 649 889 701 885 q 581 894 597 893 l 572 840 l 575 835 q 637 821 618 831 q 656 793 656 811 q 621 723 656 774 q 526 594 586 672 l 474 524 q 355 709 393 646 q 317 788 317 772 q 342 822 317 810 q 425 838 367 833 l 429 886 l 425 896 q 358 890 411 894 q 238 885 306 885 q 119 887 179 885 q 38 889 60 889 l 29 835 l 32 829 q 142 793 96 821 q 222 714 188 765 l 404 442 l 251 253 z "},"Y":{"ha":747,"x_min":-26,"x_max":775,"o":"m 226 788 q 261 689 226 769 q 333 531 296 608 q 382 429 369 453 l 389 429 l 547 724 q 569 793 569 764 q 482 835 569 829 l 479 840 l 488 894 q 557 889 504 893 q 642 885 610 885 q 716 887 675 885 q 769 890 757 889 l 775 881 l 767 829 q 697 806 722 821 q 653 765 672 792 q 599 674 635 738 q 585 649 590 657 l 446 404 q 423 332 428 372 q 415 186 418 292 l 415 156 q 427 81 414 101 q 476 61 440 61 q 518 63 499 61 q 544 65 538 64 l 547 60 l 535 -4 q 463 -1 515 -3 q 358 0 411 0 q 265 -7 315 0 q 200 -17 215 -14 l 208 47 q 281 72 258 57 q 310 114 303 88 q 317 197 317 140 l 317 258 q 308 334 317 301 q 276 415 300 367 l 151 669 q 100 769 115 743 q 57 810 85 794 q -24 829 29 825 l -26 835 l -18 889 q 40 886 -3 888 q 135 885 83 885 q 248 890 183 885 q 332 896 313 894 l 336 886 l 332 838 q 248 822 269 832 q 226 788 226 811 z "},"Ý":{"ha":747,"x_min":-26,"x_max":775,"o":"m 226 788 q 261 689 226 769 q 333 531 296 608 q 382 429 369 453 l 389 429 l 547 724 q 569 793 569 764 q 482 835 569 829 l 479 840 l 488 894 q 557 889 504 893 q 642 885 610 885 q 716 887 675 885 q 769 890 757 889 l 775 881 l 767 829 q 697 806 722 821 q 653 765 672 792 q 599 674 635 738 q 585 649 590 657 l 446 404 q 423 332 428 372 q 415 186 418 292 l 415 156 q 427 81 414 101 q 476 61 440 61 q 518 63 499 61 q 544 65 538 64 l 547 60 l 535 -4 q 463 -1 515 -3 q 358 0 411 0 q 265 -7 315 0 q 200 -17 215 -14 l 208 47 q 281 72 258 57 q 310 114 303 88 q 317 197 317 140 l 317 258 q 308 334 317 301 q 276 415 300 367 l 151 669 q 100 769 115 743 q 57 810 85 794 q -24 829 29 825 l -26 835 l -18 889 q 40 886 -3 888 q 135 885 83 885 q 248 890 183 885 q 332 896 313 894 l 336 886 l 332 838 q 248 822 269 832 q 226 788 226 811 m 613 1079 q 503 1041 589 1071 q 326 976 418 1011 l 315 983 l 307 1017 q 474 1107 389 1060 q 583 1168 558 1154 l 596 1160 l 618 1093 l 613 1079 z "},"Ŷ":{"ha":747,"x_min":-26,"x_max":775,"o":"m 226 788 q 261 689 226 769 q 333 531 296 608 q 382 429 369 453 l 389 429 l 547 724 q 569 793 569 764 q 482 835 569 829 l 479 840 l 488 894 q 557 889 504 893 q 642 885 610 885 q 716 887 675 885 q 769 890 757 889 l 775 881 l 767 829 q 697 806 722 821 q 653 765 672 792 q 599 674 635 738 q 585 649 590 657 l 446 404 q 423 332 428 372 q 415 186 418 292 l 415 156 q 427 81 414 101 q 476 61 440 61 q 518 63 499 61 q 544 65 538 64 l 547 60 l 535 -4 q 463 -1 515 -3 q 358 0 411 0 q 265 -7 315 0 q 200 -17 215 -14 l 208 47 q 281 72 258 57 q 310 114 303 88 q 317 197 317 140 l 317 258 q 308 334 317 301 q 276 415 300 367 l 151 669 q 100 769 115 743 q 57 810 85 794 q -24 829 29 825 l -26 835 l -18 889 q 40 886 -3 888 q 135 885 83 885 q 248 890 183 885 q 332 896 313 894 l 336 886 l 332 838 q 248 822 269 832 q 226 788 226 811 m 194 1021 q 310 1112 251 1064 q 386 1175 369 1160 l 406 1175 q 481 1112 422 1160 q 597 1021 540 1064 l 578 990 l 565 989 q 396 1079 472 1043 q 226 989 324 1046 l 214 990 l 194 1021 z "},"Ÿ":{"ha":747,"x_min":-26,"x_max":775,"o":"m 226 788 q 261 689 226 769 q 333 531 296 608 q 382 429 369 453 l 389 429 l 547 724 q 569 793 569 764 q 482 835 569 829 l 479 840 l 488 894 q 557 889 504 893 q 642 885 610 885 q 716 887 675 885 q 769 890 757 889 l 775 881 l 767 829 q 697 806 722 821 q 653 765 672 792 q 599 674 635 738 q 585 649 590 657 l 446 404 q 423 332 428 372 q 415 186 418 292 l 415 156 q 427 81 414 101 q 476 61 440 61 q 518 63 499 61 q 544 65 538 64 l 547 60 l 535 -4 q 463 -1 515 -3 q 358 0 411 0 q 265 -7 315 0 q 200 -17 215 -14 l 208 47 q 281 72 258 57 q 310 114 303 88 q 317 197 317 140 l 317 258 q 308 334 317 301 q 276 415 300 367 l 151 669 q 100 769 115 743 q 57 810 85 794 q -24 829 29 825 l -26 835 l -18 889 q 40 886 -3 888 q 135 885 83 885 q 248 890 183 885 q 332 896 313 894 l 336 886 l 332 838 q 248 822 269 832 q 226 788 226 811 m 274 1007 q 232 1025 247 1007 q 217 1067 217 1043 q 237 1116 217 1096 q 286 1136 257 1136 q 328 1119 313 1136 q 343 1076 343 1101 q 323 1027 343 1047 q 274 1007 303 1007 m 504 1007 q 463 1025 478 1007 q 447 1067 447 1043 q 467 1116 447 1096 q 517 1136 488 1136 q 558 1119 543 1136 q 574 1076 574 1101 q 553 1027 574 1047 q 504 1007 533 1007 z "},"Ỳ":{"ha":747,"x_min":-26,"x_max":775,"o":"m 226 788 q 261 689 226 769 q 333 531 296 608 q 382 429 369 453 l 389 429 l 547 724 q 569 793 569 764 q 482 835 569 829 l 479 840 l 488 894 q 557 889 504 893 q 642 885 610 885 q 716 887 675 885 q 769 890 757 889 l 775 881 l 767 829 q 697 806 722 821 q 653 765 672 792 q 599 674 635 738 q 585 649 590 657 l 446 404 q 423 332 428 372 q 415 186 418 292 l 415 156 q 427 81 414 101 q 476 61 440 61 q 518 63 499 61 q 544 65 538 64 l 547 60 l 535 -4 q 463 -1 515 -3 q 358 0 411 0 q 265 -7 315 0 q 200 -17 215 -14 l 208 47 q 281 72 258 57 q 310 114 303 88 q 317 197 317 140 l 317 258 q 308 334 317 301 q 276 415 300 367 l 151 669 q 100 769 115 743 q 57 810 85 794 q -24 829 29 825 l -26 835 l -18 889 q 40 886 -3 888 q 135 885 83 885 q 248 890 183 885 q 332 896 313 894 l 336 886 l 332 838 q 248 822 269 832 q 226 788 226 811 m 218 1168 q 328 1107 243 1154 q 494 1017 413 1060 l 486 983 l 475 976 q 298 1041 383 1011 q 189 1079 213 1071 l 183 1093 l 206 1160 l 218 1168 z "},"Z":{"ha":789,"x_min":47,"x_max":728,"o":"m 67 -4 l 47 40 l 565 824 l 325 815 q 222 794 260 813 q 165 735 185 775 q 138 624 146 694 l 72 618 q 79 667 74 629 q 90 769 85 706 q 97 889 96 832 l 111 901 l 354 886 l 713 876 l 728 836 q 192 56 463 483 l 474 65 q 590 122 546 67 q 657 296 635 178 l 722 303 q 713 251 719 290 q 699 144 707 211 q 688 18 690 78 l 667 -4 l 164 4 l 67 -4 z "},"Ź":{"ha":789,"x_min":47,"x_max":728,"o":"m 67 -4 l 47 40 l 565 824 l 325 815 q 222 794 260 813 q 165 735 185 775 q 138 624 146 694 l 72 618 q 79 667 74 629 q 90 769 85 706 q 97 889 96 832 l 111 901 l 354 886 l 713 876 l 728 836 q 192 56 463 483 l 474 65 q 590 122 546 67 q 657 296 635 178 l 722 303 q 713 251 719 290 q 699 144 707 211 q 688 18 690 78 l 667 -4 l 164 4 l 67 -4 m 622 1079 q 513 1041 599 1071 q 336 976 428 1011 l 325 983 l 317 1017 q 483 1107 399 1060 q 593 1168 568 1154 l 606 1160 l 628 1093 l 622 1079 z "},"Ž":{"ha":789,"x_min":47,"x_max":728,"o":"m 67 -4 l 47 40 l 565 824 l 325 815 q 222 794 260 813 q 165 735 185 775 q 138 624 146 694 l 72 618 q 79 667 74 629 q 90 769 85 706 q 97 889 96 832 l 111 901 l 354 886 l 713 876 l 728 836 q 192 56 463 483 l 474 65 q 590 122 546 67 q 657 296 635 178 l 722 303 q 713 251 719 290 q 699 144 707 211 q 688 18 690 78 l 667 -4 l 164 4 l 67 -4 m 607 1132 q 491 1041 550 1089 q 415 978 432 993 l 396 978 q 320 1041 379 993 q 204 1132 261 1089 l 224 1163 l 236 1164 q 406 1074 329 1110 q 575 1164 478 1107 l 588 1163 l 607 1132 z "},"Ż":{"ha":789,"x_min":47,"x_max":728,"o":"m 67 -4 l 47 40 l 565 824 l 325 815 q 222 794 260 813 q 165 735 185 775 q 138 624 146 694 l 72 618 q 79 667 74 629 q 90 769 85 706 q 97 889 96 832 l 111 901 l 354 886 l 713 876 l 728 836 q 192 56 463 483 l 474 65 q 590 122 546 67 q 657 296 635 178 l 722 303 q 713 251 719 290 q 699 144 707 211 q 688 18 690 78 l 667 -4 l 164 4 l 67 -4 m 399 999 q 349 1019 367 999 q 331 1069 331 1040 q 354 1127 331 1103 q 413 1151 378 1151 q 463 1131 444 1151 q 481 1081 481 1110 q 457 1023 481 1047 q 399 999 433 999 z "},"a":{"ha":647,"x_min":57,"x_max":638,"o":"m 396 406 q 364 514 396 475 q 274 553 332 553 q 188 533 235 553 q 107 483 140 514 l 100 488 l 83 547 q 219 617 154 589 q 310 644 283 644 q 451 597 400 644 q 503 465 503 550 q 493 340 503 435 q 478 146 478 188 q 493 99 478 115 q 535 82 508 82 q 577 92 554 82 q 618 117 600 101 l 638 94 q 581 24 615 56 q 517 -17 547 -7 q 393 96 404 -17 l 388 97 q 297 18 338 47 q 235 -11 256 -11 q 107 38 157 -11 q 57 161 57 86 q 77 232 57 201 q 131 272 97 263 l 393 344 l 396 406 m 203 235 q 163 176 163 222 q 190 110 163 136 q 258 83 217 83 q 320 102 285 83 q 385 150 356 121 l 390 292 l 203 235 z "},"á":{"ha":647,"x_min":57,"x_max":638,"o":"m 396 406 q 364 514 396 475 q 274 553 332 553 q 188 533 235 553 q 107 483 140 514 l 100 488 l 83 547 q 219 617 154 589 q 310 644 283 644 q 451 597 400 644 q 503 465 503 550 q 493 340 503 435 q 478 146 478 188 q 493 99 478 115 q 535 82 508 82 q 577 92 554 82 q 618 117 600 101 l 638 94 q 581 24 615 56 q 517 -17 547 -7 q 393 96 404 -17 l 388 97 q 297 18 338 47 q 235 -11 256 -11 q 107 38 157 -11 q 57 161 57 86 q 77 232 57 201 q 131 272 97 263 l 393 344 l 396 406 m 203 235 q 163 176 163 222 q 190 110 163 136 q 258 83 217 83 q 320 102 285 83 q 385 150 356 121 l 390 292 l 203 235 m 481 918 q 390 846 460 903 q 247 724 319 789 l 235 726 l 207 753 q 333 896 269 821 q 415 993 397 971 l 429 990 l 482 933 l 481 918 z "},"ă":{"ha":647,"x_min":57,"x_max":638,"o":"m 396 406 q 364 514 396 475 q 274 553 332 553 q 188 533 235 553 q 107 483 140 514 l 100 488 l 83 547 q 219 617 154 589 q 310 644 283 644 q 451 597 400 644 q 503 465 503 550 q 493 340 503 435 q 478 146 478 188 q 493 99 478 115 q 535 82 508 82 q 577 92 554 82 q 618 117 600 101 l 638 94 q 581 24 615 56 q 517 -17 547 -7 q 393 96 404 -17 l 388 97 q 297 18 338 47 q 235 -11 256 -11 q 107 38 157 -11 q 57 161 57 86 q 77 232 57 201 q 131 272 97 263 l 393 344 l 396 406 m 203 235 q 163 176 163 222 q 190 110 163 136 q 258 83 217 83 q 320 102 285 83 q 385 150 356 121 l 390 292 l 203 235 m 306 856 q 386 879 350 856 q 439 947 422 903 l 450 947 l 472 933 q 414 821 456 867 q 306 775 372 775 q 197 821 239 775 q 139 933 156 867 l 161 947 l 172 947 q 225 879 189 903 q 306 856 261 856 z "},"â":{"ha":647,"x_min":57,"x_max":638,"o":"m 396 406 q 364 514 396 475 q 274 553 332 553 q 188 533 235 553 q 107 483 140 514 l 100 488 l 83 547 q 219 617 154 589 q 310 644 283 644 q 451 597 400 644 q 503 465 503 550 q 493 340 503 435 q 478 146 478 188 q 493 99 478 115 q 535 82 508 82 q 577 92 554 82 q 618 117 600 101 l 638 94 q 581 24 615 56 q 517 -17 547 -7 q 393 96 404 -17 l 388 97 q 297 18 338 47 q 235 -11 256 -11 q 107 38 157 -11 q 57 161 57 86 q 77 232 57 201 q 131 272 97 263 l 393 344 l 396 406 m 203 235 q 163 176 163 222 q 190 110 163 136 q 258 83 217 83 q 320 102 285 83 q 385 150 356 121 l 390 292 l 203 235 m 101 764 q 217 890 158 824 q 293 976 276 957 l 313 976 q 388 890 329 957 q 504 764 447 822 l 485 733 l 472 732 q 332 844 419 779 l 303 867 q 133 732 194 786 l 121 733 l 101 764 z "},"ä":{"ha":647,"x_min":57,"x_max":638,"o":"m 396 406 q 364 514 396 475 q 274 553 332 553 q 188 533 235 553 q 107 483 140 514 l 100 488 l 83 547 q 219 617 154 589 q 310 644 283 644 q 451 597 400 644 q 503 465 503 550 q 493 340 503 435 q 478 146 478 188 q 493 99 478 115 q 535 82 508 82 q 577 92 554 82 q 618 117 600 101 l 638 94 q 581 24 615 56 q 517 -17 547 -7 q 393 96 404 -17 l 388 97 q 297 18 338 47 q 235 -11 256 -11 q 107 38 157 -11 q 57 161 57 86 q 77 232 57 201 q 131 272 97 263 l 393 344 l 396 406 m 203 235 q 163 176 163 222 q 190 110 163 136 q 258 83 217 83 q 320 102 285 83 q 385 150 356 121 l 390 292 l 203 235 m 179 786 q 138 804 153 786 q 122 846 122 822 q 142 895 122 875 q 192 915 163 915 q 233 898 218 915 q 249 856 249 881 q 228 806 249 826 q 179 786 208 786 m 410 786 q 368 804 383 786 q 353 846 353 822 q 373 895 353 875 q 422 915 393 915 q 464 898 449 915 q 479 856 479 881 q 459 806 479 826 q 410 786 439 786 z "},"à":{"ha":647,"x_min":57,"x_max":638,"o":"m 396 406 q 364 514 396 475 q 274 553 332 553 q 188 533 235 553 q 107 483 140 514 l 100 488 l 83 547 q 219 617 154 589 q 310 644 283 644 q 451 597 400 644 q 503 465 503 550 q 493 340 503 435 q 478 146 478 188 q 493 99 478 115 q 535 82 508 82 q 577 92 554 82 q 618 117 600 101 l 638 94 q 581 24 615 56 q 517 -17 547 -7 q 393 96 404 -17 l 388 97 q 297 18 338 47 q 235 -11 256 -11 q 107 38 157 -11 q 57 161 57 86 q 77 232 57 201 q 131 272 97 263 l 393 344 l 396 406 m 203 235 q 163 176 163 222 q 190 110 163 136 q 258 83 217 83 q 320 102 285 83 q 385 150 356 121 l 390 292 l 203 235 m 194 992 q 276 895 213 969 q 403 753 340 821 l 375 726 l 363 724 q 219 846 289 790 q 129 917 150 901 l 128 932 l 181 989 l 194 992 z "},"ā":{"ha":647,"x_min":57,"x_max":638,"o":"m 396 406 q 364 514 396 475 q 274 553 332 553 q 188 533 235 553 q 107 483 140 514 l 100 488 l 83 547 q 219 617 154 589 q 310 644 283 644 q 451 597 400 644 q 503 465 503 550 q 493 340 503 435 q 478 146 478 188 q 493 99 478 115 q 535 82 508 82 q 577 92 554 82 q 618 117 600 101 l 638 94 q 581 24 615 56 q 517 -17 547 -7 q 393 96 404 -17 l 388 97 q 297 18 338 47 q 235 -11 256 -11 q 107 38 157 -11 q 57 161 57 86 q 77 232 57 201 q 131 272 97 263 l 393 344 l 396 406 m 203 235 q 163 176 163 222 q 190 110 163 136 q 258 83 217 83 q 320 102 285 83 q 385 150 356 121 l 390 292 l 203 235 m 303 826 l 103 825 l 94 838 l 108 900 l 322 899 q 424 902 365 899 q 501 907 483 906 l 510 893 l 500 828 l 303 826 z "},"ą":{"ha":647,"x_min":57,"x_max":657,"o":"m 657 -247 q 631 -269 651 -253 q 581 -304 611 -285 q 518 -335 550 -324 q 406 -299 447 -335 q 364 -204 364 -264 q 391 -123 364 -167 q 482 -12 418 -79 q 419 22 442 -7 q 393 96 396 50 l 388 97 q 297 18 338 47 q 235 -11 256 -11 q 107 38 157 -11 q 57 161 57 86 q 77 232 57 201 q 131 272 97 263 l 393 344 l 396 406 q 364 514 396 475 q 274 553 332 553 q 197 538 233 553 q 133 503 160 522 q 107 483 107 485 l 100 488 l 83 547 q 139 578 96 554 q 233 623 182 601 q 310 644 283 644 q 358 640 336 644 q 465 583 428 629 q 503 465 503 538 q 497 394 503 451 l 489 304 q 480 196 482 226 q 478 146 478 165 q 493 99 478 115 q 535 82 508 82 q 573 90 554 82 q 603 106 592 97 q 618 117 615 114 l 640 90 q 491 -81 531 -25 q 451 -178 451 -137 q 474 -232 451 -211 q 532 -253 496 -253 q 580 -246 556 -253 q 619 -231 604 -239 q 639 -221 635 -224 l 657 -247 m 203 235 q 163 176 163 219 q 190 110 163 136 q 258 83 217 83 q 320 102 285 83 q 385 150 356 121 l 390 292 l 203 235 z "},"å":{"ha":647,"x_min":57,"x_max":638,"o":"m 396 406 q 364 514 396 475 q 274 553 332 553 q 188 533 235 553 q 107 483 140 514 l 100 488 l 83 547 q 219 617 154 589 q 310 644 283 644 q 451 597 400 644 q 503 465 503 550 q 493 340 503 435 q 478 146 478 188 q 493 99 478 115 q 535 82 508 82 q 577 92 554 82 q 618 117 600 101 l 638 94 q 581 24 615 56 q 517 -17 547 -7 q 393 96 404 -17 l 388 97 q 297 18 338 47 q 235 -11 256 -11 q 107 38 157 -11 q 57 161 57 86 q 77 232 57 201 q 131 272 97 263 l 393 344 l 396 406 m 203 235 q 163 176 163 222 q 190 110 163 136 q 258 83 217 83 q 320 102 285 83 q 385 150 356 121 l 390 292 l 203 235 m 296 756 q 218 786 246 756 q 190 867 190 817 q 222 951 190 918 q 307 983 254 983 q 388 953 361 983 q 414 878 414 922 q 382 792 414 828 q 296 756 350 756 m 306 808 q 367 863 367 808 q 348 911 367 893 q 296 929 329 929 q 251 915 267 929 q 235 875 235 900 q 257 825 235 842 q 306 808 279 808 z "},"ǻ":{"ha":647,"x_min":57,"x_max":638,"o":"m 396 406 q 364 514 396 475 q 274 553 332 553 q 188 533 235 553 q 107 483 140 514 l 100 488 l 83 547 q 219 617 154 589 q 310 644 283 644 q 451 597 400 644 q 503 465 503 550 q 493 340 503 435 q 478 146 478 188 q 493 99 478 115 q 535 82 508 82 q 577 92 554 82 q 618 117 600 101 l 638 94 q 581 24 615 56 q 517 -17 547 -7 q 393 96 404 -17 l 388 97 q 297 18 338 47 q 235 -11 256 -11 q 107 38 157 -11 q 57 161 57 86 q 77 232 57 201 q 131 272 97 263 l 393 344 l 396 406 m 203 235 q 163 176 163 222 q 190 110 163 136 q 258 83 217 83 q 320 102 285 83 q 385 150 356 121 l 390 292 l 203 235 m 321 663 q 250 690 275 663 q 225 763 225 718 q 254 839 225 809 q 331 868 283 868 q 403 841 379 868 q 427 773 427 813 q 398 695 427 728 q 321 663 369 663 m 329 710 q 384 759 384 710 q 367 803 384 787 q 321 819 351 819 q 280 806 294 819 q 265 771 265 793 q 286 725 265 740 q 329 710 306 710 m 473 963 q 375 929 452 955 q 215 870 298 902 l 205 877 l 198 907 q 348 988 272 945 q 447 1043 424 1030 l 458 1035 l 478 975 l 473 963 z "},"ã":{"ha":647,"x_min":57,"x_max":638,"o":"m 396 406 q 364 514 396 475 q 274 553 332 553 q 188 533 235 553 q 107 483 140 514 l 100 488 l 83 547 q 219 617 154 589 q 310 644 283 644 q 451 597 400 644 q 503 465 503 550 q 493 340 503 435 q 478 146 478 188 q 493 99 478 115 q 535 82 508 82 q 577 92 554 82 q 618 117 600 101 l 638 94 q 581 24 615 56 q 517 -17 547 -7 q 393 96 404 -17 l 388 97 q 297 18 338 47 q 235 -11 256 -11 q 107 38 157 -11 q 57 161 57 86 q 77 232 57 201 q 131 272 97 263 l 393 344 l 396 406 m 203 235 q 163 176 163 222 q 190 110 163 136 q 258 83 217 83 q 320 102 285 83 q 385 150 356 121 l 390 292 l 203 235 m 74 801 l 179 925 l 201 931 q 310 906 226 931 q 356 894 322 903 q 404 885 390 885 q 438 901 418 885 q 472 937 457 918 q 492 961 488 956 l 500 961 l 531 932 l 531 925 l 425 801 l 403 796 q 294 821 378 796 q 248 833 282 824 q 200 842 214 842 q 165 825 185 842 q 131 790 146 808 q 113 765 117 771 l 104 765 l 74 794 l 74 801 z "},"æ":{"ha":907,"x_min":42,"x_max":879,"o":"m 879 78 q 834 48 869 71 q 751 4 799 25 q 667 -17 704 -17 q 513 22 579 -17 q 413 132 446 61 q 307 36 358 74 q 219 -11 256 -1 q 92 38 142 -11 q 42 161 42 86 q 62 231 42 201 q 115 271 82 261 l 381 343 l 382 413 q 351 519 382 482 q 263 557 321 557 q 184 540 222 557 q 119 504 146 524 q 92 483 92 485 l 85 488 l 68 547 q 124 578 81 554 q 218 623 168 601 q 294 644 268 644 q 467 533 431 644 q 563 615 507 586 q 678 644 618 644 q 817 592 767 644 q 868 447 868 540 q 867 431 868 438 q 865 421 865 424 l 853 401 l 478 313 q 542 139 485 206 q 685 72 600 72 q 760 83 722 72 q 823 106 797 94 q 856 121 849 117 l 864 118 l 879 78 m 719 433 q 747 458 747 442 q 718 535 747 504 q 646 567 689 567 q 523 513 569 567 q 476 374 476 460 l 476 364 l 719 433 m 188 235 q 154 213 165 229 q 143 176 143 197 q 171 108 143 138 q 236 79 199 79 q 396 174 294 79 q 379 292 379 226 l 188 235 z "},"ǽ":{"ha":907,"x_min":42,"x_max":879,"o":"m 879 78 q 834 48 869 71 q 751 4 799 25 q 667 -17 704 -17 q 513 22 579 -17 q 413 132 446 61 q 307 36 358 74 q 219 -11 256 -1 q 92 38 142 -11 q 42 161 42 86 q 62 231 42 201 q 115 271 82 261 l 381 343 l 382 413 q 351 519 382 482 q 263 557 321 557 q 184 540 222 557 q 119 504 146 524 q 92 483 92 485 l 85 488 l 68 547 q 124 578 81 554 q 218 623 168 601 q 294 644 268 644 q 467 533 431 644 q 563 615 507 586 q 678 644 618 644 q 817 592 767 644 q 868 447 868 540 q 867 431 868 438 q 865 421 865 424 l 853 401 l 478 313 q 542 139 485 206 q 685 72 600 72 q 760 83 722 72 q 823 106 797 94 q 856 121 849 117 l 864 118 l 879 78 m 719 433 q 747 458 747 442 q 718 535 747 504 q 646 567 689 567 q 523 513 569 567 q 476 374 476 460 l 476 364 l 719 433 m 188 235 q 154 213 165 229 q 143 176 143 197 q 171 108 143 138 q 236 79 199 79 q 396 174 294 79 q 379 292 379 226 l 188 235 m 667 918 q 576 846 646 903 q 433 724 506 789 l 421 726 l 393 753 q 519 896 456 821 q 601 993 583 971 l 615 990 l 668 933 l 667 918 z "},"b":{"ha":706,"x_min":32,"x_max":656,"o":"m 118 869 q 67 944 118 944 q 47 943 56 944 q 36 940 39 942 l 32 944 l 38 990 q 161 1013 97 999 q 243 1031 225 1026 l 251 1013 q 233 872 242 999 q 219 547 225 744 q 327 618 282 592 q 388 644 372 644 q 526 607 465 644 q 622 502 588 569 q 656 347 656 435 q 609 164 656 247 q 483 32 563 81 q 310 -17 404 -17 q 191 -9 251 -17 q 131 0 131 -1 l 118 11 l 118 869 m 213 89 q 276 68 238 76 q 349 60 315 60 q 495 123 442 60 q 549 296 549 186 q 524 424 549 365 q 458 516 500 482 q 365 550 415 550 q 294 528 338 550 q 217 475 251 507 l 213 89 z "},"c":{"ha":589,"x_min":50,"x_max":538,"o":"m 531 76 q 488 47 521 69 q 413 4 456 25 q 340 -17 371 -17 q 129 67 208 -17 q 50 290 50 150 q 92 470 50 389 q 208 598 135 551 q 371 644 281 644 q 446 639 410 644 q 505 627 482 633 q 533 618 528 621 l 538 608 q 530 576 536 601 q 517 508 524 550 q 508 417 510 465 l 451 413 l 451 456 q 420 538 451 507 q 338 569 389 569 q 207 509 253 569 q 161 338 161 449 q 212 147 161 217 q 350 76 263 76 q 419 87 385 76 q 478 108 454 97 q 507 122 501 118 l 515 119 l 531 76 z "},"ć":{"ha":589,"x_min":50,"x_max":538,"o":"m 531 76 q 488 47 521 69 q 413 4 456 25 q 340 -17 371 -17 q 129 67 208 -17 q 50 290 50 150 q 92 470 50 389 q 208 598 135 551 q 371 644 281 644 q 446 639 410 644 q 505 627 482 633 q 533 618 528 621 l 538 608 q 530 576 536 601 q 517 508 524 550 q 508 417 510 465 l 451 413 l 451 456 q 420 538 451 507 q 338 569 389 569 q 207 509 253 569 q 161 338 161 449 q 212 147 161 217 q 350 76 263 76 q 419 87 385 76 q 478 108 454 97 q 507 122 501 118 l 515 119 l 531 76 m 517 918 q 426 846 496 903 q 283 724 356 789 l 271 726 l 243 753 q 369 896 306 821 q 451 993 433 971 l 465 990 l 518 933 l 517 918 z "},"č":{"ha":589,"x_min":50,"x_max":551,"o":"m 531 76 q 488 47 521 69 q 413 4 456 25 q 340 -17 371 -17 q 129 67 208 -17 q 50 290 50 150 q 92 470 50 389 q 208 598 135 551 q 371 644 281 644 q 446 639 410 644 q 505 627 482 633 q 533 618 528 621 l 538 608 q 530 576 536 601 q 517 508 524 550 q 508 417 510 465 l 451 413 l 451 456 q 420 538 451 507 q 338 569 389 569 q 207 509 253 569 q 161 338 161 449 q 212 147 161 217 q 350 76 263 76 q 419 87 385 76 q 478 108 454 97 q 507 122 501 118 l 515 119 l 531 76 m 163 986 q 340 846 246 914 q 518 986 456 932 l 529 985 l 551 953 q 430 822 492 892 q 350 731 368 751 l 331 731 q 251 822 313 751 q 129 953 189 892 l 151 985 l 163 986 z "},"ç":{"ha":589,"x_min":50,"x_max":538,"o":"m 531 76 q 492 49 522 69 q 423 9 463 29 q 353 -15 383 -11 l 335 -69 q 378 -99 344 -76 q 433 -146 413 -122 q 453 -193 453 -169 q 428 -258 453 -228 q 364 -306 403 -287 q 286 -324 325 -324 q 222 -310 251 -324 q 192 -274 192 -296 q 226 -196 192 -251 l 239 -196 q 261 -254 240 -233 q 315 -275 282 -275 q 363 -260 343 -275 q 382 -222 382 -246 q 350 -174 382 -200 q 264 -118 318 -149 l 296 -14 q 116 82 182 0 q 50 290 50 164 q 92 470 50 389 q 208 598 135 551 q 371 644 281 644 q 446 639 410 644 q 505 627 482 633 q 533 618 528 621 l 538 608 q 530 576 536 601 q 517 508 524 550 q 508 417 510 465 l 451 413 l 451 456 q 420 538 451 507 q 338 569 389 569 q 207 509 253 569 q 161 338 161 449 q 212 147 161 217 q 350 76 263 76 q 419 87 385 76 q 478 108 454 97 q 507 122 501 118 l 515 119 l 531 76 z "},"ĉ":{"ha":589,"x_min":50,"x_max":571,"o":"m 531 76 q 488 47 521 69 q 413 4 456 25 q 340 -17 371 -17 q 129 67 208 -17 q 50 290 50 150 q 92 470 50 389 q 208 598 135 551 q 371 644 281 644 q 446 639 410 644 q 505 627 482 633 q 533 618 528 621 l 538 608 q 530 576 536 601 q 517 508 524 550 q 508 417 510 465 l 451 413 l 451 456 q 420 538 451 507 q 338 569 389 569 q 207 509 253 569 q 161 338 161 449 q 212 147 161 217 q 350 76 263 76 q 419 87 385 76 q 478 108 454 97 q 507 122 501 118 l 515 119 l 531 76 m 168 763 q 284 889 225 822 q 360 975 343 956 l 379 975 q 455 888 396 956 q 571 763 514 821 l 551 732 l 539 731 q 399 843 486 778 l 369 865 q 200 731 261 785 l 188 732 l 168 763 z "},"ċ":{"ha":589,"x_min":50,"x_max":538,"o":"m 531 76 q 488 47 521 69 q 413 4 456 25 q 340 -17 371 -17 q 129 67 208 -17 q 50 290 50 150 q 92 470 50 389 q 208 598 135 551 q 371 644 281 644 q 446 639 410 644 q 505 627 482 633 q 533 618 528 621 l 538 608 q 530 576 536 601 q 517 508 524 550 q 508 417 510 465 l 451 413 l 451 456 q 420 538 451 507 q 338 569 389 569 q 207 509 253 569 q 161 338 161 449 q 212 147 161 217 q 350 76 263 76 q 419 87 385 76 q 478 108 454 97 q 507 122 501 118 l 515 119 l 531 76 m 332 836 q 282 857 300 836 q 264 907 264 878 q 288 965 264 940 q 346 989 311 989 q 396 968 378 989 q 414 918 414 947 q 390 860 414 885 q 332 836 367 836 z "},"d":{"ha":746,"x_min":50,"x_max":746,"o":"m 492 86 q 318 -12 347 -12 q 178 24 239 -12 q 83 128 117 61 q 50 281 50 194 q 97 463 50 379 q 223 595 143 546 q 396 644 303 644 q 492 639 440 644 l 492 869 q 440 944 492 944 q 419 942 431 944 q 406 939 408 940 l 411 990 q 535 1013 471 999 q 617 1031 599 1026 l 625 1013 q 598 719 610 989 q 586 146 586 450 q 601 99 586 115 q 643 82 617 82 q 681 90 663 82 q 712 106 700 97 q 726 117 724 114 l 746 94 q 725 65 742 88 q 681 17 708 42 q 625 -17 654 -8 q 501 82 517 -17 l 492 86 m 492 532 q 471 542 488 535 q 424 557 454 550 q 357 564 394 564 q 210 501 264 564 q 157 328 157 438 q 181 201 157 258 q 248 111 206 144 q 340 78 290 78 q 403 94 369 78 q 461 128 438 111 q 492 151 485 146 l 492 532 z "},"ð":{"ha":706,"x_min":60,"x_max":646,"o":"m 418 832 q 588 601 529 728 q 646 336 646 475 q 605 158 646 239 q 494 30 564 76 q 338 -17 424 -17 q 194 22 257 -17 q 95 128 131 60 q 60 286 60 197 q 101 458 60 379 q 215 583 143 536 q 369 629 286 629 q 412 621 389 629 q 451 604 435 613 q 472 593 468 596 l 475 596 q 343 794 425 710 l 158 706 l 146 710 l 140 751 l 304 832 q 74 978 207 915 l 94 1024 l 108 1029 q 378 868 263 963 l 569 961 l 581 954 l 586 914 l 418 832 m 532 286 q 507 497 532 400 q 347 554 446 554 q 218 494 265 554 q 171 326 171 433 q 197 183 171 246 q 270 86 224 121 q 376 51 317 51 q 490 115 449 51 q 532 286 532 178 z "},"ď":{"ha":763,"x_min":50,"x_max":804,"o":"m 492 86 q 318 -12 347 -12 q 178 24 239 -12 q 83 128 117 61 q 50 281 50 194 q 97 463 50 379 q 223 595 143 546 q 396 644 303 644 q 492 639 440 644 l 492 869 q 440 944 492 944 q 419 942 431 944 q 406 939 408 940 l 411 990 q 535 1013 471 999 q 617 1031 599 1026 l 625 1013 q 598 719 610 989 q 586 146 586 450 q 601 99 586 115 q 643 82 617 82 q 681 90 663 82 q 712 106 700 97 q 726 117 724 114 l 746 94 q 725 65 742 88 q 681 17 708 42 q 625 -17 654 -8 q 501 82 517 -17 l 492 86 m 804 974 q 788 858 801 947 q 756 679 774 768 l 721 660 l 706 663 q 707 738 707 688 q 703 881 707 815 q 697 965 699 947 l 794 985 l 804 974 m 492 532 q 471 542 488 535 q 424 557 454 550 q 357 564 394 564 q 210 501 264 564 q 157 328 157 438 q 181 201 157 258 q 248 111 206 144 q 340 78 290 78 q 403 94 369 78 q 461 128 438 111 q 492 151 485 146 l 492 532 z "},"đ":{"ha":746,"x_min":50,"x_max":746,"o":"m 746 94 q 725 65 742 88 q 681 17 708 42 q 625 -17 654 -8 q 501 82 517 -17 l 492 86 q 318 -12 347 -12 q 178 24 239 -12 q 83 128 117 61 q 50 281 50 194 q 97 463 50 379 q 223 595 143 546 q 396 644 303 644 q 492 639 440 644 l 492 744 l 333 743 l 321 756 l 331 810 l 492 808 l 492 869 q 440 944 492 944 q 419 942 431 944 q 406 939 408 940 l 411 990 q 535 1013 471 999 q 617 1031 599 1026 l 625 1013 q 603 810 614 996 l 713 815 l 731 797 l 725 746 l 600 744 q 586 146 586 471 q 601 99 586 115 q 643 82 617 82 q 681 90 663 82 q 712 106 700 97 q 726 117 724 114 l 746 94 m 492 532 q 471 542 488 535 q 424 557 454 550 q 357 564 394 564 q 210 501 264 564 q 157 328 157 438 q 181 201 157 258 q 248 111 206 144 q 340 78 290 78 q 403 94 369 78 q 461 128 438 111 q 492 151 485 146 l 492 532 z "},"e":{"ha":622,"x_min":50,"x_max":564,"o":"m 154 336 q 210 149 154 219 q 360 78 267 78 q 436 88 399 78 q 499 108 474 97 q 531 121 524 118 l 539 118 l 554 78 q 509 48 544 71 q 426 4 474 25 q 342 -17 379 -17 q 189 22 256 -17 q 86 130 122 60 q 50 290 50 200 q 92 465 50 383 q 206 596 135 547 q 357 644 276 644 q 511 593 458 644 q 564 443 564 542 q 560 401 564 421 q 556 375 557 381 l 538 358 l 154 358 l 154 336 m 411 422 q 439 432 432 425 q 446 460 446 439 q 416 544 446 515 q 331 574 386 574 q 219 529 265 574 q 160 410 172 485 l 411 422 z "},"é":{"ha":622,"x_min":50,"x_max":564,"o":"m 154 336 q 210 149 154 219 q 360 78 267 78 q 436 88 399 78 q 499 108 474 97 q 531 121 524 118 l 539 118 l 554 78 q 509 48 544 71 q 426 4 474 25 q 342 -17 379 -17 q 189 22 256 -17 q 86 130 122 60 q 50 290 50 200 q 92 465 50 383 q 206 596 135 547 q 357 644 276 644 q 511 593 458 644 q 564 443 564 542 q 560 401 564 421 q 556 375 557 381 l 538 358 l 154 358 l 154 336 m 411 422 q 439 432 432 425 q 446 460 446 439 q 416 544 446 515 q 331 574 386 574 q 219 529 265 574 q 160 410 172 485 l 411 422 m 535 918 q 444 846 514 903 q 301 724 374 789 l 289 726 l 261 753 q 388 896 324 821 q 469 993 451 971 l 483 990 l 536 933 l 535 918 z "},"ĕ":{"ha":622,"x_min":50,"x_max":564,"o":"m 154 336 q 210 149 154 219 q 360 78 267 78 q 436 88 399 78 q 499 108 474 97 q 531 121 524 118 l 539 118 l 554 78 q 509 48 544 71 q 426 4 474 25 q 342 -17 379 -17 q 189 22 256 -17 q 86 130 122 60 q 50 290 50 200 q 92 465 50 383 q 206 596 135 547 q 357 644 276 644 q 511 593 458 644 q 564 443 564 542 q 560 401 564 421 q 556 375 557 381 l 538 358 l 154 358 l 154 336 m 411 422 q 439 432 432 425 q 446 460 446 439 q 416 544 446 515 q 331 574 386 574 q 219 529 265 574 q 160 410 172 485 l 411 422 m 356 856 q 436 879 400 856 q 489 947 472 903 l 500 947 l 522 933 q 464 821 506 867 q 356 775 422 775 q 247 821 289 775 q 189 933 206 867 l 211 947 l 222 947 q 275 879 239 903 q 356 856 311 856 z "},"ě":{"ha":622,"x_min":50,"x_max":564,"o":"m 154 336 q 210 149 154 219 q 360 78 267 78 q 436 88 399 78 q 499 108 474 97 q 531 121 524 118 l 539 118 l 554 78 q 509 48 544 71 q 426 4 474 25 q 342 -17 379 -17 q 189 22 256 -17 q 86 130 122 60 q 50 290 50 200 q 92 465 50 383 q 206 596 135 547 q 357 644 276 644 q 511 593 458 644 q 564 443 564 542 q 560 401 564 421 q 556 375 557 381 l 538 358 l 154 358 l 154 336 m 411 422 q 439 432 432 425 q 446 460 446 439 q 416 544 446 515 q 331 574 386 574 q 219 529 265 574 q 160 410 172 485 l 411 422 m 160 986 q 338 846 243 914 q 515 986 453 932 l 526 985 l 549 953 q 427 822 489 892 q 347 731 365 751 l 328 731 q 248 822 310 751 q 126 953 186 892 l 149 985 l 160 986 z "},"ê":{"ha":622,"x_min":50,"x_max":564,"o":"m 154 336 q 210 149 154 219 q 360 78 267 78 q 436 88 399 78 q 499 108 474 97 q 531 121 524 118 l 539 118 l 554 78 q 509 48 544 71 q 426 4 474 25 q 342 -17 379 -17 q 189 22 256 -17 q 86 130 122 60 q 50 290 50 200 q 92 465 50 383 q 206 596 135 547 q 357 644 276 644 q 511 593 458 644 q 564 443 564 542 q 560 401 564 421 q 556 375 557 381 l 538 358 l 154 358 l 154 336 m 411 422 q 439 432 432 425 q 446 460 446 439 q 416 544 446 515 q 331 574 386 574 q 219 529 265 574 q 160 410 172 485 l 411 422 m 135 764 q 251 890 192 824 q 326 976 310 957 l 346 976 q 422 890 363 957 q 538 764 481 822 l 518 733 l 506 732 q 365 844 453 779 l 336 867 q 167 732 228 786 l 154 733 l 135 764 z "},"ë":{"ha":622,"x_min":50,"x_max":564,"o":"m 154 336 q 210 149 154 219 q 360 78 267 78 q 436 88 399 78 q 499 108 474 97 q 531 121 524 118 l 539 118 l 554 78 q 509 48 544 71 q 426 4 474 25 q 342 -17 379 -17 q 189 22 256 -17 q 86 130 122 60 q 50 290 50 200 q 92 465 50 383 q 206 596 135 547 q 357 644 276 644 q 511 593 458 644 q 564 443 564 542 q 560 401 564 421 q 556 375 557 381 l 538 358 l 154 358 l 154 336 m 411 422 q 439 432 432 425 q 446 460 446 439 q 416 544 446 515 q 331 574 386 574 q 219 529 265 574 q 160 410 172 485 l 411 422 m 213 786 q 171 804 186 786 q 156 846 156 822 q 176 895 156 875 q 225 915 196 915 q 267 898 251 915 q 282 856 282 881 q 262 806 282 826 q 213 786 242 786 m 443 786 q 401 804 417 786 q 386 846 386 822 q 406 895 386 875 q 456 915 426 915 q 497 898 482 915 q 513 856 513 881 q 492 806 513 826 q 443 786 472 786 z "},"ė":{"ha":622,"x_min":50,"x_max":564,"o":"m 154 336 q 210 149 154 219 q 360 78 267 78 q 436 88 399 78 q 499 108 474 97 q 531 121 524 118 l 539 118 l 554 78 q 509 48 544 71 q 426 4 474 25 q 342 -17 379 -17 q 189 22 256 -17 q 86 130 122 60 q 50 290 50 200 q 92 465 50 383 q 206 596 135 547 q 357 644 276 644 q 511 593 458 644 q 564 443 564 542 q 560 401 564 421 q 556 375 557 381 l 538 358 l 154 358 l 154 336 m 411 422 q 439 432 432 425 q 446 460 446 439 q 416 544 446 515 q 331 574 386 574 q 219 529 265 574 q 160 410 172 485 l 411 422 m 329 836 q 279 857 297 836 q 261 907 261 878 q 285 965 261 940 q 343 989 308 989 q 393 968 375 989 q 411 918 411 947 q 388 860 411 885 q 329 836 364 836 z "},"è":{"ha":622,"x_min":50,"x_max":564,"o":"m 154 336 q 210 149 154 219 q 360 78 267 78 q 436 88 399 78 q 499 108 474 97 q 531 121 524 118 l 539 118 l 554 78 q 509 48 544 71 q 426 4 474 25 q 342 -17 379 -17 q 189 22 256 -17 q 86 130 122 60 q 50 290 50 200 q 92 465 50 383 q 206 596 135 547 q 357 644 276 644 q 511 593 458 644 q 564 443 564 542 q 560 401 564 421 q 556 375 557 381 l 538 358 l 154 358 l 154 336 m 411 422 q 439 432 432 425 q 446 460 446 439 q 416 544 446 515 q 331 574 386 574 q 219 529 265 574 q 160 410 172 485 l 411 422 m 228 992 q 310 895 246 969 q 436 753 374 821 l 408 726 l 396 724 q 253 846 322 790 q 163 917 183 901 l 161 932 l 214 989 l 228 992 z "},"ē":{"ha":622,"x_min":50,"x_max":564,"o":"m 154 336 q 210 149 154 219 q 360 78 267 78 q 436 88 399 78 q 499 108 474 97 q 531 121 524 118 l 539 118 l 554 78 q 509 48 544 71 q 426 4 474 25 q 342 -17 379 -17 q 189 22 256 -17 q 86 130 122 60 q 50 290 50 200 q 92 465 50 383 q 206 596 135 547 q 357 644 276 644 q 511 593 458 644 q 564 443 564 542 q 560 401 564 421 q 556 375 557 381 l 538 358 l 154 358 l 154 336 m 411 422 q 439 432 432 425 q 446 460 446 439 q 416 544 446 515 q 331 574 386 574 q 219 529 265 574 q 160 410 172 485 l 411 422 m 336 826 l 136 825 l 128 838 l 142 900 l 356 899 q 458 902 399 899 q 535 907 517 906 l 543 893 l 533 828 l 336 826 z "},"ę":{"ha":622,"x_min":50,"x_max":576,"o":"m 576 -247 q 551 -269 571 -253 q 500 -304 531 -285 q 438 -335 469 -324 q 326 -300 368 -335 q 283 -204 283 -265 q 317 -112 283 -160 q 417 1 350 -65 q 342 -17 374 -17 q 189 22 256 -17 q 86 130 122 60 q 50 290 50 200 q 92 465 50 383 q 206 596 135 547 q 357 644 276 644 q 511 593 458 644 q 564 443 564 542 q 560 401 564 421 q 556 375 557 381 l 538 358 l 154 358 l 154 336 q 210 149 154 219 q 360 78 267 78 q 436 88 399 78 q 499 108 474 97 q 531 121 524 118 l 539 118 l 554 78 q 443 -36 478 3 q 390 -108 408 -75 q 371 -178 371 -142 q 393 -232 371 -211 q 451 -253 415 -253 q 499 -246 475 -253 q 539 -231 524 -239 q 558 -221 554 -224 l 576 -247 m 331 574 q 219 529 265 574 q 160 410 172 485 l 411 422 q 439 432 432 425 q 446 460 446 439 q 416 544 446 515 q 331 574 386 574 z "},"f":{"ha":458,"x_min":57,"x_max":631,"o":"m 150 633 l 150 639 q 190 847 150 758 q 301 983 229 936 q 469 1031 372 1031 q 547 1025 511 1031 q 602 1013 582 1019 q 628 1004 622 1007 l 631 992 q 613 959 626 985 q 588 901 600 933 l 572 897 q 545 914 567 901 q 488 938 524 926 q 413 949 453 949 q 294 885 333 949 q 253 692 256 822 l 251 624 q 375 625 324 624 q 443 628 426 626 l 447 624 l 433 550 q 369 553 418 551 q 250 554 319 554 l 244 136 q 262 78 244 97 q 315 60 279 60 q 370 61 349 60 q 399 63 392 63 l 401 57 l 392 -3 q 321 -1 372 -3 q 219 0 269 0 q 124 -2 171 0 q 64 -6 78 -4 l 71 49 q 150 131 150 60 l 150 506 q 131 549 149 539 q 63 563 114 560 l 57 571 l 67 618 l 150 633 z "},"g":{"ha":700,"x_min":71,"x_max":675,"o":"m 317 181 q 238 190 282 181 q 192 158 206 172 q 179 128 179 143 q 222 83 179 96 q 357 60 265 71 q 503 37 447 49 q 599 -6 558 25 q 639 -90 639 -36 q 589 -208 639 -151 q 458 -301 539 -265 q 293 -336 378 -336 q 140 -287 194 -336 q 85 -151 85 -239 q 141 -92 103 -126 q 222 -26 179 -58 l 222 -18 q 110 30 149 -6 q 71 118 71 65 q 188 207 124 168 l 188 213 q 113 286 140 238 q 85 393 85 335 q 120 518 85 460 q 215 610 156 576 q 343 644 274 644 q 422 636 375 644 q 479 629 457 629 q 671 671 538 636 l 675 665 l 660 588 q 540 575 604 579 l 535 568 q 590 426 590 507 q 553 303 590 360 q 454 213 517 246 q 317 181 392 181 m 349 242 q 449 282 413 242 q 486 393 486 322 q 442 524 486 474 q 326 574 397 574 q 226 532 263 574 q 189 419 189 490 q 233 291 189 340 q 349 242 278 242 m 343 -268 q 445 -249 397 -268 q 522 -198 493 -231 q 550 -129 550 -165 q 528 -85 550 -101 q 449 -56 506 -68 q 282 -29 393 -43 q 221 -92 246 -53 q 196 -164 196 -131 q 237 -240 196 -211 q 343 -268 278 -268 z "},"ğ":{"ha":700,"x_min":71,"x_max":675,"o":"m 317 181 q 238 190 282 181 q 192 158 206 172 q 179 128 179 143 q 222 83 179 96 q 357 60 265 71 q 503 37 447 49 q 599 -6 558 25 q 639 -90 639 -36 q 589 -208 639 -151 q 458 -301 539 -265 q 293 -336 378 -336 q 140 -287 194 -336 q 85 -151 85 -239 q 141 -92 103 -126 q 222 -26 179 -58 l 222 -18 q 110 30 149 -6 q 71 118 71 65 q 188 207 124 168 l 188 213 q 113 286 140 238 q 85 393 85 335 q 120 518 85 460 q 215 610 156 576 q 343 644 274 644 q 422 636 375 644 q 479 629 457 629 q 671 671 538 636 l 675 665 l 660 588 q 540 575 604 579 l 535 568 q 590 426 590 507 q 553 303 590 360 q 454 213 517 246 q 317 181 392 181 m 349 242 q 449 282 413 242 q 486 393 486 322 q 442 524 486 474 q 326 574 397 574 q 226 532 263 574 q 189 419 189 490 q 233 291 189 340 q 349 242 278 242 m 343 -268 q 445 -249 397 -268 q 522 -198 493 -231 q 550 -129 550 -165 q 528 -85 550 -101 q 449 -56 506 -68 q 282 -29 393 -43 q 221 -92 246 -53 q 196 -164 196 -131 q 237 -240 196 -211 q 343 -268 278 -268 m 344 856 q 425 879 389 856 q 478 947 461 903 l 489 947 l 511 933 q 453 821 494 867 q 344 775 411 775 q 236 821 278 775 q 178 933 194 867 l 200 947 l 211 947 q 264 879 228 903 q 344 856 300 856 z "},"ĝ":{"ha":700,"x_min":71,"x_max":675,"o":"m 317 181 q 238 190 282 181 q 192 158 206 172 q 179 128 179 143 q 222 83 179 96 q 357 60 265 71 q 503 37 447 49 q 599 -6 558 25 q 639 -90 639 -36 q 589 -208 639 -151 q 458 -301 539 -265 q 293 -336 378 -336 q 140 -287 194 -336 q 85 -151 85 -239 q 141 -92 103 -126 q 222 -26 179 -58 l 222 -18 q 110 30 149 -6 q 71 118 71 65 q 188 207 124 168 l 188 213 q 113 286 140 238 q 85 393 85 335 q 120 518 85 460 q 215 610 156 576 q 343 644 274 644 q 422 636 375 644 q 479 629 457 629 q 671 671 538 636 l 675 665 l 660 588 q 540 575 604 579 l 535 568 q 590 426 590 507 q 553 303 590 360 q 454 213 517 246 q 317 181 392 181 m 349 242 q 449 282 413 242 q 486 393 486 322 q 442 524 486 474 q 326 574 397 574 q 226 532 263 574 q 189 419 189 490 q 233 291 189 340 q 349 242 278 242 m 343 -268 q 445 -249 397 -268 q 522 -198 493 -231 q 550 -129 550 -165 q 528 -85 550 -101 q 449 -56 506 -68 q 282 -29 393 -43 q 221 -92 246 -53 q 196 -164 196 -131 q 237 -240 196 -211 q 343 -268 278 -268 m 174 763 q 290 889 231 822 q 365 975 349 956 l 385 975 q 460 888 401 956 q 576 763 519 821 l 557 732 l 544 731 q 404 843 492 778 l 375 865 q 206 731 267 785 l 193 732 l 174 763 z "},"ģ":{"ha":700,"x_min":71,"x_max":675,"o":"m 317 181 q 238 190 282 181 q 192 158 206 172 q 179 128 179 143 q 222 83 179 96 q 357 60 265 71 q 503 37 447 49 q 599 -6 558 25 q 639 -90 639 -36 q 589 -208 639 -151 q 458 -301 539 -265 q 293 -336 378 -336 q 140 -287 194 -336 q 85 -151 85 -239 q 141 -92 103 -126 q 222 -26 179 -58 l 222 -18 q 110 30 149 -6 q 71 118 71 65 q 188 207 124 168 l 188 213 q 113 286 140 238 q 85 393 85 335 q 120 518 85 460 q 215 610 156 576 q 343 644 274 644 q 422 636 375 644 q 479 629 457 629 q 671 671 538 636 l 675 665 l 660 588 q 540 575 604 579 l 535 568 q 590 426 590 507 q 553 303 590 360 q 454 213 517 246 q 317 181 392 181 m 349 242 q 449 282 413 242 q 486 393 486 322 q 442 524 486 474 q 326 574 397 574 q 226 532 263 574 q 189 419 189 490 q 233 291 189 340 q 349 242 278 242 m 343 -268 q 445 -249 397 -268 q 522 -198 493 -231 q 550 -129 550 -165 q 528 -85 550 -101 q 449 -56 506 -68 q 282 -29 393 -43 q 221 -92 246 -53 q 196 -164 196 -131 q 237 -240 196 -211 q 343 -268 278 -268 m 422 744 q 342 708 375 708 q 288 735 310 708 q 267 807 267 763 q 319 930 267 875 q 444 1022 372 985 l 469 1001 l 469 988 q 398 923 426 961 q 369 850 369 885 q 385 801 369 824 q 425 764 400 778 l 422 744 z "},"ġ":{"ha":700,"x_min":71,"x_max":675,"o":"m 317 181 q 238 190 282 181 q 192 158 206 172 q 179 128 179 143 q 222 83 179 96 q 357 60 265 71 q 503 37 447 49 q 599 -6 558 25 q 639 -90 639 -36 q 589 -208 639 -151 q 458 -301 539 -265 q 293 -336 378 -336 q 140 -287 194 -336 q 85 -151 85 -239 q 141 -92 103 -126 q 222 -26 179 -58 l 222 -18 q 110 30 149 -6 q 71 118 71 65 q 188 207 124 168 l 188 213 q 113 286 140 238 q 85 393 85 335 q 120 518 85 460 q 215 610 156 576 q 343 644 274 644 q 422 636 375 644 q 479 629 457 629 q 671 671 538 636 l 675 665 l 660 588 q 540 575 604 579 l 535 568 q 590 426 590 507 q 553 303 590 360 q 454 213 517 246 q 317 181 392 181 m 349 242 q 449 282 413 242 q 486 393 486 322 q 442 524 486 474 q 326 574 397 574 q 226 532 263 574 q 189 419 189 490 q 233 291 189 340 q 349 242 278 242 m 343 -268 q 445 -249 397 -268 q 522 -198 493 -231 q 550 -129 550 -165 q 528 -85 550 -101 q 449 -56 506 -68 q 282 -29 393 -43 q 221 -92 246 -53 q 196 -164 196 -131 q 237 -240 196 -211 q 343 -268 278 -268 m 335 836 q 285 857 303 836 q 267 907 267 878 q 290 965 267 940 q 349 989 314 989 q 399 968 381 989 q 417 918 417 947 q 393 860 417 885 q 335 836 369 836 z "},"h":{"ha":742,"x_min":35,"x_max":697,"o":"m 49 54 q 105 75 89 58 q 121 131 121 92 l 121 869 q 108 924 121 907 q 69 942 96 942 l 40 942 l 35 946 l 40 990 q 164 1013 100 999 q 246 1031 228 1026 l 254 1013 q 235 866 244 997 q 221 536 226 735 q 429 644 379 644 q 569 597 519 644 q 619 465 619 550 q 610 338 619 438 q 597 136 597 175 q 608 77 597 96 q 646 58 619 58 q 675 60 661 58 q 694 61 689 61 l 697 56 l 686 -4 q 639 -1 674 -3 q 563 0 604 0 q 480 -7 526 0 q 419 -17 433 -14 l 425 40 q 485 73 467 51 q 503 131 503 94 l 511 406 q 481 513 511 475 q 396 550 451 550 q 299 524 349 550 q 219 474 250 499 q 215 136 215 314 q 226 76 215 93 q 265 58 238 58 q 294 60 281 58 q 314 61 308 61 l 317 56 l 304 -4 q 256 -1 292 -3 q 178 0 219 0 q 93 -1 132 0 q 40 -3 54 -3 l 49 54 z "},"ħ":{"ha":744,"x_min":11,"x_max":700,"o":"m 689 -4 q 642 -1 676 -3 q 565 0 607 0 q 483 -7 529 0 q 422 -17 436 -14 l 428 40 q 488 73 469 51 q 506 131 506 94 l 514 406 q 484 513 514 475 q 399 550 454 550 q 302 524 351 550 q 222 474 253 499 q 218 136 218 313 q 229 76 218 93 q 268 58 240 58 q 297 60 283 58 q 317 61 311 61 l 319 56 l 307 -4 q 258 -1 294 -3 q 181 0 222 0 q 96 -1 135 0 q 43 -3 57 -3 l 51 54 q 108 75 92 58 q 124 131 124 92 l 124 725 l 24 724 l 11 736 l 21 790 l 124 789 l 124 869 q 111 924 124 907 q 72 942 99 942 l 43 942 l 38 946 l 43 990 q 167 1013 103 999 q 249 1031 231 1026 l 257 1013 q 233 789 244 994 q 313 792 278 790 q 361 796 349 794 l 379 778 l 374 726 l 231 725 q 224 536 225 617 q 432 644 382 644 q 572 597 522 644 q 622 465 622 550 q 613 338 622 438 q 600 136 600 175 q 611 77 600 96 q 649 58 622 58 q 678 60 664 58 q 697 61 692 61 l 700 56 l 689 -4 z "},"ĥ":{"ha":742,"x_min":-15,"x_max":697,"o":"m 49 54 q 105 75 89 58 q 121 131 121 92 l 121 869 q 108 924 121 907 q 69 942 96 942 l 40 942 l 35 946 l 40 990 q 164 1013 100 999 q 246 1031 228 1026 l 254 1013 q 235 866 244 997 q 221 536 226 735 q 429 644 379 644 q 569 597 519 644 q 619 465 619 550 q 610 338 619 438 q 597 136 597 175 q 608 77 597 96 q 646 58 619 58 q 675 60 661 58 q 694 61 689 61 l 697 56 l 686 -4 q 639 -1 674 -3 q 563 0 604 0 q 480 -7 526 0 q 419 -17 433 -14 l 425 40 q 485 73 467 51 q 503 131 503 94 l 511 406 q 481 513 511 475 q 396 550 451 550 q 299 524 349 550 q 219 474 250 499 q 215 136 215 314 q 226 76 215 93 q 265 58 238 58 q 294 60 281 58 q 314 61 308 61 l 317 56 l 304 -4 q 256 -1 292 -3 q 178 0 219 0 q 93 -1 132 0 q 40 -3 54 -3 l 49 54 m -15 1093 q 101 1219 42 1153 q 176 1306 160 1286 l 196 1306 q 272 1219 213 1286 q 388 1093 331 1151 l 368 1063 l 356 1061 q 215 1174 303 1108 l 186 1196 q 17 1061 78 1115 l 4 1063 l -15 1093 z "},"i":{"ha":392,"x_min":58,"x_max":339,"o":"m 185 836 q 135 856 154 836 q 117 907 117 875 q 140 965 117 942 q 199 989 164 989 q 247 969 228 989 q 267 918 267 949 q 243 860 267 883 q 185 836 219 836 m 67 40 q 126 73 108 51 q 144 131 144 94 l 144 483 q 93 558 144 558 q 72 556 83 558 q 58 553 61 554 l 64 604 q 184 626 122 613 q 264 644 246 640 l 271 628 q 249 449 258 599 q 239 136 239 300 q 250 77 239 96 q 288 58 261 58 q 317 60 303 58 q 336 61 331 61 l 339 56 l 328 -4 q 281 -1 315 -3 q 204 0 246 0 q 122 -7 168 0 q 61 -17 75 -14 l 67 40 z "},"ı":{"ha":392,"x_min":58,"x_max":339,"o":"m 67 40 q 126 73 108 51 q 144 131 144 94 l 144 483 q 93 558 144 558 q 72 556 83 558 q 58 553 61 554 l 64 604 q 184 626 122 613 q 264 644 246 640 l 271 628 q 249 449 258 599 q 239 136 239 300 q 250 77 239 96 q 288 58 261 58 q 317 60 303 58 q 336 61 331 61 l 339 56 l 328 -4 q 281 -1 315 -3 q 204 0 246 0 q 122 -7 168 0 q 61 -17 75 -14 l 67 40 z "},"í":{"ha":392,"x_min":58,"x_max":372,"o":"m 67 40 q 126 73 108 51 q 144 131 144 94 l 144 483 q 93 558 144 558 q 72 556 83 558 q 58 553 61 554 l 64 604 q 184 626 122 613 q 264 644 246 640 l 271 628 q 249 449 258 599 q 239 136 239 300 q 250 77 239 96 q 288 58 261 58 q 317 60 303 58 q 336 61 331 61 l 339 56 l 328 -4 q 281 -1 315 -3 q 204 0 246 0 q 122 -7 168 0 q 61 -17 75 -14 l 67 40 m 371 918 q 280 846 350 903 q 138 724 210 789 l 125 726 l 97 753 q 224 896 160 821 q 306 993 288 971 l 319 990 l 372 933 l 371 918 z "},"ĭ":{"ha":392,"x_min":25,"x_max":358,"o":"m 67 40 q 126 73 108 51 q 144 131 144 94 l 144 483 q 93 558 144 558 q 72 556 83 558 q 58 553 61 554 l 64 604 q 184 626 122 613 q 264 644 246 640 l 271 628 q 249 449 258 599 q 239 136 239 300 q 250 77 239 96 q 288 58 261 58 q 317 60 303 58 q 336 61 331 61 l 339 56 l 328 -4 q 281 -1 315 -3 q 204 0 246 0 q 122 -7 168 0 q 61 -17 75 -14 l 67 40 m 192 856 q 272 879 236 856 q 325 947 308 903 l 336 947 l 358 933 q 300 821 342 867 q 192 775 258 775 q 83 821 125 775 q 25 933 42 867 l 47 947 l 58 947 q 111 879 75 903 q 192 856 147 856 z "},"î":{"ha":392,"x_min":-3,"x_max":400,"o":"m 67 40 q 126 73 108 51 q 144 131 144 94 l 144 483 q 93 558 144 558 q 72 556 83 558 q 58 553 61 554 l 64 604 q 184 626 122 613 q 264 644 246 640 l 271 628 q 249 449 258 599 q 239 136 239 300 q 250 77 239 96 q 288 58 261 58 q 317 60 303 58 q 336 61 331 61 l 339 56 l 328 -4 q 281 -1 315 -3 q 204 0 246 0 q 122 -7 168 0 q 61 -17 75 -14 l 67 40 m -3 763 q 113 889 54 822 q 189 975 172 956 l 208 975 q 284 888 225 956 q 400 763 343 821 l 381 732 l 368 731 q 228 843 315 778 l 199 865 q 29 731 90 785 l 17 732 l -3 763 z "},"ï":{"ha":392,"x_min":15,"x_max":372,"o":"m 67 40 q 126 73 108 51 q 144 131 144 94 l 144 483 q 93 558 144 558 q 72 556 83 558 q 58 553 61 554 l 64 604 q 184 626 122 613 q 264 644 246 640 l 271 628 q 249 449 258 599 q 239 136 239 300 q 250 77 239 96 q 288 58 261 58 q 317 60 303 58 q 336 61 331 61 l 339 56 l 328 -4 q 281 -1 315 -3 q 204 0 246 0 q 122 -7 168 0 q 61 -17 75 -14 l 67 40 m 72 786 q 31 804 46 786 q 15 846 15 822 q 35 895 15 875 q 85 915 56 915 q 126 898 111 915 q 142 856 142 881 q 122 806 142 826 q 72 786 101 786 m 303 786 q 261 804 276 786 q 246 846 246 822 q 266 895 246 875 q 315 915 286 915 q 357 898 342 915 q 372 856 372 881 q 352 806 372 826 q 303 786 332 786 z "},"ì":{"ha":392,"x_min":8,"x_max":339,"o":"m 67 40 q 126 73 108 51 q 144 131 144 94 l 144 483 q 93 558 144 558 q 72 556 83 558 q 58 553 61 554 l 64 604 q 184 626 122 613 q 264 644 246 640 l 271 628 q 249 449 258 599 q 239 136 239 300 q 250 77 239 96 q 288 58 261 58 q 317 60 303 58 q 336 61 331 61 l 339 56 l 328 -4 q 281 -1 315 -3 q 204 0 246 0 q 122 -7 168 0 q 61 -17 75 -14 l 67 40 m 75 992 q 157 895 93 969 q 283 753 221 821 l 256 726 l 243 724 q 100 846 169 790 q 10 917 31 901 l 8 932 l 61 989 l 75 992 z "},"ĳ":{"ha":739,"x_min":58,"x_max":642,"o":"m 185 836 q 135 856 154 836 q 117 907 117 875 q 140 965 117 942 q 199 989 164 989 q 247 969 228 989 q 267 918 267 949 q 243 860 267 883 q 185 836 219 836 m 67 40 q 126 73 108 51 q 144 131 144 94 l 144 483 q 93 558 144 558 q 72 556 83 558 q 58 553 61 554 l 64 604 q 184 626 122 613 q 264 644 246 640 l 271 628 q 249 449 258 599 q 239 136 239 300 q 250 77 239 96 q 288 58 261 58 q 317 60 303 58 q 336 61 331 61 l 339 56 l 328 -4 q 281 -1 315 -3 q 204 0 246 0 q 122 -7 168 0 q 61 -17 75 -14 l 67 40 m 560 836 q 510 856 529 836 q 492 907 492 875 q 515 965 492 942 q 574 989 539 989 q 622 969 603 989 q 642 918 642 949 q 618 860 642 883 q 560 836 594 836 m 415 -297 q 497 -164 475 -237 q 518 53 518 -90 l 518 483 q 506 542 518 526 q 463 558 494 558 q 440 557 450 558 q 425 554 429 556 l 431 606 q 547 626 483 613 q 631 644 611 640 l 638 628 q 614 -19 614 588 q 568 -201 614 -119 q 438 -335 522 -283 l 413 -308 l 415 -297 z "},"ī":{"ha":392,"x_min":8,"x_max":385,"o":"m 67 40 q 126 73 108 51 q 144 131 144 94 l 144 483 q 93 558 144 558 q 72 556 83 558 q 58 553 61 554 l 64 604 q 184 626 122 613 q 264 644 246 640 l 271 628 q 249 449 258 599 q 239 136 239 300 q 250 77 239 96 q 288 58 261 58 q 317 60 303 58 q 336 61 331 61 l 339 56 l 328 -4 q 281 -1 315 -3 q 204 0 246 0 q 122 -7 168 0 q 61 -17 75 -14 l 67 40 m 197 826 l 17 825 l 10 838 l 22 900 l 215 899 q 307 902 253 899 q 376 907 360 906 l 383 893 l 375 828 l 197 826 z "},"į":{"ha":392,"x_min":58,"x_max":351,"o":"m 185 836 q 135 856 154 836 q 117 907 117 875 q 140 965 117 942 q 199 989 164 989 q 247 969 228 989 q 267 918 267 949 q 243 860 267 883 q 185 836 219 836 m 351 -247 q 326 -269 346 -253 q 275 -304 306 -285 q 213 -335 244 -324 q 101 -300 143 -335 q 58 -204 58 -265 q 92 -112 58 -160 q 190 0 125 -65 q 114 -8 154 -1 q 61 -17 74 -14 l 67 40 q 126 73 108 51 q 144 131 144 94 l 144 483 q 93 558 144 558 q 72 556 83 558 q 58 553 61 554 l 64 604 q 184 626 122 613 q 264 644 246 640 l 271 628 q 249 449 258 599 q 239 136 239 300 q 250 77 239 96 q 288 58 261 58 q 317 60 303 58 q 336 61 331 61 l 339 56 l 328 -4 q 300 -3 321 -4 q 250 -1 279 -1 q 169 -99 193 -61 q 146 -178 146 -137 q 168 -232 146 -211 q 226 -253 190 -253 q 274 -246 250 -253 q 314 -231 299 -239 q 333 -221 329 -224 l 351 -247 z "},"ĩ":{"ha":392,"x_min":-39,"x_max":418,"o":"m 67 40 q 126 73 108 51 q 144 131 144 94 l 144 483 q 93 558 144 558 q 72 556 83 558 q 58 553 61 554 l 64 604 q 184 626 122 613 q 264 644 246 640 l 271 628 q 249 449 258 599 q 239 136 239 300 q 250 77 239 96 q 288 58 261 58 q 317 60 303 58 q 336 61 331 61 l 339 56 l 328 -4 q 281 -1 315 -3 q 204 0 246 0 q 122 -7 168 0 q 61 -17 75 -14 l 67 40 m -39 801 l 67 925 l 89 931 q 197 906 114 931 q 244 894 210 903 q 292 885 278 885 q 325 901 306 885 q 360 937 344 918 q 379 961 375 956 l 388 961 l 418 932 l 418 925 l 313 801 l 290 796 q 182 821 265 796 q 135 833 169 824 q 88 842 101 842 q 53 825 72 842 q 19 790 33 808 q 0 765 4 771 l -8 765 l -39 794 l -39 801 z "},"j":{"ha":347,"x_min":21,"x_max":250,"o":"m 168 836 q 119 856 138 836 q 100 907 100 875 q 124 965 100 942 q 182 989 147 989 q 231 969 211 989 q 250 918 250 949 q 226 860 250 883 q 168 836 203 836 m 24 -297 q 105 -164 83 -237 q 126 53 126 -90 l 126 483 q 115 542 126 526 q 71 558 103 558 q 48 557 58 558 q 33 554 38 556 l 39 606 q 156 626 92 613 q 239 644 219 640 l 246 628 q 222 -19 222 588 q 176 -201 222 -119 q 46 -335 131 -283 l 21 -308 l 24 -297 z "},"ȷ":{"ha":347,"x_min":21,"x_max":246,"o":"m 24 -297 q 105 -164 83 -237 q 126 53 126 -90 l 126 483 q 115 542 126 526 q 71 558 103 558 q 48 557 58 558 q 33 554 38 556 l 39 606 q 156 626 92 613 q 239 644 219 640 l 246 628 q 222 -19 222 588 q 176 -201 222 -119 q 46 -335 131 -283 l 21 -308 l 24 -297 z "},"ĵ":{"ha":347,"x_min":-28,"x_max":375,"o":"m 24 -297 q 105 -164 83 -237 q 126 53 126 -90 l 126 483 q 115 542 126 526 q 71 558 103 558 q 48 557 58 558 q 33 554 38 556 l 39 606 q 156 626 92 613 q 239 644 219 640 l 246 628 q 222 -19 222 588 q 176 -201 222 -119 q 46 -335 131 -283 l 21 -308 l 24 -297 m -28 764 q 88 890 29 824 q 164 976 147 957 l 183 976 q 259 890 200 957 q 375 764 318 822 l 356 733 l 343 732 q 203 844 290 779 l 174 867 q 4 732 65 786 l -8 733 l -28 764 z "},"k":{"ha":690,"x_min":35,"x_max":671,"o":"m 47 49 q 99 69 83 54 q 117 107 114 83 q 121 188 121 131 l 121 869 q 69 944 121 944 q 49 942 60 944 q 35 939 38 940 q 38 964 35 947 l 40 990 q 164 1013 100 999 q 246 1031 228 1026 l 254 1013 q 227 718 239 989 q 215 136 215 447 q 226 76 215 93 q 265 58 238 58 q 294 60 281 58 q 314 61 308 61 l 317 56 l 304 -4 q 256 -1 292 -3 q 178 0 219 0 q 98 -3 142 0 q 40 -8 54 -7 l 47 49 m 422 506 q 449 534 442 524 q 456 554 456 544 q 438 576 456 569 q 379 583 419 583 l 375 590 l 388 631 q 441 629 401 631 q 524 628 481 628 q 600 631 557 628 q 656 636 643 635 l 660 629 l 649 586 q 534 522 592 569 q 396 394 476 475 q 353 351 396 394 l 499 164 q 585 76 546 103 q 667 50 624 50 l 671 43 l 663 3 q 611 -10 650 -1 q 560 -19 572 -19 q 511 -6 539 -19 q 467 29 489 6 q 414 99 446 53 l 250 331 l 253 350 l 422 506 z "},"ķ":{"ha":690,"x_min":35,"x_max":671,"o":"m 47 49 q 99 69 83 54 q 117 107 114 83 q 121 188 121 131 l 121 869 q 69 944 121 944 q 49 942 60 944 q 35 939 38 940 q 38 964 35 947 l 40 990 q 164 1013 100 999 q 246 1031 228 1026 l 254 1013 q 227 718 239 989 q 215 136 215 447 q 226 76 215 93 q 265 58 238 58 q 294 60 281 58 q 314 61 308 61 l 317 56 l 304 -4 q 256 -1 292 -3 q 178 0 219 0 q 98 -3 142 0 q 40 -8 54 -7 l 47 49 m 422 506 q 449 534 442 524 q 456 554 456 544 q 438 576 456 569 q 379 583 419 583 l 375 590 l 388 631 q 441 629 401 631 q 524 628 481 628 q 600 631 557 628 q 656 636 643 635 l 660 629 l 649 586 q 534 522 592 569 q 396 394 476 475 q 353 351 396 394 l 499 164 q 585 76 546 103 q 667 50 624 50 l 671 43 l 663 3 q 611 -10 650 -1 q 560 -19 572 -19 q 511 -6 539 -19 q 467 29 489 6 q 414 99 446 53 l 250 331 l 253 350 l 422 506 m 290 -129 q 371 -93 338 -93 q 424 -120 403 -93 q 446 -192 446 -147 q 393 -315 446 -260 q 268 -407 340 -369 l 243 -386 l 243 -372 q 315 -308 286 -346 q 343 -235 343 -269 q 328 -185 343 -208 q 288 -149 313 -162 l 290 -129 z "},"ĸ":{"ha":711,"x_min":54,"x_max":692,"o":"m 68 49 q 119 69 104 54 q 138 107 135 83 q 142 188 142 131 l 142 497 q 126 550 142 535 q 63 565 110 565 l 54 572 l 60 621 q 176 635 124 628 q 244 644 228 642 l 253 626 q 242 465 247 596 q 236 136 236 333 q 247 76 236 93 q 286 58 258 58 q 315 60 301 58 q 335 61 329 61 l 338 56 l 325 -4 q 276 -1 313 -3 q 199 0 240 0 q 119 -3 163 0 q 61 -8 75 -7 l 68 49 m 443 506 q 469 534 463 524 q 476 554 476 544 q 458 576 476 569 q 400 583 440 583 l 396 590 l 408 631 q 462 629 422 631 q 544 628 501 628 q 621 631 578 628 q 676 636 664 635 l 681 629 l 669 586 q 555 522 613 569 q 417 394 497 475 q 374 351 417 394 l 519 164 q 606 76 567 103 q 688 50 644 50 l 692 43 l 683 3 q 632 -10 671 -1 q 581 -19 593 -19 q 532 -6 560 -19 q 488 29 510 6 q 435 99 467 53 l 271 331 l 274 350 l 443 506 z "},"l":{"ha":339,"x_min":35,"x_max":315,"o":"m 43 40 q 98 68 82 51 q 117 108 114 85 q 121 188 121 132 l 121 869 q 69 944 121 944 q 49 942 60 944 q 35 939 38 940 q 38 964 35 947 l 40 990 q 164 1013 100 999 q 246 1031 228 1026 l 254 1013 q 227 717 239 989 q 215 136 215 444 q 226 76 215 94 q 264 58 238 58 q 293 60 279 58 q 313 61 307 61 l 315 56 l 304 -4 q 257 -1 292 -3 q 181 0 222 0 q 98 -7 144 0 q 38 -17 51 -14 l 43 40 z "},"ĺ":{"ha":339,"x_min":35,"x_max":351,"o":"m 43 40 q 98 68 82 51 q 117 108 114 85 q 121 188 121 132 l 121 869 q 69 944 121 944 q 49 942 60 944 q 35 939 38 940 q 38 964 35 947 l 40 990 q 164 1013 100 999 q 246 1031 228 1026 l 254 1013 q 227 717 239 989 q 215 136 215 444 q 226 76 215 94 q 264 58 238 58 q 293 60 279 58 q 313 61 307 61 l 315 56 l 304 -4 q 257 -1 292 -3 q 181 0 222 0 q 98 -7 144 0 q 38 -17 51 -14 l 43 40 m 350 1238 q 259 1165 329 1222 q 117 1043 189 1108 l 104 1046 l 76 1072 q 203 1215 139 1140 q 285 1313 267 1290 l 299 1310 l 351 1253 l 350 1238 z "},"ľ":{"ha":422,"x_min":35,"x_max":422,"o":"m 43 40 q 98 68 82 51 q 117 108 114 85 q 121 188 121 132 l 121 869 q 69 944 121 944 q 49 942 60 944 q 35 939 38 940 q 38 964 35 947 l 40 990 q 164 1013 100 999 q 246 1031 228 1026 l 254 1013 q 227 717 239 989 q 215 136 215 444 q 226 76 215 94 q 264 58 238 58 q 293 60 279 58 q 313 61 307 61 l 315 56 l 304 -4 q 257 -1 292 -3 q 181 0 222 0 q 98 -7 144 0 q 38 -17 51 -14 l 43 40 m 422 960 q 406 844 419 933 q 374 665 392 754 l 339 646 l 324 649 q 325 724 325 674 q 321 867 325 801 q 315 951 317 933 l 413 971 l 422 960 z "},"ļ":{"ha":339,"x_min":35,"x_max":315,"o":"m 43 40 q 98 68 82 51 q 117 108 114 85 q 121 188 121 132 l 121 869 q 69 944 121 944 q 49 942 60 944 q 35 939 38 940 q 38 964 35 947 l 40 990 q 164 1013 100 999 q 246 1031 228 1026 l 254 1013 q 227 717 239 989 q 215 136 215 444 q 226 76 215 94 q 264 58 238 58 q 293 60 279 58 q 313 61 307 61 l 315 56 l 304 -4 q 257 -1 292 -3 q 181 0 222 0 q 98 -7 144 0 q 38 -17 51 -14 l 43 40 m 100 -129 q 181 -93 147 -93 q 234 -120 213 -93 q 256 -192 256 -147 q 203 -315 256 -260 q 78 -407 150 -369 l 53 -386 l 53 -372 q 124 -308 96 -346 q 153 -235 153 -269 q 138 -185 153 -208 q 97 -149 122 -162 l 100 -129 z "},"ŀ":{"ha":461,"x_min":35,"x_max":454,"o":"m 43 40 q 98 68 82 51 q 117 108 114 85 q 121 188 121 132 l 121 869 q 69 944 121 944 q 49 942 60 944 q 35 939 38 940 q 38 964 35 947 l 40 990 q 164 1013 100 999 q 246 1031 228 1026 l 254 1013 q 227 717 239 989 q 215 136 215 444 q 226 76 215 94 q 264 58 238 58 q 293 60 279 58 q 313 61 307 61 l 315 56 l 304 -4 q 257 -1 292 -3 q 181 0 222 0 q 98 -7 144 0 q 38 -17 51 -14 l 43 40 m 367 304 q 309 327 329 304 q 289 383 289 350 q 313 444 289 419 q 375 469 336 469 q 433 447 413 469 q 454 390 454 424 q 430 329 454 354 q 367 304 406 304 z "},"ł":{"ha":343,"x_min":4,"x_max":336,"o":"m 264 58 q 293 60 279 58 q 313 61 307 61 l 315 56 l 304 -4 q 257 -1 292 -3 q 181 0 222 0 q 98 -7 144 0 q 38 -17 51 -14 l 43 40 q 98 68 82 51 q 117 108 114 85 q 121 188 121 132 l 121 481 l 25 428 l 13 431 l 4 475 l 121 540 l 121 869 q 69 944 121 944 q 49 942 60 944 q 35 939 38 940 q 38 964 35 947 l 40 990 q 164 1013 100 999 q 246 1031 228 1026 l 254 1013 q 222 592 236 985 l 317 643 l 328 638 l 336 594 l 221 531 q 215 136 215 365 q 226 76 215 94 q 264 58 238 58 z "},"m":{"ha":1156,"x_min":54,"x_max":1113,"o":"m 451 40 q 511 73 493 51 q 529 131 529 94 l 535 406 q 505 513 535 475 q 419 550 475 550 q 329 527 375 550 q 249 478 283 504 q 236 136 236 190 q 247 76 236 93 q 286 58 258 58 q 315 60 301 58 q 335 61 329 61 l 338 56 l 325 -4 q 276 -1 313 -3 q 199 0 240 0 q 114 -1 153 0 q 61 -3 75 -3 l 69 54 q 126 75 110 58 q 142 131 142 92 l 142 469 q 126 535 142 517 q 74 554 111 554 l 58 554 l 54 560 l 58 606 q 177 628 118 615 q 253 646 236 642 l 261 635 q 253 599 258 626 q 246 543 247 572 l 249 539 q 453 644 404 644 q 565 616 519 644 q 631 535 611 588 q 743 608 681 571 q 840 644 806 644 q 979 596 928 644 q 1031 465 1031 547 q 1022 338 1031 451 q 1011 136 1011 193 q 1022 76 1011 93 q 1061 58 1033 58 q 1090 60 1076 58 q 1110 61 1104 61 l 1113 56 l 1100 -4 q 1051 -1 1088 -3 q 974 0 1015 0 q 894 -3 938 0 q 836 -8 850 -7 l 843 49 q 900 74 883 56 q 917 131 917 92 l 922 406 q 892 513 922 475 q 807 550 863 550 q 639 481 735 550 l 624 136 q 635 77 624 96 q 672 58 646 58 q 701 60 688 58 q 721 61 715 61 l 724 56 l 713 -4 q 665 -1 700 -3 q 589 0 631 0 q 506 -7 553 0 q 446 -17 460 -14 l 451 40 z "},"n":{"ha":781,"x_min":54,"x_max":724,"o":"m 451 40 q 511 73 493 51 q 529 131 529 94 l 535 406 q 505 513 535 475 q 419 550 475 550 q 329 527 375 550 q 249 478 283 504 q 236 136 236 190 q 247 76 236 93 q 286 58 258 58 q 315 60 301 58 q 335 61 329 61 l 338 56 l 325 -4 q 276 -1 313 -3 q 199 0 240 0 q 119 -3 163 0 q 61 -8 75 -7 l 68 49 q 125 74 108 56 q 142 131 142 92 l 142 469 q 126 535 142 517 q 74 554 111 554 l 58 554 l 54 560 l 58 606 q 177 628 118 615 q 253 646 236 642 l 261 635 q 253 599 258 626 q 246 543 247 572 l 249 539 q 453 644 407 644 q 592 596 540 644 q 643 465 643 547 q 635 338 643 451 q 624 136 624 193 q 635 77 624 96 q 672 58 646 58 q 701 60 688 58 q 721 61 715 61 l 724 56 l 713 -4 q 665 -1 700 -3 q 589 0 631 0 q 506 -7 553 0 q 446 -17 460 -14 l 451 40 z "},"ń":{"ha":781,"x_min":54,"x_max":724,"o":"m 451 40 q 511 73 493 51 q 529 131 529 94 l 535 406 q 505 513 535 475 q 419 550 475 550 q 329 527 375 550 q 249 478 283 504 q 236 136 236 190 q 247 76 236 93 q 286 58 258 58 q 315 60 301 58 q 335 61 329 61 l 338 56 l 325 -4 q 276 -1 313 -3 q 199 0 240 0 q 119 -3 163 0 q 61 -8 75 -7 l 68 49 q 125 74 108 56 q 142 131 142 92 l 142 469 q 126 535 142 517 q 74 554 111 554 l 58 554 l 54 560 l 58 606 q 177 628 118 615 q 253 646 236 642 l 261 635 q 253 599 258 626 q 246 543 247 572 l 249 539 q 453 644 407 644 q 592 596 540 644 q 643 465 643 547 q 635 338 643 451 q 624 136 624 193 q 635 77 624 96 q 672 58 646 58 q 701 60 688 58 q 721 61 715 61 l 724 56 l 713 -4 q 665 -1 700 -3 q 589 0 631 0 q 506 -7 553 0 q 446 -17 460 -14 l 451 40 m 578 918 q 487 846 557 903 q 344 724 417 789 l 332 726 l 304 753 q 431 896 367 821 q 513 993 494 971 l 526 990 l 579 933 l 578 918 z "},"ň":{"ha":781,"x_min":54,"x_max":724,"o":"m 451 40 q 511 73 493 51 q 529 131 529 94 l 535 406 q 505 513 535 475 q 419 550 475 550 q 329 527 375 550 q 249 478 283 504 q 236 136 236 190 q 247 76 236 93 q 286 58 258 58 q 315 60 301 58 q 335 61 329 61 l 338 56 l 325 -4 q 276 -1 313 -3 q 199 0 240 0 q 119 -3 163 0 q 61 -8 75 -7 l 68 49 q 125 74 108 56 q 142 131 142 92 l 142 469 q 126 535 142 517 q 74 554 111 554 l 58 554 l 54 560 l 58 606 q 177 628 118 615 q 253 646 236 642 l 261 635 q 253 599 258 626 q 246 543 247 572 l 249 539 q 453 644 407 644 q 592 596 540 644 q 643 465 643 547 q 635 338 643 451 q 624 136 624 193 q 635 77 624 96 q 672 58 646 58 q 701 60 688 58 q 721 61 715 61 l 724 56 l 713 -4 q 665 -1 700 -3 q 589 0 631 0 q 506 -7 553 0 q 446 -17 460 -14 l 451 40 m 224 986 q 401 846 307 914 q 579 986 517 932 l 590 985 l 613 953 q 491 822 553 892 q 411 731 429 751 l 392 731 q 312 822 374 751 q 190 953 250 892 l 213 985 l 224 986 z "},"ņ":{"ha":781,"x_min":54,"x_max":724,"o":"m 451 40 q 511 73 493 51 q 529 131 529 94 l 535 406 q 505 513 535 475 q 419 550 475 550 q 329 527 375 550 q 249 478 283 504 q 236 136 236 190 q 247 76 236 93 q 286 58 258 58 q 315 60 301 58 q 335 61 329 61 l 338 56 l 325 -4 q 276 -1 313 -3 q 199 0 240 0 q 119 -3 163 0 q 61 -8 75 -7 l 68 49 q 125 74 108 56 q 142 131 142 92 l 142 469 q 126 535 142 517 q 74 554 111 554 l 58 554 l 54 560 l 58 606 q 177 628 118 615 q 253 646 236 642 l 261 635 q 253 599 258 626 q 246 543 247 572 l 249 539 q 453 644 407 644 q 592 596 540 644 q 643 465 643 547 q 635 338 643 451 q 624 136 624 193 q 635 77 624 96 q 672 58 646 58 q 701 60 688 58 q 721 61 715 61 l 724 56 l 713 -4 q 665 -1 700 -3 q 589 0 631 0 q 506 -7 553 0 q 446 -17 460 -14 l 451 40 m 314 -129 q 394 -93 361 -93 q 448 -120 426 -93 q 469 -192 469 -147 q 417 -315 469 -260 q 292 -407 364 -369 l 267 -386 l 267 -372 q 338 -308 310 -346 q 367 -235 367 -269 q 351 -185 367 -208 q 311 -149 336 -162 l 314 -129 z "},"ŋ":{"ha":740,"x_min":54,"x_max":643,"o":"m 453 644 q 592 596 540 644 q 643 465 643 547 l 628 133 q 571 -83 619 -8 q 406 -200 522 -157 l 382 -154 l 386 -143 q 475 -77 444 -111 q 519 5 506 -43 q 533 131 532 53 l 535 406 q 505 513 535 475 q 419 550 475 550 q 329 527 375 550 q 249 478 283 504 q 236 136 236 190 q 247 76 236 93 q 286 58 258 58 q 315 60 301 58 q 335 61 329 61 l 338 56 l 325 -4 q 276 -1 313 -3 q 199 0 240 0 q 119 -3 163 0 q 61 -8 75 -7 l 68 49 q 125 74 108 56 q 142 131 142 92 l 142 469 q 126 535 142 517 q 74 554 111 554 l 58 554 l 54 560 l 58 606 q 177 628 118 615 q 253 646 236 642 l 261 635 q 253 599 258 626 q 246 543 247 572 l 249 539 q 453 644 407 644 z "},"ñ":{"ha":781,"x_min":54,"x_max":724,"o":"m 451 40 q 511 73 493 51 q 529 131 529 94 l 535 406 q 505 513 535 475 q 419 550 475 550 q 329 527 375 550 q 249 478 283 504 q 236 136 236 190 q 247 76 236 93 q 286 58 258 58 q 315 60 301 58 q 335 61 329 61 l 338 56 l 325 -4 q 276 -1 313 -3 q 199 0 240 0 q 119 -3 163 0 q 61 -8 75 -7 l 68 49 q 125 74 108 56 q 142 131 142 92 l 142 469 q 126 535 142 517 q 74 554 111 554 l 58 554 l 54 560 l 58 606 q 177 628 118 615 q 253 646 236 642 l 261 635 q 253 599 258 626 q 246 543 247 572 l 249 539 q 453 644 407 644 q 592 596 540 644 q 643 465 643 547 q 635 338 643 451 q 624 136 624 193 q 635 77 624 96 q 672 58 646 58 q 701 60 688 58 q 721 61 715 61 l 724 56 l 713 -4 q 665 -1 700 -3 q 589 0 631 0 q 506 -7 553 0 q 446 -17 460 -14 l 451 40 m 171 801 l 276 925 l 299 931 q 407 906 324 931 q 453 894 419 903 q 501 885 488 885 q 535 901 515 885 q 569 937 554 918 q 589 961 585 956 l 597 961 l 628 932 l 628 925 l 522 801 l 500 796 q 392 821 475 796 q 345 833 379 824 q 297 842 311 842 q 263 825 282 842 q 228 790 243 808 q 210 765 214 771 l 201 765 l 171 794 l 171 801 z "},"o":{"ha":692,"x_min":50,"x_max":642,"o":"m 319 -17 q 179 22 240 -17 q 84 131 118 61 q 50 292 50 201 q 92 470 50 389 q 208 598 135 551 q 372 644 282 644 q 512 606 450 644 q 608 497 574 567 q 642 336 642 426 q 599 158 642 239 q 483 30 557 76 q 319 -17 410 -17 m 358 51 q 482 115 436 51 q 528 286 528 178 q 503 433 528 368 q 433 533 478 497 q 331 569 388 569 q 207 506 253 569 q 161 332 161 442 q 186 186 161 250 q 256 87 211 122 q 358 51 300 51 z "},"ó":{"ha":692,"x_min":50,"x_max":642,"o":"m 319 -17 q 179 22 240 -17 q 84 131 118 61 q 50 292 50 201 q 92 470 50 389 q 208 598 135 551 q 372 644 282 644 q 512 606 450 644 q 608 497 574 567 q 642 336 642 426 q 599 158 642 239 q 483 30 557 76 q 319 -17 410 -17 m 358 51 q 482 115 436 51 q 528 286 528 178 q 503 433 528 368 q 433 533 478 497 q 331 569 388 569 q 207 506 253 569 q 161 332 161 442 q 186 186 161 250 q 256 87 211 122 q 358 51 300 51 m 526 918 q 435 846 506 903 q 293 724 365 789 l 281 726 l 253 753 q 379 896 315 821 q 461 993 443 971 l 475 990 l 528 933 l 526 918 z "},"ŏ":{"ha":692,"x_min":50,"x_max":642,"o":"m 319 -17 q 179 22 240 -17 q 84 131 118 61 q 50 292 50 201 q 92 470 50 389 q 208 598 135 551 q 372 644 282 644 q 512 606 450 644 q 608 497 574 567 q 642 336 642 426 q 599 158 642 239 q 483 30 557 76 q 319 -17 410 -17 m 358 51 q 482 115 436 51 q 528 286 528 178 q 503 433 528 368 q 433 533 478 497 q 331 569 388 569 q 207 506 253 569 q 161 332 161 442 q 186 186 161 250 q 256 87 211 122 q 358 51 300 51 m 367 856 q 447 879 411 856 q 500 947 483 903 l 511 947 l 533 933 q 475 821 517 867 q 367 775 433 775 q 258 821 300 775 q 200 933 217 867 l 222 947 l 233 947 q 286 879 250 903 q 367 856 322 856 z "},"ô":{"ha":692,"x_min":50,"x_max":642,"o":"m 319 -17 q 179 22 240 -17 q 84 131 118 61 q 50 292 50 201 q 92 470 50 389 q 208 598 135 551 q 372 644 282 644 q 512 606 450 644 q 608 497 574 567 q 642 336 642 426 q 599 158 642 239 q 483 30 557 76 q 319 -17 410 -17 m 358 51 q 482 115 436 51 q 528 286 528 178 q 503 433 528 368 q 433 533 478 497 q 331 569 388 569 q 207 506 253 569 q 161 332 161 442 q 186 186 161 250 q 256 87 211 122 q 358 51 300 51 m 147 764 q 263 890 204 824 q 339 976 322 957 l 358 976 q 434 890 375 957 q 550 764 493 822 l 531 733 l 518 732 q 378 844 465 779 l 349 867 q 179 732 240 786 l 167 733 l 147 764 z "},"ö":{"ha":692,"x_min":50,"x_max":642,"o":"m 319 -17 q 179 22 240 -17 q 84 131 118 61 q 50 292 50 201 q 92 470 50 389 q 208 598 135 551 q 372 644 282 644 q 512 606 450 644 q 608 497 574 567 q 642 336 642 426 q 599 158 642 239 q 483 30 557 76 q 319 -17 410 -17 m 358 51 q 482 115 436 51 q 528 286 528 178 q 503 433 528 368 q 433 533 478 497 q 331 569 388 569 q 207 506 253 569 q 161 332 161 442 q 186 186 161 250 q 256 87 211 122 q 358 51 300 51 m 225 786 q 183 804 199 786 q 168 846 168 822 q 188 895 168 875 q 238 915 208 915 q 279 898 264 915 q 294 856 294 881 q 274 806 294 826 q 225 786 254 786 m 456 786 q 414 804 429 786 q 399 846 399 822 q 419 895 399 875 q 468 915 439 915 q 510 898 494 915 q 525 856 525 881 q 505 806 525 826 q 456 786 485 786 z "},"ò":{"ha":692,"x_min":50,"x_max":642,"o":"m 319 -17 q 179 22 240 -17 q 84 131 118 61 q 50 292 50 201 q 92 470 50 389 q 208 598 135 551 q 372 644 282 644 q 512 606 450 644 q 608 497 574 567 q 642 336 642 426 q 599 158 642 239 q 483 30 557 76 q 319 -17 410 -17 m 358 51 q 482 115 436 51 q 528 286 528 178 q 503 433 528 368 q 433 533 478 497 q 331 569 388 569 q 207 506 253 569 q 161 332 161 442 q 186 186 161 250 q 256 87 211 122 q 358 51 300 51 m 240 992 q 322 895 258 969 q 449 753 386 821 l 421 726 l 408 724 q 265 846 335 790 q 175 917 196 901 l 174 932 l 226 989 l 240 992 z "},"ő":{"ha":692,"x_min":50,"x_max":642,"o":"m 319 -17 q 179 22 240 -17 q 84 131 118 61 q 50 292 50 201 q 92 470 50 389 q 208 598 135 551 q 372 644 282 644 q 512 606 450 644 q 608 497 574 567 q 642 336 642 426 q 599 158 642 239 q 483 30 557 76 q 319 -17 410 -17 m 358 51 q 482 115 436 51 q 528 286 528 178 q 503 433 528 368 q 433 533 478 497 q 331 569 388 569 q 207 506 253 569 q 161 332 161 442 q 186 186 161 250 q 256 87 211 122 q 358 51 300 51 m 438 910 q 355 847 419 896 q 222 742 290 799 l 210 744 l 188 769 q 304 894 244 828 q 382 979 364 960 l 394 975 l 440 922 l 438 910 m 615 910 q 533 847 597 896 q 400 742 468 799 l 388 744 l 365 769 q 482 894 422 828 q 560 979 542 960 l 572 975 l 618 922 l 615 910 z "},"ō":{"ha":692,"x_min":50,"x_max":642,"o":"m 319 -17 q 179 22 240 -17 q 84 131 118 61 q 50 292 50 201 q 92 470 50 389 q 208 598 135 551 q 372 644 282 644 q 512 606 450 644 q 608 497 574 567 q 642 336 642 426 q 599 158 642 239 q 483 30 557 76 q 319 -17 410 -17 m 358 51 q 482 115 436 51 q 528 286 528 178 q 503 433 528 368 q 433 533 478 497 q 331 569 388 569 q 207 506 253 569 q 161 332 161 442 q 186 186 161 250 q 256 87 211 122 q 358 51 300 51 m 349 826 l 149 825 l 140 838 l 154 900 l 368 899 q 470 902 411 899 q 547 907 529 906 l 556 893 l 546 828 l 349 826 z "},"ø":{"ha":692,"x_min":50,"x_max":642,"o":"m 518 601 q 609 493 576 563 q 642 336 642 424 q 599 158 642 239 q 483 30 557 76 q 319 -17 410 -17 q 207 7 258 -17 l 131 -136 l 93 -128 l 90 -114 l 165 32 q 81 139 111 72 q 50 292 50 206 q 92 470 50 389 q 208 598 135 551 q 372 644 282 644 q 474 625 426 644 l 539 749 l 579 739 l 583 722 l 518 601 m 331 569 q 207 506 253 569 q 161 332 161 442 q 176 219 161 271 q 217 129 190 167 l 428 538 q 331 569 385 569 m 358 51 q 482 115 436 51 q 528 286 528 178 q 465 501 528 422 l 251 90 q 358 51 299 51 z "},"ǿ":{"ha":692,"x_min":50,"x_max":642,"o":"m 518 601 q 609 493 576 563 q 642 336 642 424 q 599 158 642 239 q 483 30 557 76 q 319 -17 410 -17 q 207 7 258 -17 l 131 -136 l 93 -128 l 90 -114 l 165 32 q 81 139 111 72 q 50 292 50 206 q 92 470 50 389 q 208 598 135 551 q 372 644 282 644 q 474 625 426 644 l 539 749 l 579 739 l 583 722 l 518 601 m 331 569 q 207 506 253 569 q 161 332 161 442 q 176 219 161 271 q 217 129 190 167 l 428 538 q 331 569 385 569 m 358 51 q 482 115 436 51 q 528 286 528 178 q 465 501 528 422 l 251 90 q 358 51 299 51 m 535 918 q 444 846 514 903 q 301 724 374 789 l 289 726 l 261 753 q 388 896 324 821 q 469 993 451 971 l 483 990 l 536 933 l 535 918 z "},"õ":{"ha":692,"x_min":50,"x_max":642,"o":"m 319 -17 q 179 22 240 -17 q 84 131 118 61 q 50 292 50 201 q 92 470 50 389 q 208 598 135 551 q 372 644 282 644 q 512 606 450 644 q 608 497 574 567 q 642 336 642 426 q 599 158 642 239 q 483 30 557 76 q 319 -17 410 -17 m 358 51 q 482 115 436 51 q 528 286 528 178 q 503 433 528 368 q 433 533 478 497 q 331 569 388 569 q 207 506 253 569 q 161 332 161 442 q 186 186 161 250 q 256 87 211 122 q 358 51 300 51 m 119 801 l 225 925 l 247 931 q 356 906 272 931 q 402 894 368 903 q 450 885 436 885 q 483 901 464 885 q 518 937 503 918 q 538 961 533 956 l 546 961 l 576 932 l 576 925 l 471 801 l 449 796 q 340 821 424 796 q 294 833 328 824 q 246 842 260 842 q 211 825 231 842 q 177 790 192 808 q 158 765 163 771 l 150 765 l 119 794 l 119 801 z "},"œ":{"ha":1071,"x_min":50,"x_max":1015,"o":"m 810 78 q 886 88 849 78 q 949 108 924 97 q 981 121 974 118 l 989 118 l 1004 78 q 959 48 994 71 q 876 4 924 25 q 792 -17 829 -17 q 550 103 626 -17 q 444 15 506 46 q 313 -17 383 -17 q 176 22 236 -17 q 83 131 117 61 q 50 292 50 201 q 92 470 50 389 q 206 598 133 551 q 365 644 278 644 q 488 613 433 644 q 578 524 543 582 q 688 615 625 585 q 807 644 750 644 q 960 596 906 644 q 1015 458 1015 547 q 1012 417 1015 436 q 1005 388 1008 399 q 1000 375 1001 378 l 982 358 l 604 358 l 604 336 q 660 149 604 219 q 810 78 717 78 m 781 574 q 669 529 715 574 q 610 410 622 485 l 861 422 q 889 431 882 424 q 896 460 896 439 q 866 544 896 515 q 781 574 836 574 m 351 51 q 470 115 426 51 q 514 286 514 178 q 490 433 514 368 q 422 533 465 497 q 324 569 379 569 q 205 506 249 569 q 161 332 161 442 q 185 186 161 250 q 253 87 210 122 q 351 51 296 51 z "},"p":{"ha":733,"x_min":56,"x_max":683,"o":"m 69 -275 q 115 -262 100 -271 q 135 -235 129 -254 q 140 -175 140 -215 q 142 -75 140 -117 l 143 56 l 143 469 q 128 535 143 517 q 75 554 113 554 l 60 554 l 56 560 l 60 606 q 178 628 119 615 q 254 646 238 642 l 263 635 q 256 605 261 628 q 249 560 251 582 l 254 550 q 415 640 385 640 q 556 603 494 640 q 650 500 617 567 q 683 347 683 433 q 636 165 683 249 q 510 33 589 82 q 338 -17 431 -17 q 277 -15 307 -17 q 236 -11 247 -12 l 238 -154 q 251 -241 238 -218 q 303 -264 264 -264 l 350 -262 l 353 -267 l 342 -319 l 210 -319 q 117 -324 160 -319 q 63 -329 75 -328 l 69 -275 m 238 86 q 303 67 265 75 q 376 60 342 60 q 523 123 469 60 q 576 296 576 186 q 552 422 576 365 q 485 513 528 479 q 393 546 443 546 q 325 527 365 546 q 249 478 285 508 q 238 86 238 296 z "},"þ":{"ha":708,"x_min":29,"x_max":656,"o":"m 118 869 q 67 944 118 944 q 46 942 57 944 q 32 939 35 940 q 35 964 32 947 l 38 990 q 161 1013 97 999 q 243 1031 225 1026 l 251 1013 q 233 871 242 999 q 219 547 225 743 q 328 619 285 593 q 388 644 372 644 q 444 639 421 644 q 598 541 540 619 q 656 347 656 463 q 609 165 656 249 q 483 33 563 82 q 310 -17 403 -17 q 211 -11 260 -17 l 211 -111 q 215 -204 211 -174 q 233 -249 219 -235 q 278 -264 247 -264 l 325 -262 l 328 -267 l 317 -319 l 229 -319 q 97 -323 165 -319 q 29 -329 29 -326 l 36 -275 q 92 -257 75 -271 q 111 -219 108 -243 q 115 -135 114 -196 l 118 131 l 118 869 m 213 89 q 276 68 238 76 q 349 60 315 60 q 495 124 442 60 q 549 296 549 188 q 524 424 549 365 q 458 516 500 482 q 365 550 415 550 q 297 529 339 550 q 217 475 256 508 l 213 89 z "},"q":{"ha":717,"x_min":50,"x_max":674,"o":"m 394 -272 q 453 -263 435 -269 q 478 -240 471 -257 q 486 -187 485 -224 l 492 83 q 318 -17 347 -17 q 179 21 240 -17 q 84 126 118 58 q 50 281 50 193 q 97 463 50 379 q 223 595 143 546 q 396 644 303 644 q 524 632 461 644 q 574 652 553 643 q 600 664 594 661 l 611 651 q 592 408 599 621 q 585 -147 585 196 q 588 -224 585 -200 q 602 -256 592 -247 q 635 -264 613 -264 q 658 -263 649 -264 q 671 -262 668 -262 l 674 -265 l 664 -319 l 536 -319 q 449 -322 496 -319 q 388 -325 401 -324 l 394 -272 m 492 532 q 471 542 488 535 q 424 557 454 550 q 357 564 394 564 q 210 501 264 564 q 157 328 157 438 q 181 200 157 258 q 248 108 206 142 q 340 74 290 74 q 403 91 369 74 q 461 127 438 108 q 492 151 485 146 l 492 532 z "},"r":{"ha":532,"x_min":63,"x_max":500,"o":"m 82 50 q 138 77 124 54 q 151 165 151 100 l 151 471 q 139 536 151 517 q 99 556 126 556 q 80 554 88 556 q 69 551 72 553 l 63 561 l 67 604 q 178 628 119 614 q 254 646 238 642 l 264 638 q 256 580 261 625 q 251 494 250 535 l 257 490 q 355 597 299 556 q 453 639 411 639 q 483 637 472 639 q 496 633 493 635 l 500 628 q 488 545 497 608 q 478 429 479 482 l 424 425 q 416 501 424 482 q 386 519 408 519 q 321 494 356 519 q 257 425 286 468 q 251 292 256 385 q 246 142 247 199 q 260 78 246 94 q 313 61 274 61 q 349 63 331 61 q 374 64 367 64 l 375 58 l 363 -3 q 307 -1 349 -3 q 221 0 265 0 q 128 -2 169 0 q 75 -6 86 -4 l 82 50 z "},"ŕ":{"ha":532,"x_min":63,"x_max":500,"o":"m 82 50 q 138 77 124 54 q 151 165 151 100 l 151 471 q 139 536 151 517 q 99 556 126 556 q 80 554 88 556 q 69 551 72 553 l 63 561 l 67 604 q 178 628 119 614 q 254 646 238 642 l 264 638 q 256 580 261 625 q 251 494 250 535 l 257 490 q 355 597 299 556 q 453 639 411 639 q 483 637 472 639 q 496 633 493 635 l 500 628 q 488 545 497 608 q 478 429 479 482 l 424 425 q 416 501 424 482 q 386 519 408 519 q 321 494 356 519 q 257 425 286 468 q 251 292 256 385 q 246 142 247 199 q 260 78 246 94 q 313 61 274 61 q 349 63 331 61 q 374 64 367 64 l 375 58 l 363 -3 q 307 -1 349 -3 q 221 0 265 0 q 128 -2 169 0 q 75 -6 86 -4 l 82 50 m 456 918 q 365 846 435 903 q 222 724 294 789 l 210 726 l 182 753 q 308 896 244 821 q 390 993 372 971 l 404 990 l 457 933 l 456 918 z "},"ř":{"ha":532,"x_min":63,"x_max":500,"o":"m 82 50 q 138 77 124 54 q 151 165 151 100 l 151 471 q 139 536 151 517 q 99 556 126 556 q 80 554 88 556 q 69 551 72 553 l 63 561 l 67 604 q 178 628 119 614 q 254 646 238 642 l 264 638 q 256 580 261 625 q 251 494 250 535 l 257 490 q 355 597 299 556 q 453 639 411 639 q 483 637 472 639 q 496 633 493 635 l 500 628 q 488 545 497 608 q 478 429 479 482 l 424 425 q 416 501 424 482 q 386 519 408 519 q 321 494 356 519 q 257 425 286 468 q 251 292 256 385 q 246 142 247 199 q 260 78 246 94 q 313 61 274 61 q 349 63 331 61 q 374 64 367 64 l 375 58 l 363 -3 q 307 -1 349 -3 q 221 0 265 0 q 128 -2 169 0 q 75 -6 86 -4 l 82 50 m 101 986 q 279 846 185 914 q 457 986 394 932 l 468 985 l 490 953 q 369 822 431 892 q 289 731 307 751 l 269 731 q 190 822 251 751 q 68 953 128 892 l 90 985 l 101 986 z "},"ŗ":{"ha":532,"x_min":63,"x_max":500,"o":"m 82 50 q 138 77 124 54 q 151 165 151 100 l 151 471 q 139 536 151 517 q 99 556 126 556 q 80 554 88 556 q 69 551 72 553 l 63 561 l 67 604 q 178 628 119 614 q 254 646 238 642 l 264 638 q 256 580 261 625 q 251 494 250 535 l 257 490 q 355 597 299 556 q 453 639 411 639 q 483 637 472 639 q 496 633 493 635 l 500 628 q 488 545 497 608 q 478 429 479 482 l 424 425 q 416 501 424 482 q 386 519 408 519 q 321 494 356 519 q 257 425 286 468 q 251 292 256 385 q 246 142 247 199 q 260 78 246 94 q 313 61 274 61 q 349 63 331 61 q 374 64 367 64 l 375 58 l 363 -3 q 307 -1 349 -3 q 221 0 265 0 q 128 -2 169 0 q 75 -6 86 -4 l 82 50 m 151 -129 q 232 -93 199 -93 q 285 -120 264 -93 q 307 -192 307 -147 q 254 -315 307 -260 q 129 -407 201 -369 l 104 -386 l 104 -372 q 176 -308 147 -346 q 204 -235 204 -269 q 189 -185 204 -208 q 149 -149 174 -162 l 151 -129 z "},"s":{"ha":558,"x_min":68,"x_max":492,"o":"m 238 -17 q 156 -10 193 -17 q 99 3 119 -4 q 72 13 78 10 l 68 22 q 78 108 72 43 q 85 208 83 174 l 133 215 q 164 86 133 124 q 268 49 194 49 q 357 72 321 49 q 393 131 393 96 q 360 194 393 165 q 232 274 328 222 q 117 355 153 314 q 81 446 81 396 q 114 547 81 501 q 206 619 147 593 q 336 644 264 644 q 400 640 369 644 q 450 629 431 635 q 475 622 469 624 l 478 615 q 465 552 475 601 q 451 446 456 503 l 400 442 q 401 458 400 446 q 403 482 403 471 q 376 555 403 532 q 289 578 349 578 q 209 556 242 578 q 176 501 176 533 q 205 439 176 468 q 297 376 233 410 q 451 276 410 317 q 492 183 492 236 q 456 85 492 131 q 363 11 421 39 q 238 -17 304 -17 z "},"ś":{"ha":558,"x_min":68,"x_max":492,"o":"m 238 -17 q 156 -10 193 -17 q 99 3 119 -4 q 72 13 78 10 l 68 22 q 78 108 72 43 q 85 208 83 174 l 133 215 q 164 86 133 124 q 268 49 194 49 q 357 72 321 49 q 393 131 393 96 q 360 194 393 165 q 232 274 328 222 q 117 355 153 314 q 81 446 81 396 q 114 547 81 501 q 206 619 147 593 q 336 644 264 644 q 400 640 369 644 q 450 629 431 635 q 475 622 469 624 l 478 615 q 465 552 475 601 q 451 446 456 503 l 400 442 q 401 458 400 446 q 403 482 403 471 q 376 555 403 532 q 289 578 349 578 q 209 556 242 578 q 176 501 176 533 q 205 439 176 468 q 297 376 233 410 q 451 276 410 317 q 492 183 492 236 q 456 85 492 131 q 363 11 421 39 q 238 -17 304 -17 m 471 918 q 380 846 450 903 q 238 724 310 789 l 225 726 l 197 753 q 324 896 260 821 q 406 993 388 971 l 419 990 l 472 933 l 471 918 z "},"š":{"ha":558,"x_min":68,"x_max":506,"o":"m 238 -17 q 156 -10 193 -17 q 99 3 119 -4 q 72 13 78 10 l 68 22 q 78 108 72 43 q 85 208 83 174 l 133 215 q 164 86 133 124 q 268 49 194 49 q 357 72 321 49 q 393 131 393 96 q 360 194 393 165 q 232 274 328 222 q 117 355 153 314 q 81 446 81 396 q 114 547 81 501 q 206 619 147 593 q 336 644 264 644 q 400 640 369 644 q 450 629 431 635 q 475 622 469 624 l 478 615 q 465 552 475 601 q 451 446 456 503 l 400 442 q 401 458 400 446 q 403 482 403 471 q 376 555 403 532 q 289 578 349 578 q 209 556 242 578 q 176 501 176 533 q 205 439 176 468 q 297 376 233 410 q 451 276 410 317 q 492 183 492 236 q 456 85 492 131 q 363 11 421 39 q 238 -17 304 -17 m 117 986 q 294 846 200 914 q 472 986 410 932 l 483 985 l 506 953 q 384 822 446 892 q 304 731 322 751 l 285 731 q 205 822 267 751 q 83 953 143 892 l 106 985 l 117 986 z "},"ş":{"ha":558,"x_min":68,"x_max":492,"o":"m 492 183 q 434 60 492 115 q 292 -11 376 4 l 272 -69 q 316 -99 282 -76 q 370 -146 350 -122 q 390 -193 390 -169 q 365 -258 390 -228 q 301 -306 340 -287 q 224 -324 263 -324 q 159 -310 189 -324 q 129 -274 129 -296 q 164 -196 129 -251 l 176 -196 q 199 -254 178 -233 q 253 -275 219 -275 q 300 -260 281 -275 q 319 -222 319 -246 q 288 -174 319 -200 q 201 -118 256 -149 l 232 -17 q 152 -10 188 -17 q 97 3 117 -3 q 72 13 78 10 l 68 22 q 78 108 72 43 q 85 208 83 174 l 133 215 q 164 86 133 124 q 268 49 194 49 q 357 72 321 49 q 393 131 393 96 q 360 194 393 165 q 232 274 328 222 q 117 355 153 314 q 81 446 81 396 q 114 547 81 501 q 206 619 147 593 q 336 644 264 644 q 400 640 369 644 q 450 629 431 635 q 475 622 469 624 l 478 615 q 465 552 475 601 q 451 446 456 503 l 400 442 q 401 458 400 446 q 403 482 403 471 q 376 555 403 532 q 289 578 349 578 q 209 556 242 578 q 176 501 176 533 q 205 439 176 468 q 297 376 233 410 q 451 276 410 317 q 492 183 492 236 z "},"ŝ":{"ha":558,"x_min":68,"x_max":492,"o":"m 238 -17 q 156 -10 193 -17 q 99 3 119 -4 q 72 13 78 10 l 68 22 q 78 108 72 43 q 85 208 83 174 l 133 215 q 164 86 133 124 q 268 49 194 49 q 357 72 321 49 q 393 131 393 96 q 360 194 393 165 q 232 274 328 222 q 117 355 153 314 q 81 446 81 396 q 114 547 81 501 q 206 619 147 593 q 336 644 264 644 q 400 640 369 644 q 450 629 431 635 q 475 622 469 624 l 478 615 q 465 552 475 601 q 451 446 456 503 l 400 442 q 401 458 400 446 q 403 482 403 471 q 376 555 403 532 q 289 578 349 578 q 209 556 242 578 q 176 501 176 533 q 205 439 176 468 q 297 376 233 410 q 451 276 410 317 q 492 183 492 236 q 456 85 492 131 q 363 11 421 39 q 238 -17 304 -17 m 78 764 q 194 890 135 824 q 269 976 253 957 l 289 976 q 365 890 306 957 q 481 764 424 822 l 461 733 l 449 732 q 308 844 396 779 l 279 867 q 110 732 171 786 l 97 733 l 78 764 z "},"ș":{"ha":558,"x_min":68,"x_max":492,"o":"m 238 -17 q 156 -10 193 -17 q 99 3 119 -4 q 72 13 78 10 l 68 22 q 78 108 72 43 q 85 208 83 174 l 133 215 q 164 86 133 124 q 268 49 194 49 q 357 72 321 49 q 393 131 393 96 q 360 194 393 165 q 232 274 328 222 q 117 355 153 314 q 81 446 81 396 q 114 547 81 501 q 206 619 147 593 q 336 644 264 644 q 400 640 369 644 q 450 629 431 635 q 475 622 469 624 l 478 615 q 465 552 475 601 q 451 446 456 503 l 400 442 q 401 458 400 446 q 403 482 403 471 q 376 555 403 532 q 289 578 349 578 q 209 556 242 578 q 176 501 176 533 q 205 439 176 468 q 297 376 233 410 q 451 276 410 317 q 492 183 492 236 q 456 85 492 131 q 363 11 421 39 q 238 -17 304 -17 m 208 -129 q 289 -93 256 -93 q 342 -120 321 -93 q 364 -192 364 -147 q 311 -315 364 -260 q 186 -407 258 -369 l 161 -386 l 161 -372 q 233 -308 204 -346 q 261 -235 261 -269 q 246 -185 261 -208 q 206 -149 231 -162 l 208 -129 z "},"ß":{"ha":821,"x_min":57,"x_max":808,"o":"m 400 57 q 418 116 400 76 q 453 176 436 156 l 472 176 q 507 79 472 114 q 604 44 542 44 q 678 80 646 44 q 710 160 710 115 q 676 239 710 206 q 572 315 642 272 q 484 378 517 351 q 428 441 451 404 q 404 525 404 478 q 429 606 404 571 q 503 688 454 642 q 565 755 543 726 q 586 817 586 783 q 538 913 586 878 q 410 949 490 949 q 292 886 331 949 q 253 692 254 824 l 244 136 q 258 80 243 100 q 299 60 272 60 q 343 60 326 60 q 364 61 360 61 l 367 56 l 357 -3 q 300 -1 342 -3 q 219 0 258 0 q 124 -2 171 0 q 64 -6 78 -4 l 71 49 q 135 76 119 54 q 150 150 150 97 l 150 506 q 130 548 149 536 q 63 563 111 560 l 57 571 l 67 618 l 150 633 q 235 926 150 821 q 471 1031 319 1031 q 574 1006 525 1031 q 652 943 622 982 q 682 861 682 904 q 657 765 682 804 q 582 674 632 725 q 526 610 544 636 q 507 551 507 583 q 538 487 507 515 q 633 419 569 458 q 724 358 689 385 q 783 292 758 331 q 808 204 808 253 q 774 95 808 146 q 683 14 740 44 q 561 -17 626 -17 q 447 5 493 -17 q 400 57 400 26 z "},"t":{"ha":458,"x_min":29,"x_max":433,"o":"m 114 493 q 97 546 114 531 q 35 563 81 561 l 29 571 l 36 613 q 115 660 76 632 q 177 710 153 689 q 208 739 201 732 l 236 728 q 232 694 235 721 q 225 624 229 668 l 429 628 l 433 624 l 421 550 l 219 554 q 210 207 210 401 q 234 107 210 136 q 318 78 258 78 q 360 83 339 78 q 394 95 381 89 q 413 103 408 101 l 426 67 q 391 40 418 60 q 333 2 364 21 q 286 -17 301 -17 q 153 22 192 -17 q 114 151 114 60 l 114 493 z "},"ŧ":{"ha":469,"x_min":29,"x_max":433,"o":"m 318 78 q 360 83 339 78 q 394 95 381 89 q 413 103 408 101 l 426 67 q 391 40 418 60 q 333 2 364 21 q 286 -17 301 -17 q 153 22 192 -17 q 114 151 114 60 l 114 332 l 42 331 l 29 343 l 39 397 l 114 396 l 114 493 q 97 546 114 531 q 35 563 81 561 l 29 571 l 36 613 q 115 660 76 632 q 177 710 153 689 q 208 739 201 732 l 236 728 q 232 694 235 721 q 225 624 229 668 l 429 628 l 433 624 l 421 550 l 219 554 q 213 396 214 471 l 229 396 q 315 399 267 396 q 379 403 364 401 l 397 385 l 392 333 l 211 332 l 210 207 q 234 107 210 136 q 318 78 258 78 z "},"ť":{"ha":533,"x_min":29,"x_max":556,"o":"m 114 493 q 97 546 114 531 q 35 563 81 561 l 29 571 l 36 613 q 115 660 76 632 q 177 710 153 689 q 208 739 201 732 l 236 728 q 232 694 235 721 q 225 624 229 668 l 401 628 l 406 624 l 393 550 l 219 554 q 210 207 210 401 q 234 107 210 136 q 318 78 258 78 q 360 83 339 78 q 394 95 381 89 q 413 103 408 101 l 426 67 q 391 40 418 60 q 333 2 364 21 q 286 -17 301 -17 q 153 22 192 -17 q 114 151 114 60 l 114 493 m 556 701 q 539 585 553 675 q 507 407 525 496 l 472 388 l 457 390 q 458 465 458 415 q 454 609 458 543 q 449 693 450 675 l 546 713 l 556 701 z "},"ţ":{"ha":458,"x_min":29,"x_max":433,"o":"m 269 -17 l 251 -69 q 295 -99 261 -76 q 349 -146 329 -122 q 369 -193 369 -169 q 344 -258 369 -228 q 281 -306 319 -287 q 203 -324 242 -324 q 138 -310 168 -324 q 108 -274 108 -296 q 143 -196 108 -251 l 156 -196 q 178 -254 157 -233 q 232 -275 199 -275 q 279 -260 260 -275 q 299 -222 299 -246 q 267 -174 299 -200 q 181 -118 235 -149 l 214 -10 q 137 41 160 3 q 114 151 114 79 l 114 493 q 97 546 114 531 q 35 563 81 561 l 29 571 l 36 613 q 115 660 76 632 q 177 710 153 689 q 208 739 201 732 l 236 728 q 232 694 235 721 q 225 624 229 668 l 429 628 l 433 624 l 421 550 l 219 554 q 210 207 210 401 q 234 107 210 136 q 318 78 258 78 q 360 83 339 78 q 394 95 381 89 q 413 103 408 101 l 426 67 q 391 40 418 60 q 333 2 364 21 q 286 -17 301 -17 l 269 -17 z "},"ț":{"ha":458,"x_min":29,"x_max":433,"o":"m 114 493 q 97 546 114 531 q 35 563 81 561 l 29 571 l 36 613 q 115 660 76 632 q 177 710 153 689 q 208 739 201 732 l 236 728 q 232 694 235 721 q 225 624 229 668 l 429 628 l 433 624 l 421 550 l 219 554 q 210 207 210 401 q 234 107 210 136 q 318 78 258 78 q 360 83 339 78 q 394 95 381 89 q 413 103 408 101 l 426 67 q 391 40 418 60 q 333 2 364 21 q 286 -17 301 -17 q 153 22 192 -17 q 114 151 114 60 l 114 493 m 174 -129 q 254 -93 221 -93 q 308 -120 286 -93 q 329 -192 329 -147 q 276 -315 329 -260 q 151 -407 224 -369 l 126 -386 l 126 -372 q 198 -308 169 -346 q 226 -235 226 -269 q 211 -185 226 -208 q 171 -149 196 -162 l 174 -129 z "},"u":{"ha":751,"x_min":39,"x_max":749,"o":"m 125 482 q 74 557 125 557 q 53 555 64 557 q 39 551 42 553 l 44 603 q 161 626 99 611 q 243 644 224 640 l 251 628 q 226 464 238 592 q 215 215 215 336 q 326 79 215 79 q 404 99 368 79 q 494 158 440 119 l 494 481 q 479 539 494 522 q 425 556 464 556 l 392 554 l 397 604 q 525 626 458 613 q 611 644 592 640 l 619 628 q 598 454 607 596 q 589 146 589 313 q 604 99 589 115 q 646 82 619 82 q 684 90 665 82 q 715 106 703 97 q 729 117 726 114 l 749 94 q 723 60 743 86 q 676 8 703 33 q 628 -17 649 -17 q 504 96 515 -17 l 497 99 q 377 15 431 47 q 304 -17 324 -17 q 167 25 215 -17 q 119 144 119 67 l 125 482 z "},"ú":{"ha":751,"x_min":39,"x_max":749,"o":"m 125 482 q 74 557 125 557 q 53 555 64 557 q 39 551 42 553 l 44 603 q 161 626 99 611 q 243 644 224 640 l 251 628 q 226 464 238 592 q 215 215 215 336 q 326 79 215 79 q 404 99 368 79 q 494 158 440 119 l 494 481 q 479 539 494 522 q 425 556 464 556 l 392 554 l 397 604 q 525 626 458 613 q 611 644 592 640 l 619 628 q 598 454 607 596 q 589 146 589 313 q 604 99 589 115 q 646 82 619 82 q 684 90 665 82 q 715 106 703 97 q 729 117 726 114 l 749 94 q 723 60 743 86 q 676 8 703 33 q 628 -17 649 -17 q 504 96 515 -17 l 497 99 q 377 15 431 47 q 304 -17 324 -17 q 167 25 215 -17 q 119 144 119 67 l 125 482 m 533 918 q 442 846 513 903 q 300 724 372 789 l 288 726 l 260 753 q 386 896 322 821 q 468 993 450 971 l 482 990 l 535 933 l 533 918 z "},"ŭ":{"ha":751,"x_min":39,"x_max":749,"o":"m 125 482 q 74 557 125 557 q 53 555 64 557 q 39 551 42 553 l 44 603 q 161 626 99 611 q 243 644 224 640 l 251 628 q 226 464 238 592 q 215 215 215 336 q 326 79 215 79 q 404 99 368 79 q 494 158 440 119 l 494 481 q 479 539 494 522 q 425 556 464 556 l 392 554 l 397 604 q 525 626 458 613 q 611 644 592 640 l 619 628 q 598 454 607 596 q 589 146 589 313 q 604 99 589 115 q 646 82 619 82 q 684 90 665 82 q 715 106 703 97 q 729 117 726 114 l 749 94 q 723 60 743 86 q 676 8 703 33 q 628 -17 649 -17 q 504 96 515 -17 l 497 99 q 377 15 431 47 q 304 -17 324 -17 q 167 25 215 -17 q 119 144 119 67 l 125 482 m 378 856 q 458 879 422 856 q 511 947 494 903 l 522 947 l 544 933 q 486 821 528 867 q 378 775 444 775 q 269 821 311 775 q 211 933 228 867 l 233 947 l 244 947 q 297 879 261 903 q 378 856 333 856 z "},"û":{"ha":751,"x_min":39,"x_max":749,"o":"m 125 482 q 74 557 125 557 q 53 555 64 557 q 39 551 42 553 l 44 603 q 161 626 99 611 q 243 644 224 640 l 251 628 q 226 464 238 592 q 215 215 215 336 q 326 79 215 79 q 404 99 368 79 q 494 158 440 119 l 494 481 q 479 539 494 522 q 425 556 464 556 l 392 554 l 397 604 q 525 626 458 613 q 611 644 592 640 l 619 628 q 598 454 607 596 q 589 146 589 313 q 604 99 589 115 q 646 82 619 82 q 684 90 665 82 q 715 106 703 97 q 729 117 726 114 l 749 94 q 723 60 743 86 q 676 8 703 33 q 628 -17 649 -17 q 504 96 515 -17 l 497 99 q 377 15 431 47 q 304 -17 324 -17 q 167 25 215 -17 q 119 144 119 67 l 125 482 m 154 764 q 270 890 211 824 q 346 976 329 957 l 365 976 q 441 890 382 957 q 557 764 500 822 l 538 733 l 525 732 q 385 844 472 779 l 356 867 q 186 732 247 786 l 174 733 l 154 764 z "},"ü":{"ha":751,"x_min":39,"x_max":749,"o":"m 125 482 q 74 557 125 557 q 53 555 64 557 q 39 551 42 553 l 44 603 q 161 626 99 611 q 243 644 224 640 l 251 628 q 226 464 238 592 q 215 215 215 336 q 326 79 215 79 q 404 99 368 79 q 494 158 440 119 l 494 481 q 479 539 494 522 q 425 556 464 556 l 392 554 l 397 604 q 525 626 458 613 q 611 644 592 640 l 619 628 q 598 454 607 596 q 589 146 589 313 q 604 99 589 115 q 646 82 619 82 q 684 90 665 82 q 715 106 703 97 q 729 117 726 114 l 749 94 q 723 60 743 86 q 676 8 703 33 q 628 -17 649 -17 q 504 96 515 -17 l 497 99 q 377 15 431 47 q 304 -17 324 -17 q 167 25 215 -17 q 119 144 119 67 l 125 482 m 232 786 q 190 804 206 786 q 175 846 175 822 q 195 895 175 875 q 244 915 215 915 q 286 898 271 915 q 301 856 301 881 q 281 806 301 826 q 232 786 261 786 m 463 786 q 421 804 436 786 q 406 846 406 822 q 426 895 406 875 q 475 915 446 915 q 517 898 501 915 q 532 856 532 881 q 512 806 532 826 q 463 786 492 786 z "},"ù":{"ha":751,"x_min":39,"x_max":749,"o":"m 125 482 q 74 557 125 557 q 53 555 64 557 q 39 551 42 553 l 44 603 q 161 626 99 611 q 243 644 224 640 l 251 628 q 226 464 238 592 q 215 215 215 336 q 326 79 215 79 q 404 99 368 79 q 494 158 440 119 l 494 481 q 479 539 494 522 q 425 556 464 556 l 392 554 l 397 604 q 525 626 458 613 q 611 644 592 640 l 619 628 q 598 454 607 596 q 589 146 589 313 q 604 99 589 115 q 646 82 619 82 q 684 90 665 82 q 715 106 703 97 q 729 117 726 114 l 749 94 q 723 60 743 86 q 676 8 703 33 q 628 -17 649 -17 q 504 96 515 -17 l 497 99 q 377 15 431 47 q 304 -17 324 -17 q 167 25 215 -17 q 119 144 119 67 l 125 482 m 247 992 q 329 895 265 969 q 456 753 393 821 l 428 726 l 415 724 q 272 846 342 790 q 182 917 203 901 l 181 932 l 233 989 l 247 992 z "},"ű":{"ha":751,"x_min":39,"x_max":749,"o":"m 125 482 q 74 557 125 557 q 53 555 64 557 q 39 551 42 553 l 44 603 q 161 626 99 611 q 243 644 224 640 l 251 628 q 226 464 238 592 q 215 215 215 336 q 326 79 215 79 q 404 99 368 79 q 494 158 440 119 l 494 481 q 479 539 494 522 q 425 556 464 556 l 392 554 l 397 604 q 525 626 458 613 q 611 644 592 640 l 619 628 q 598 454 607 596 q 589 146 589 313 q 604 99 589 115 q 646 82 619 82 q 684 90 665 82 q 715 106 703 97 q 729 117 726 114 l 749 94 q 723 60 743 86 q 676 8 703 33 q 628 -17 649 -17 q 504 96 515 -17 l 497 99 q 377 15 431 47 q 304 -17 324 -17 q 167 25 215 -17 q 119 144 119 67 l 125 482 m 444 910 q 362 847 426 896 q 229 742 297 799 l 217 744 l 194 769 q 311 894 251 828 q 389 979 371 960 l 401 975 l 447 922 l 444 910 m 622 910 q 540 847 604 896 q 407 742 475 799 l 394 744 l 372 769 q 489 894 429 828 q 567 979 549 960 l 579 975 l 625 922 l 622 910 z "},"ū":{"ha":751,"x_min":39,"x_max":749,"o":"m 125 482 q 74 557 125 557 q 53 555 64 557 q 39 551 42 553 l 44 603 q 161 626 99 611 q 243 644 224 640 l 251 628 q 226 464 238 592 q 215 215 215 336 q 326 79 215 79 q 404 99 368 79 q 494 158 440 119 l 494 481 q 479 539 494 522 q 425 556 464 556 l 392 554 l 397 604 q 525 626 458 613 q 611 644 592 640 l 619 628 q 598 454 607 596 q 589 146 589 313 q 604 99 589 115 q 646 82 619 82 q 684 90 665 82 q 715 106 703 97 q 729 117 726 114 l 749 94 q 723 60 743 86 q 676 8 703 33 q 628 -17 649 -17 q 504 96 515 -17 l 497 99 q 377 15 431 47 q 304 -17 324 -17 q 167 25 215 -17 q 119 144 119 67 l 125 482 m 356 826 l 156 825 l 147 838 l 161 900 l 375 899 q 477 902 418 899 q 554 907 536 906 l 563 893 l 553 828 l 356 826 z "},"ų":{"ha":751,"x_min":39,"x_max":768,"o":"m 768 -247 q 742 -269 763 -253 q 692 -304 722 -285 q 629 -335 661 -324 q 517 -299 558 -335 q 475 -204 475 -264 q 501 -124 475 -168 q 590 -12 528 -79 q 504 96 513 4 l 497 99 q 374 15 426 46 q 304 -17 322 -17 q 167 25 215 -17 q 119 144 119 67 l 125 482 q 74 557 125 557 q 53 555 64 557 q 39 551 42 553 l 44 603 q 161 626 99 611 q 243 644 224 640 l 251 628 q 226 462 238 590 q 215 215 215 333 q 326 79 215 79 q 394 97 358 79 q 494 158 431 114 l 494 481 q 479 539 494 522 q 425 556 464 556 l 392 554 l 397 604 q 525 626 458 613 q 611 644 592 640 l 619 628 q 598 454 607 596 q 589 146 589 313 q 604 99 589 115 q 646 82 619 82 q 684 90 665 82 q 715 106 703 97 q 729 117 726 114 l 753 90 q 626 -47 664 -3 q 575 -117 588 -90 q 563 -175 563 -143 q 585 -231 563 -208 q 643 -253 608 -253 q 691 -246 667 -253 q 731 -231 715 -239 q 750 -221 746 -224 l 768 -247 z "},"ů":{"ha":751,"x_min":39,"x_max":749,"o":"m 125 482 q 74 557 125 557 q 53 555 64 557 q 39 551 42 553 l 44 603 q 161 626 99 611 q 243 644 224 640 l 251 628 q 226 464 238 592 q 215 215 215 336 q 326 79 215 79 q 404 99 368 79 q 494 158 440 119 l 494 481 q 479 539 494 522 q 425 556 464 556 l 392 554 l 397 604 q 525 626 458 613 q 611 644 592 640 l 619 628 q 598 454 607 596 q 589 146 589 313 q 604 99 589 115 q 646 82 619 82 q 684 90 665 82 q 715 106 703 97 q 729 117 726 114 l 749 94 q 723 60 743 86 q 676 8 703 33 q 628 -17 649 -17 q 504 96 515 -17 l 497 99 q 377 15 431 47 q 304 -17 324 -17 q 167 25 215 -17 q 119 144 119 67 l 125 482 m 349 756 q 271 786 299 756 q 243 867 243 817 q 275 951 243 918 q 360 983 307 983 q 440 953 414 983 q 467 878 467 922 q 435 792 467 828 q 349 756 403 756 m 358 808 q 419 863 419 808 q 401 911 419 893 q 349 929 382 929 q 303 915 319 929 q 288 875 288 900 q 310 825 288 842 q 358 808 332 808 z "}}}
